<ttFont>
    <TTGlyph name="A" xMin="30" yMin="0" xMax="692" yMax="727">
      <contour>
        <pt x="224" y="159" on="1"/>
        <pt x="171" y="0" on="1"/>
        <pt x="30" y="0" on="1"/>
        <pt x="291" y="727" on="1"/>
        <pt x="431" y="727" on="1"/>
        <pt x="692" y="0" on="1"/>
        <pt x="544" y="0" on="1"/>
        <pt x="364" y="541" on="1"/>
        <pt x="356" y="578" on="1"/>
        <pt x="347" y="539" on="1"/>
        <pt x="262" y="280" on="1"/>
        <pt x="250" y="260" on="1"/>
        <pt x="265" y="262" on="1"/>
        <pt x="341" y="262" on="1"/>
        <pt x="363" y="262" on="0"/>
        <pt x="395" y="242" on="0"/>
        <pt x="419" y="212" on="0"/>
        <pt x="436" y="175" on="0"/>
        <pt x="441" y="159" on="1"/>
      </contour>
    </TTGlyph>
    <TTGlyph name="AE" xMin="0" yMin="0" xMax="915" yMax="727">
      <contour>
        <pt x="218" y="159" on="1"/>
        <pt x="141" y="0" on="1"/>
        <pt x="0" y="0" on="1"/>
        <pt x="372" y="727" on="1"/>
        <pt x="844" y="727" on="1"/>
        <pt x="844" y="624" on="1"/>
        <pt x="546" y="624" on="1"/>
        <pt x="624" y="103" on="1"/>
        <pt x="915" y="103" on="1"/>
        <pt x="915" y="0" on="1"/>
        <pt x="506" y="0" on="1"/>
        <pt x="423" y="552" on="1"/>
        <pt x="420" y="589" on="1"/>
        <pt x="406" y="554" on="1"/>
        <pt x="274" y="280" on="1"/>
        <pt x="259" y="260" on="1"/>
        <pt x="279" y="262" on="1"/>
        <pt x="346" y="262" on="1"/>
        <pt x="368" y="262" on="0"/>
        <pt x="400" y="242" on="0"/>
        <pt x="424" y="212" on="0"/>
        <pt x="441" y="175" on="0"/>
        <pt x="446" y="159" on="1"/>
      </contour>
      <contour>
        <pt x="626" y="331" on="1"/>
        <pt x="632" y="349" on="0"/>
        <pt x="649" y="386" on="0"/>
        <pt x="676" y="414" on="0"/>
        <pt x="714" y="432" on="0"/>
        <pt x="740" y="432" on="1"/>
        <pt x="854" y="432" on="1"/>
        <pt x="854" y="331" on="1"/>
      </contour>
    </TTGlyph>
    <TTGlyph name="Aacute" xMin="12" yMin="0" xMax="674" yMax="890">
      <contour>
        <pt x="426" y="808" on="1"/>
        <pt x="411" y="791" on="0"/>
        <pt x="371" y="771" on="0"/>
        <pt x="330" y="762" on="0"/>
        <pt x="292" y="762" on="0"/>
        <pt x="279" y="765" on="1"/>
        <pt x="365" y="890" on="1"/>
        <pt x="498" y="890" on="1"/>
      </contour>
      <contour>
        <pt x="206" y="159" on="1"/>
        <pt x="153" y="0" on="1"/>
        <pt x="12" y="0" on="1"/>
        <pt x="273" y="727" on="1"/>
        <pt x="413" y="727" on="1"/>
        <pt x="674" y="0" on="1"/>
        <pt x="526" y="0" on="1"/>
        <pt x="346" y="541" on="1"/>
        <pt x="338" y="578" on="1"/>
        <pt x="329" y="539" on="1"/>
        <pt x="244" y="280" on="1"/>
        <pt x="232" y="260" on="1"/>
        <pt x="247" y="262" on="1"/>
        <pt x="323" y="262" on="1"/>
        <pt x="345" y="262" on="0"/>
        <pt x="377" y="242" on="0"/>
        <pt x="401" y="212" on="0"/>
        <pt x="418" y="175" on="0"/>
        <pt x="423" y="159" on="1"/>
      </contour>
    </TTGlyph>
    <TTGlyph name="Acircumflex" xMin="14" yMin="0" xMax="676" yMax="890">
      <contour>
        <pt x="392" y="890" on="1"/>
        <pt x="499" y="774" on="1"/>
        <pt x="418" y="756" on="1"/>
        <pt x="340" y="812" on="1"/>
        <pt x="264" y="756" on="1"/>
        <pt x="184" y="774" on="1"/>
        <pt x="289" y="890" on="1"/>
      </contour>
      <contour>
        <pt x="208" y="159" on="1"/>
        <pt x="155" y="0" on="1"/>
        <pt x="14" y="0" on="1"/>
        <pt x="275" y="727" on="1"/>
        <pt x="415" y="727" on="1"/>
        <pt x="676" y="0" on="1"/>
        <pt x="528" y="0" on="1"/>
        <pt x="348" y="541" on="1"/>
        <pt x="340" y="578" on="1"/>
        <pt x="331" y="539" on="1"/>
        <pt x="246" y="280" on="1"/>
        <pt x="234" y="260" on="1"/>
        <pt x="249" y="262" on="1"/>
        <pt x="325" y="262" on="1"/>
        <pt x="347" y="262" on="0"/>
        <pt x="379" y="242" on="0"/>
        <pt x="403" y="212" on="0"/>
        <pt x="420" y="175" on="0"/>
        <pt x="425" y="159" on="1"/>
      </contour>
    </TTGlyph>
    <TTGlyph name="Adieresis" xMin="14" yMin="0" xMax="676" yMax="903">
      <contour>
        <pt x="182" y="840" on="1"/>
        <pt x="182" y="866" on="0"/>
        <pt x="219" y="903" on="0"/>
        <pt x="245" y="903" on="1"/>
        <pt x="271" y="903" on="0"/>
        <pt x="309" y="866" on="0"/>
        <pt x="309" y="840" on="1"/>
        <pt x="309" y="814" on="0"/>
        <pt x="271" y="777" on="0"/>
        <pt x="245" y="777" on="1"/>
        <pt x="219" y="777" on="0"/>
        <pt x="182" y="814" on="0"/>
      </contour>
      <contour>
        <pt x="377" y="840" on="1"/>
        <pt x="377" y="866" on="0"/>
        <pt x="414" y="903" on="0"/>
        <pt x="440" y="903" on="1"/>
        <pt x="466" y="903" on="0"/>
        <pt x="504" y="866" on="0"/>
        <pt x="504" y="840" on="1"/>
        <pt x="504" y="814" on="0"/>
        <pt x="466" y="777" on="0"/>
        <pt x="440" y="777" on="1"/>
        <pt x="414" y="777" on="0"/>
        <pt x="377" y="814" on="0"/>
      </contour>
      <contour>
        <pt x="208" y="159" on="1"/>
        <pt x="155" y="0" on="1"/>
        <pt x="14" y="0" on="1"/>
        <pt x="275" y="727" on="1"/>
        <pt x="415" y="727" on="1"/>
        <pt x="676" y="0" on="1"/>
        <pt x="528" y="0" on="1"/>
        <pt x="348" y="541" on="1"/>
        <pt x="340" y="578" on="1"/>
        <pt x="331" y="539" on="1"/>
        <pt x="246" y="280" on="1"/>
        <pt x="234" y="260" on="1"/>
        <pt x="249" y="262" on="1"/>
        <pt x="325" y="262" on="1"/>
        <pt x="347" y="262" on="0"/>
        <pt x="379" y="242" on="0"/>
        <pt x="403" y="212" on="0"/>
        <pt x="420" y="175" on="0"/>
        <pt x="425" y="159" on="1"/>
      </contour>
    </TTGlyph>
    <TTGlyph name="Agrave" xMin="14" yMin="0" xMax="676" yMax="890">
      <contour>
        <pt x="210" y="890" on="1"/>
        <pt x="343" y="890" on="1"/>
        <pt x="417" y="765" on="1"/>
        <pt x="404" y="762" on="0"/>
        <pt x="365" y="761" on="0"/>
        <pt x="323" y="770" on="0"/>
        <pt x="284" y="791" on="0"/>
        <pt x="271" y="808" on="1"/>
      </contour>
      <contour>
        <pt x="208" y="159" on="1"/>
        <pt x="155" y="0" on="1"/>
        <pt x="14" y="0" on="1"/>
        <pt x="275" y="727" on="1"/>
        <pt x="415" y="727" on="1"/>
        <pt x="676" y="0" on="1"/>
        <pt x="528" y="0" on="1"/>
        <pt x="348" y="541" on="1"/>
        <pt x="340" y="578" on="1"/>
        <pt x="331" y="539" on="1"/>
        <pt x="246" y="280" on="1"/>
        <pt x="234" y="260" on="1"/>
        <pt x="249" y="262" on="1"/>
        <pt x="325" y="262" on="1"/>
        <pt x="347" y="262" on="0"/>
        <pt x="379" y="242" on="0"/>
        <pt x="403" y="212" on="0"/>
        <pt x="420" y="175" on="0"/>
        <pt x="425" y="159" on="1"/>
      </contour>
    </TTGlyph>
    <TTGlyph name="Aring" xMin="15" yMin="0" xMax="677" yMax="895">
      <contour>
        <pt x="209" y="159" on="1"/>
        <pt x="156" y="0" on="1"/>
        <pt x="15" y="0" on="1"/>
        <pt x="275" y="725" on="1"/>
        <pt x="237" y="752" on="0"/>
        <pt x="237" y="797" on="1"/>
        <pt x="237" y="818" on="0"/>
        <pt x="254" y="854" on="0"/>
        <pt x="284" y="880" on="0"/>
        <pt x="324" y="895" on="0"/>
        <pt x="348" y="895" on="1"/>
        <pt x="396" y="895" on="0"/>
        <pt x="456" y="842" on="0"/>
        <pt x="456" y="798" on="1"/>
        <pt x="456" y="775" on="0"/>
        <pt x="435" y="737" on="0"/>
        <pt x="417" y="724" on="1"/>
        <pt x="677" y="0" on="1"/>
        <pt x="529" y="0" on="1"/>
        <pt x="348" y="546" on="1"/>
        <pt x="341" y="574" on="1"/>
        <pt x="334" y="545" on="1"/>
        <pt x="247" y="280" on="1"/>
        <pt x="235" y="260" on="1"/>
        <pt x="248" y="262" on="1"/>
        <pt x="326" y="262" on="1"/>
        <pt x="348" y="262" on="0"/>
        <pt x="380" y="242" on="0"/>
        <pt x="404" y="212" on="0"/>
        <pt x="421" y="175" on="0"/>
        <pt x="426" y="159" on="1"/>
      </contour>
      <contour>
        <pt x="347" y="760" on="1"/>
        <pt x="365" y="760" on="0"/>
        <pt x="384" y="782" on="0"/>
        <pt x="384" y="799" on="1"/>
        <pt x="384" y="816" on="0"/>
        <pt x="365" y="839" on="0"/>
        <pt x="347" y="839" on="1"/>
        <pt x="330" y="839" on="0"/>
        <pt x="312" y="816" on="0"/>
        <pt x="312" y="798" on="1"/>
        <pt x="312" y="784" on="0"/>
        <pt x="330" y="760" on="0"/>
      </contour>
    </TTGlyph>
    <TTGlyph name="Atilde" xMin="14" yMin="0" xMax="676" yMax="901">
      <contour>
        <pt x="188" y="783" on="1"/>
        <pt x="189" y="811" on="0"/>
        <pt x="206" y="855" on="0"/>
        <pt x="234" y="885" on="0"/>
        <pt x="269" y="901" on="0"/>
        <pt x="287" y="901" on="1"/>
        <pt x="309" y="901" on="0"/>
        <pt x="343" y="884" on="0"/>
        <pt x="371" y="865" on="0"/>
        <pt x="394" y="848" on="0"/>
        <pt x="405" y="848" on="1"/>
        <pt x="418" y="848" on="0"/>
        <pt x="434" y="873" on="0"/>
        <pt x="436" y="893" on="1"/>
        <pt x="509" y="887" on="1"/>
        <pt x="507" y="855" on="0"/>
        <pt x="488" y="811" on="0"/>
        <pt x="461" y="782" on="0"/>
        <pt x="429" y="769" on="0"/>
        <pt x="415" y="769" on="1"/>
        <pt x="390" y="769" on="0"/>
        <pt x="356" y="786" on="0"/>
        <pt x="331" y="805" on="0"/>
        <pt x="310" y="822" on="0"/>
        <pt x="298" y="822" on="1"/>
        <pt x="287" y="822" on="0"/>
        <pt x="265" y="803" on="0"/>
        <pt x="263" y="777" on="1"/>
      </contour>
      <contour>
        <pt x="208" y="159" on="1"/>
        <pt x="155" y="0" on="1"/>
        <pt x="14" y="0" on="1"/>
        <pt x="275" y="727" on="1"/>
        <pt x="415" y="727" on="1"/>
        <pt x="676" y="0" on="1"/>
        <pt x="528" y="0" on="1"/>
        <pt x="348" y="541" on="1"/>
        <pt x="340" y="578" on="1"/>
        <pt x="331" y="539" on="1"/>
        <pt x="246" y="280" on="1"/>
        <pt x="234" y="260" on="1"/>
        <pt x="249" y="262" on="1"/>
        <pt x="325" y="262" on="1"/>
        <pt x="347" y="262" on="0"/>
        <pt x="379" y="242" on="0"/>
        <pt x="403" y="212" on="0"/>
        <pt x="420" y="175" on="0"/>
        <pt x="425" y="159" on="1"/>
      </contour>
    </TTGlyph>
    <TTGlyph name="B" xMin="81" yMin="-11" xMax="630" yMax="740">
      <contour>
        <pt x="311" y="428" on="1"/>
        <pt x="337" y="428" on="0"/>
        <pt x="385" y="443" on="0"/>
        <pt x="421" y="471" on="0"/>
        <pt x="443" y="510" on="0"/>
        <pt x="443" y="534" on="1"/>
        <pt x="443" y="552" on="0"/>
        <pt x="428" y="589" on="0"/>
        <pt x="397" y="619" on="0"/>
        <pt x="347" y="639" on="0"/>
        <pt x="311" y="639" on="1"/>
        <pt x="284" y="639" on="0"/>
        <pt x="248" y="636" on="0"/>
        <pt x="221" y="632" on="1"/>
        <pt x="221" y="428" on="1"/>
      </contour>
      <contour>
        <pt x="360" y="90" on="1"/>
        <pt x="414" y="90" on="0"/>
        <pt x="483" y="150" on="0"/>
        <pt x="483" y="206" on="1"/>
        <pt x="483" y="236" on="0"/>
        <pt x="457" y="283" on="0"/>
        <pt x="411" y="316" on="0"/>
        <pt x="348" y="334" on="0"/>
        <pt x="311" y="334" on="1"/>
        <pt x="221" y="334" on="1"/>
        <pt x="221" y="0" on="1"/>
        <pt x="81" y="0" on="1"/>
        <pt x="81" y="716" on="1"/>
        <pt x="121" y="723" on="0"/>
        <pt x="183" y="732" on="0"/>
        <pt x="235" y="738" on="0"/>
        <pt x="284" y="740" on="0"/>
        <pt x="311" y="740" on="1"/>
        <pt x="378" y="740" on="0"/>
        <pt x="482" y="711" on="0"/>
        <pt x="551" y="657" on="0"/>
        <pt x="587" y="581" on="0"/>
        <pt x="587" y="535" on="1"/>
        <pt x="587" y="498" on="0"/>
        <pt x="541" y="425" on="0"/>
        <pt x="504" y="402" on="1"/>
        <pt x="475" y="388" on="1"/>
        <pt x="503" y="381" on="1"/>
        <pt x="530" y="371" on="0"/>
        <pt x="577" y="334" on="0"/>
        <pt x="611" y="286" on="0"/>
        <pt x="630" y="232" on="0"/>
        <pt x="630" y="205" on="1"/>
        <pt x="630" y="166" on="0"/>
        <pt x="595" y="89" on="0"/>
        <pt x="529" y="28" on="0"/>
        <pt x="435" y="-11" on="0"/>
        <pt x="376" y="-11" on="1"/>
        <pt x="362" y="-11" on="0"/>
        <pt x="339" y="-10" on="0"/>
        <pt x="313" y="-6" on="0"/>
        <pt x="282" y="1" on="0"/>
        <pt x="260" y="6" on="1"/>
        <pt x="266" y="19" on="0"/>
        <pt x="284" y="49" on="0"/>
        <pt x="308" y="74" on="0"/>
        <pt x="340" y="90" on="0"/>
      </contour>
    </TTGlyph>
    <TTGlyph name="C" xMin="48" yMin="-12" xMax="611" yMax="740">
      <contour>
        <pt x="435" y="-12" on="1"/>
        <pt x="342" y="-12" on="0"/>
        <pt x="198" y="46" on="0"/>
        <pt x="99" y="148" on="0"/>
        <pt x="48" y="285" on="0"/>
        <pt x="48" y="364" on="1"/>
        <pt x="48" y="442" on="0"/>
        <pt x="101" y="579" on="0"/>
        <pt x="201" y="681" on="0"/>
        <pt x="345" y="740" on="0"/>
        <pt x="435" y="740" on="1"/>
        <pt x="477" y="740" on="0"/>
        <pt x="563" y="724" on="0"/>
        <pt x="611" y="706" on="1"/>
        <pt x="575" y="614" on="1"/>
        <pt x="531" y="627" on="0"/>
        <pt x="469" y="637" on="0"/>
        <pt x="435" y="637" on="1"/>
        <pt x="375" y="637" on="0"/>
        <pt x="287" y="590" on="0"/>
        <pt x="229" y="514" on="0"/>
        <pt x="200" y="416" on="0"/>
        <pt x="200" y="364" on="1"/>
        <pt x="200" y="312" on="0"/>
        <pt x="229" y="214" on="0"/>
        <pt x="287" y="137" on="0"/>
        <pt x="375" y="91" on="0"/>
        <pt x="435" y="91" on="1"/>
        <pt x="502" y="91" on="0"/>
        <pt x="574" y="125" on="1"/>
        <pt x="611" y="34" on="1"/>
        <pt x="566" y="11" on="0"/>
        <pt x="477" y="-12" on="0"/>
      </contour>
    </TTGlyph>
    <TTGlyph name="Ccedilla" xMin="48" yMin="-213" xMax="611" yMax="740">
      <contour>
        <pt x="435" y="-12" on="1"/>
        <pt x="427" y="-12" on="0"/>
        <pt x="413" y="-11" on="0"/>
        <pt x="405" y="-11" on="1"/>
        <pt x="398" y="-43" on="1"/>
        <pt x="428" y="-50" on="0"/>
        <pt x="479" y="-90" on="0"/>
        <pt x="479" y="-123" on="1"/>
        <pt x="479" y="-146" on="0"/>
        <pt x="456" y="-179" on="0"/>
        <pt x="420" y="-202" on="0"/>
        <pt x="375" y="-213" on="0"/>
        <pt x="352" y="-213" on="1"/>
        <pt x="317" y="-213" on="0"/>
        <pt x="271" y="-193" on="1"/>
        <pt x="289" y="-138" on="1"/>
        <pt x="308" y="-145" on="0"/>
        <pt x="337" y="-150" on="0"/>
        <pt x="352" y="-150" on="1"/>
        <pt x="369" y="-150" on="0"/>
        <pt x="392" y="-137" on="0"/>
        <pt x="392" y="-126" on="1"/>
        <pt x="392" y="-111" on="0"/>
        <pt x="353" y="-95" on="0"/>
        <pt x="318" y="-91" on="1"/>
        <pt x="341" y="-3" on="1"/>
        <pt x="270" y="10" on="0"/>
        <pt x="161" y="77" on="0"/>
        <pt x="87" y="174" on="0"/>
        <pt x="48" y="295" on="0"/>
        <pt x="48" y="364" on="1"/>
        <pt x="48" y="442" on="0"/>
        <pt x="101" y="579" on="0"/>
        <pt x="201" y="681" on="0"/>
        <pt x="345" y="740" on="0"/>
        <pt x="435" y="740" on="1"/>
        <pt x="477" y="740" on="0"/>
        <pt x="563" y="724" on="0"/>
        <pt x="611" y="706" on="1"/>
        <pt x="575" y="614" on="1"/>
        <pt x="531" y="627" on="0"/>
        <pt x="469" y="637" on="0"/>
        <pt x="435" y="637" on="1"/>
        <pt x="375" y="637" on="0"/>
        <pt x="287" y="590" on="0"/>
        <pt x="229" y="514" on="0"/>
        <pt x="200" y="416" on="0"/>
        <pt x="200" y="364" on="1"/>
        <pt x="200" y="312" on="0"/>
        <pt x="229" y="214" on="0"/>
        <pt x="287" y="137" on="0"/>
        <pt x="375" y="91" on="0"/>
        <pt x="435" y="91" on="1"/>
        <pt x="502" y="91" on="0"/>
        <pt x="574" y="125" on="1"/>
        <pt x="611" y="34" on="1"/>
        <pt x="566" y="11" on="0"/>
        <pt x="477" y="-12" on="0"/>
      </contour>
    </TTGlyph>
    <TTGlyph name="D" xMin="83" yMin="-12" xMax="733" yMax="740">
      <contour>
        <pt x="363" y="91" on="1"/>
        <pt x="420" y="91" on="0"/>
        <pt x="503" y="139" on="0"/>
        <pt x="557" y="217" on="0"/>
        <pt x="582" y="315" on="0"/>
        <pt x="582" y="365" on="1"/>
        <pt x="582" y="424" on="0"/>
        <pt x="551" y="524" on="0"/>
        <pt x="485" y="596" on="0"/>
        <pt x="382" y="637" on="0"/>
        <pt x="310" y="637" on="1"/>
        <pt x="290" y="637" on="0"/>
        <pt x="247" y="633" on="0"/>
        <pt x="224" y="629" on="1"/>
        <pt x="224" y="0" on="1"/>
        <pt x="83" y="0" on="1"/>
        <pt x="83" y="714" on="1"/>
        <pt x="150" y="728" on="0"/>
        <pt x="266" y="740" on="0"/>
        <pt x="310" y="740" on="1"/>
        <pt x="410" y="740" on="0"/>
        <pt x="567" y="689" on="0"/>
        <pt x="676" y="593" on="0"/>
        <pt x="733" y="454" on="0"/>
        <pt x="733" y="365" on="1"/>
        <pt x="733" y="286" on="0"/>
        <pt x="679" y="148" on="0"/>
        <pt x="585" y="46" on="0"/>
        <pt x="454" y="-12" on="0"/>
        <pt x="378" y="-12" on="1"/>
        <pt x="364" y="-12" on="0"/>
        <pt x="341" y="-11" on="0"/>
        <pt x="315" y="-7" on="0"/>
        <pt x="284" y="-1" on="0"/>
        <pt x="262" y="5" on="1"/>
        <pt x="268" y="18" on="0"/>
        <pt x="286" y="48" on="0"/>
        <pt x="310" y="74" on="0"/>
        <pt x="342" y="91" on="0"/>
      </contour>
    </TTGlyph>
    <TTGlyph name="E" xMin="83" yMin="0" xMax="535" yMax="727">
      <contour>
        <pt x="83" y="727" on="1"/>
        <pt x="519" y="727" on="1"/>
        <pt x="519" y="624" on="1"/>
        <pt x="226" y="624" on="1"/>
        <pt x="226" y="103" on="1"/>
        <pt x="535" y="103" on="1"/>
        <pt x="535" y="0" on="1"/>
        <pt x="83" y="0" on="1"/>
      </contour>
      <contour>
        <pt x="264" y="331" on="1"/>
        <pt x="269" y="347" on="0"/>
        <pt x="285" y="383" on="0"/>
        <pt x="309" y="413" on="0"/>
        <pt x="342" y="432" on="0"/>
        <pt x="364" y="432" on="1"/>
        <pt x="485" y="432" on="1"/>
        <pt x="485" y="331" on="1"/>
      </contour>
    </TTGlyph>
    <TTGlyph name="Eacute" xMin="67" yMin="0" xMax="519" yMax="890">
      <contour>
        <pt x="67" y="727" on="1"/>
        <pt x="503" y="727" on="1"/>
        <pt x="503" y="624" on="1"/>
        <pt x="210" y="624" on="1"/>
        <pt x="210" y="103" on="1"/>
        <pt x="519" y="103" on="1"/>
        <pt x="519" y="0" on="1"/>
        <pt x="67" y="0" on="1"/>
      </contour>
      <contour>
        <pt x="248" y="331" on="1"/>
        <pt x="253" y="347" on="0"/>
        <pt x="269" y="383" on="0"/>
        <pt x="293" y="413" on="0"/>
        <pt x="326" y="432" on="0"/>
        <pt x="348" y="432" on="1"/>
        <pt x="469" y="432" on="1"/>
        <pt x="469" y="331" on="1"/>
      </contour>
      <contour>
        <pt x="381" y="808" on="1"/>
        <pt x="366" y="791" on="0"/>
        <pt x="326" y="771" on="0"/>
        <pt x="285" y="762" on="0"/>
        <pt x="247" y="762" on="0"/>
        <pt x="234" y="765" on="1"/>
        <pt x="320" y="890" on="1"/>
        <pt x="453" y="890" on="1"/>
      </contour>
    </TTGlyph>
    <TTGlyph name="Ecircumflex" xMin="67" yMin="0" xMax="519" yMax="890">
      <contour>
        <pt x="67" y="727" on="1"/>
        <pt x="503" y="727" on="1"/>
        <pt x="503" y="624" on="1"/>
        <pt x="210" y="624" on="1"/>
        <pt x="210" y="103" on="1"/>
        <pt x="519" y="103" on="1"/>
        <pt x="519" y="0" on="1"/>
        <pt x="67" y="0" on="1"/>
      </contour>
      <contour>
        <pt x="248" y="331" on="1"/>
        <pt x="253" y="347" on="0"/>
        <pt x="269" y="383" on="0"/>
        <pt x="293" y="413" on="0"/>
        <pt x="326" y="432" on="0"/>
        <pt x="348" y="432" on="1"/>
        <pt x="469" y="432" on="1"/>
        <pt x="469" y="331" on="1"/>
      </contour>
      <contour>
        <pt x="354" y="890" on="1"/>
        <pt x="461" y="774" on="1"/>
        <pt x="380" y="756" on="1"/>
        <pt x="302" y="812" on="1"/>
        <pt x="226" y="756" on="1"/>
        <pt x="146" y="774" on="1"/>
        <pt x="251" y="890" on="1"/>
      </contour>
    </TTGlyph>
    <TTGlyph name="Edieresis" xMin="67" yMin="0" xMax="519" yMax="903">
      <contour>
        <pt x="67" y="727" on="1"/>
        <pt x="503" y="727" on="1"/>
        <pt x="503" y="624" on="1"/>
        <pt x="210" y="624" on="1"/>
        <pt x="210" y="103" on="1"/>
        <pt x="519" y="103" on="1"/>
        <pt x="519" y="0" on="1"/>
        <pt x="67" y="0" on="1"/>
      </contour>
      <contour>
        <pt x="248" y="331" on="1"/>
        <pt x="253" y="347" on="0"/>
        <pt x="269" y="383" on="0"/>
        <pt x="293" y="413" on="0"/>
        <pt x="326" y="432" on="0"/>
        <pt x="348" y="432" on="1"/>
        <pt x="469" y="432" on="1"/>
        <pt x="469" y="331" on="1"/>
      </contour>
      <contour>
        <pt x="139" y="840" on="1"/>
        <pt x="139" y="866" on="0"/>
        <pt x="176" y="903" on="0"/>
        <pt x="202" y="903" on="1"/>
        <pt x="228" y="903" on="0"/>
        <pt x="266" y="866" on="0"/>
        <pt x="266" y="840" on="1"/>
        <pt x="266" y="814" on="0"/>
        <pt x="228" y="777" on="0"/>
        <pt x="202" y="777" on="1"/>
        <pt x="176" y="777" on="0"/>
        <pt x="139" y="814" on="0"/>
      </contour>
      <contour>
        <pt x="334" y="840" on="1"/>
        <pt x="334" y="866" on="0"/>
        <pt x="371" y="903" on="0"/>
        <pt x="397" y="903" on="1"/>
        <pt x="423" y="903" on="0"/>
        <pt x="461" y="866" on="0"/>
        <pt x="461" y="840" on="1"/>
        <pt x="461" y="814" on="0"/>
        <pt x="423" y="777" on="0"/>
        <pt x="397" y="777" on="1"/>
        <pt x="371" y="777" on="0"/>
        <pt x="334" y="814" on="0"/>
      </contour>
    </TTGlyph>
    <TTGlyph name="Egrave" xMin="67" yMin="0" xMax="519" yMax="890">
      <contour>
        <pt x="67" y="727" on="1"/>
        <pt x="503" y="727" on="1"/>
        <pt x="503" y="624" on="1"/>
        <pt x="210" y="624" on="1"/>
        <pt x="210" y="103" on="1"/>
        <pt x="519" y="103" on="1"/>
        <pt x="519" y="0" on="1"/>
        <pt x="67" y="0" on="1"/>
      </contour>
      <contour>
        <pt x="248" y="331" on="1"/>
        <pt x="253" y="347" on="0"/>
        <pt x="269" y="383" on="0"/>
        <pt x="293" y="413" on="0"/>
        <pt x="326" y="432" on="0"/>
        <pt x="348" y="432" on="1"/>
        <pt x="469" y="432" on="1"/>
        <pt x="469" y="331" on="1"/>
      </contour>
      <contour>
        <pt x="168" y="890" on="1"/>
        <pt x="301" y="890" on="1"/>
        <pt x="375" y="765" on="1"/>
        <pt x="362" y="762" on="0"/>
        <pt x="323" y="761" on="0"/>
        <pt x="281" y="770" on="0"/>
        <pt x="242" y="791" on="0"/>
        <pt x="229" y="808" on="1"/>
      </contour>
    </TTGlyph>
    <TTGlyph name="Eth" xMin="-12" yMin="-12" xMax="717" yMax="740">
      <contour>
        <pt x="347" y="91" on="1"/>
        <pt x="404" y="91" on="0"/>
        <pt x="487" y="139" on="0"/>
        <pt x="541" y="217" on="0"/>
        <pt x="566" y="315" on="0"/>
        <pt x="566" y="365" on="1"/>
        <pt x="566" y="424" on="0"/>
        <pt x="535" y="524" on="0"/>
        <pt x="469" y="596" on="0"/>
        <pt x="366" y="637" on="0"/>
        <pt x="294" y="637" on="1"/>
        <pt x="274" y="637" on="0"/>
        <pt x="231" y="633" on="0"/>
        <pt x="208" y="629" on="1"/>
        <pt x="208" y="401" on="1"/>
        <pt x="411" y="401" on="1"/>
        <pt x="411" y="310" on="1"/>
        <pt x="208" y="310" on="1"/>
        <pt x="208" y="0" on="1"/>
        <pt x="67" y="0" on="1"/>
        <pt x="67" y="310" on="1"/>
        <pt x="-12" y="310" on="1"/>
        <pt x="-12" y="401" on="1"/>
        <pt x="67" y="401" on="1"/>
        <pt x="67" y="714" on="1"/>
        <pt x="134" y="728" on="0"/>
        <pt x="250" y="740" on="0"/>
        <pt x="294" y="740" on="1"/>
        <pt x="394" y="740" on="0"/>
        <pt x="551" y="689" on="0"/>
        <pt x="660" y="593" on="0"/>
        <pt x="717" y="454" on="0"/>
        <pt x="717" y="365" on="1"/>
        <pt x="717" y="286" on="0"/>
        <pt x="663" y="148" on="0"/>
        <pt x="569" y="46" on="0"/>
        <pt x="438" y="-12" on="0"/>
        <pt x="362" y="-12" on="1"/>
        <pt x="348" y="-12" on="0"/>
        <pt x="325" y="-11" on="0"/>
        <pt x="299" y="-7" on="0"/>
        <pt x="268" y="-1" on="0"/>
        <pt x="246" y="5" on="1"/>
        <pt x="252" y="18" on="0"/>
        <pt x="270" y="48" on="0"/>
        <pt x="294" y="74" on="0"/>
        <pt x="326" y="91" on="0"/>
      </contour>
    </TTGlyph>
    <TTGlyph name="Euro" xMin="-33" yMin="-12" xMax="536" yMax="712">
      <contour>
        <pt x="367" y="-12" on="1"/>
        <pt x="295" y="-12" on="0"/>
        <pt x="186" y="29" on="0"/>
        <pt x="108" y="99" on="0"/>
        <pt x="58" y="192" on="0"/>
        <pt x="46" y="244" on="1"/>
        <pt x="-33" y="244" on="1"/>
        <pt x="-33" y="319" on="1"/>
        <pt x="35" y="319" on="1"/>
        <pt x="34" y="327" on="0"/>
        <pt x="34" y="342" on="0"/>
        <pt x="34" y="350" on="1"/>
        <pt x="34" y="361" on="0"/>
        <pt x="34" y="385" on="0"/>
        <pt x="36" y="396" on="1"/>
        <pt x="-33" y="396" on="1"/>
        <pt x="-33" y="471" on="1"/>
        <pt x="49" y="471" on="1"/>
        <pt x="63" y="521" on="0"/>
        <pt x="115" y="609" on="0"/>
        <pt x="194" y="674" on="0"/>
        <pt x="299" y="712" on="0"/>
        <pt x="367" y="712" on="1"/>
        <pt x="408" y="712" on="0"/>
        <pt x="490" y="696" on="0"/>
        <pt x="536" y="679" on="1"/>
        <pt x="501" y="591" on="1"/>
        <pt x="459" y="603" on="0"/>
        <pt x="400" y="613" on="0"/>
        <pt x="367" y="613" on="1"/>
        <pt x="319" y="613" on="0"/>
        <pt x="249" y="568" on="0"/>
        <pt x="202" y="495" on="0"/>
        <pt x="180" y="400" on="0"/>
        <pt x="180" y="350" on="1"/>
        <pt x="180" y="342" on="0"/>
        <pt x="180" y="327" on="0"/>
        <pt x="181" y="319" on="1"/>
        <pt x="457" y="319" on="1"/>
        <pt x="457" y="244" on="1"/>
        <pt x="211" y="244" on="1"/>
        <pt x="190" y="245" on="1"/>
        <pt x="198" y="229" on="1"/>
        <pt x="218" y="168" on="0"/>
        <pt x="301" y="87" on="0"/>
        <pt x="367" y="87" on="1"/>
        <pt x="400" y="87" on="0"/>
        <pt x="465" y="103" on="0"/>
        <pt x="500" y="120" on="1"/>
        <pt x="536" y="32" on="1"/>
        <pt x="493" y="9" on="0"/>
        <pt x="408" y="-12" on="0"/>
      </contour>
      <contour>
        <pt x="457" y="471" on="1"/>
        <pt x="457" y="396" on="1"/>
        <pt x="217" y="396" on="1"/>
        <pt x="227" y="425" on="0"/>
        <pt x="267" y="471" on="0"/>
        <pt x="304" y="471" on="1"/>
      </contour>
    </TTGlyph>
    <TTGlyph name="F" xMin="83" yMin="0" xMax="519" yMax="727">
      <contour>
        <pt x="83" y="727" on="1"/>
        <pt x="519" y="727" on="1"/>
        <pt x="519" y="624" on="1"/>
        <pt x="226" y="624" on="1"/>
        <pt x="226" y="0" on="1"/>
        <pt x="83" y="0" on="1"/>
      </contour>
      <contour>
        <pt x="264" y="331" on="1"/>
        <pt x="269" y="347" on="0"/>
        <pt x="285" y="383" on="0"/>
        <pt x="309" y="413" on="0"/>
        <pt x="342" y="432" on="0"/>
        <pt x="364" y="432" on="1"/>
        <pt x="485" y="432" on="1"/>
        <pt x="485" y="331" on="1"/>
      </contour>
    </TTGlyph>
    <TTGlyph name="G" xMin="42" yMin="-12" xMax="662" yMax="740">
      <contour>
        <pt x="441" y="637" on="1"/>
        <pt x="381" y="637" on="0"/>
        <pt x="289" y="592" on="0"/>
        <pt x="226" y="517" on="0"/>
        <pt x="194" y="417" on="0"/>
        <pt x="194" y="363" on="1"/>
        <pt x="194" y="311" on="0"/>
        <pt x="226" y="213" on="0"/>
        <pt x="287" y="137" on="0"/>
        <pt x="378" y="91" on="0"/>
        <pt x="438" y="91" on="1"/>
        <pt x="460" y="91" on="0"/>
        <pt x="502" y="94" on="0"/>
        <pt x="534" y="102" on="1"/>
        <pt x="534" y="337" on="1"/>
        <pt x="662" y="337" on="1"/>
        <pt x="662" y="37" on="1"/>
        <pt x="635" y="25" on="0"/>
        <pt x="574" y="6" on="0"/>
        <pt x="514" y="-6" on="0"/>
        <pt x="459" y="-12" on="0"/>
        <pt x="438" y="-12" on="1"/>
        <pt x="345" y="-12" on="0"/>
        <pt x="198" y="46" on="0"/>
        <pt x="96" y="148" on="0"/>
        <pt x="42" y="285" on="0"/>
        <pt x="42" y="363" on="1"/>
        <pt x="42" y="442" on="0"/>
        <pt x="98" y="579" on="0"/>
        <pt x="202" y="681" on="0"/>
        <pt x="349" y="740" on="0"/>
        <pt x="441" y="740" on="1"/>
        <pt x="483" y="740" on="0"/>
        <pt x="595" y="720" on="0"/>
        <pt x="652" y="696" on="1"/>
        <pt x="615" y="600" on="1"/>
        <pt x="558" y="622" on="0"/>
        <pt x="476" y="637" on="0"/>
      </contour>
    </TTGlyph>
    <TTGlyph name="H" xMin="83" yMin="0" xMax="682" yMax="727">
      <contour>
        <pt x="264" y="330" on="1"/>
        <pt x="269" y="346" on="0"/>
        <pt x="285" y="383" on="0"/>
        <pt x="309" y="413" on="0"/>
        <pt x="342" y="433" on="0"/>
        <pt x="364" y="433" on="1"/>
        <pt x="541" y="433" on="1"/>
        <pt x="541" y="727" on="1"/>
        <pt x="682" y="727" on="1"/>
        <pt x="682" y="0" on="1"/>
        <pt x="541" y="0" on="1"/>
        <pt x="541" y="330" on="1"/>
      </contour>
      <contour>
        <pt x="83" y="727" on="1"/>
        <pt x="226" y="727" on="1"/>
        <pt x="226" y="0" on="1"/>
        <pt x="83" y="0" on="1"/>
      </contour>
    </TTGlyph>
    <TTGlyph name="I" xMin="83" yMin="0" xMax="222" yMax="727">
      <contour>
        <pt x="222" y="0" on="1"/>
        <pt x="83" y="0" on="1"/>
        <pt x="83" y="727" on="1"/>
        <pt x="222" y="727" on="1"/>
      </contour>
    </TTGlyph>
    <TTGlyph name="Iacute" xMin="65" yMin="0" xMax="287" yMax="890">
      <contour>
        <pt x="204" y="0" on="1"/>
        <pt x="65" y="0" on="1"/>
        <pt x="65" y="727" on="1"/>
        <pt x="204" y="727" on="1"/>
      </contour>
      <contour>
        <pt x="215" y="808" on="1"/>
        <pt x="200" y="791" on="0"/>
        <pt x="160" y="771" on="0"/>
        <pt x="119" y="762" on="0"/>
        <pt x="81" y="762" on="0"/>
        <pt x="68" y="765" on="1"/>
        <pt x="154" y="890" on="1"/>
        <pt x="287" y="890" on="1"/>
      </contour>
    </TTGlyph>
    <TTGlyph name="Icircumflex" xMin="3" yMin="0" xMax="318" yMax="890">
      <contour>
        <pt x="229" y="0" on="1"/>
        <pt x="90" y="0" on="1"/>
        <pt x="90" y="727" on="1"/>
        <pt x="229" y="727" on="1"/>
      </contour>
      <contour>
        <pt x="211" y="890" on="1"/>
        <pt x="318" y="774" on="1"/>
        <pt x="237" y="756" on="1"/>
        <pt x="159" y="812" on="1"/>
        <pt x="83" y="756" on="1"/>
        <pt x="3" y="774" on="1"/>
        <pt x="108" y="890" on="1"/>
      </contour>
    </TTGlyph>
    <TTGlyph name="Idieresis" xMin="12" yMin="0" xMax="334" yMax="903">
      <contour>
        <pt x="243" y="0" on="1"/>
        <pt x="104" y="0" on="1"/>
        <pt x="104" y="727" on="1"/>
        <pt x="243" y="727" on="1"/>
      </contour>
      <contour>
        <pt x="12" y="840" on="1"/>
        <pt x="12" y="866" on="0"/>
        <pt x="49" y="903" on="0"/>
        <pt x="75" y="903" on="1"/>
        <pt x="101" y="903" on="0"/>
        <pt x="139" y="866" on="0"/>
        <pt x="139" y="840" on="1"/>
        <pt x="139" y="814" on="0"/>
        <pt x="101" y="777" on="0"/>
        <pt x="75" y="777" on="1"/>
        <pt x="49" y="777" on="0"/>
        <pt x="12" y="814" on="0"/>
      </contour>
      <contour>
        <pt x="207" y="840" on="1"/>
        <pt x="207" y="866" on="0"/>
        <pt x="244" y="903" on="0"/>
        <pt x="270" y="903" on="1"/>
        <pt x="296" y="903" on="0"/>
        <pt x="334" y="866" on="0"/>
        <pt x="334" y="840" on="1"/>
        <pt x="334" y="814" on="0"/>
        <pt x="296" y="777" on="0"/>
        <pt x="270" y="777" on="1"/>
        <pt x="244" y="777" on="0"/>
        <pt x="207" y="814" on="0"/>
      </contour>
    </TTGlyph>
    <TTGlyph name="Igrave" xMin="6" yMin="0" xMax="213" yMax="890">
      <contour>
        <pt x="212" y="0" on="1"/>
        <pt x="73" y="0" on="1"/>
        <pt x="73" y="727" on="1"/>
        <pt x="212" y="727" on="1"/>
      </contour>
      <contour>
        <pt x="6" y="890" on="1"/>
        <pt x="139" y="890" on="1"/>
        <pt x="213" y="765" on="1"/>
        <pt x="200" y="762" on="0"/>
        <pt x="161" y="761" on="0"/>
        <pt x="119" y="770" on="0"/>
        <pt x="80" y="791" on="0"/>
        <pt x="67" y="808" on="1"/>
      </contour>
    </TTGlyph>
    <TTGlyph name="J" xMin="-10" yMin="-222" xMax="290" yMax="727">
      <contour>
        <pt x="290" y="128" on="1"/>
        <pt x="290" y="58" on="0"/>
        <pt x="260" y="-40" on="0"/>
        <pt x="200" y="-117" on="0"/>
        <pt x="112" y="-183" on="0"/>
        <pt x="54" y="-222" on="1"/>
        <pt x="-10" y="-140" on="1"/>
        <pt x="27" y="-109" on="0"/>
        <pt x="86" y="-57" on="0"/>
        <pt x="127" y="3" on="0"/>
        <pt x="148" y="76" on="0"/>
        <pt x="148" y="128" on="1"/>
        <pt x="148" y="727" on="1"/>
        <pt x="290" y="727" on="1"/>
      </contour>
    </TTGlyph>
    <TTGlyph name="K" xMin="83" yMin="0" xMax="693" yMax="727">
      <contour>
        <pt x="434" y="436" on="1"/>
        <pt x="693" y="0" on="1"/>
        <pt x="529" y="0" on="1"/>
        <pt x="365" y="322" on="1"/>
        <pt x="358" y="346" on="1"/>
        <pt x="346" y="324" on="1"/>
        <pt x="283" y="243" on="1"/>
        <pt x="274" y="276" on="0"/>
        <pt x="276" y="346" on="0"/>
        <pt x="291" y="413" on="0"/>
        <pt x="318" y="473" on="0"/>
        <pt x="336" y="497" on="1"/>
        <pt x="501" y="727" on="1"/>
        <pt x="658" y="727" on="1"/>
      </contour>
      <contour>
        <pt x="83" y="0" on="1"/>
        <pt x="83" y="727" on="1"/>
        <pt x="226" y="727" on="1"/>
        <pt x="226" y="0" on="1"/>
      </contour>
    </TTGlyph>
    <TTGlyph name="L" xMin="82" yMin="0" xMax="488" yMax="727">
      <contour>
        <pt x="82" y="727" on="1"/>
        <pt x="226" y="727" on="1"/>
        <pt x="226" y="104" on="1"/>
        <pt x="488" y="104" on="1"/>
        <pt x="488" y="0" on="1"/>
        <pt x="82" y="0" on="1"/>
      </contour>
    </TTGlyph>
    <TTGlyph name="M" xMin="74" yMin="0" xMax="907" yMax="727">
      <contour>
        <pt x="144" y="727" on="1"/>
        <pt x="325" y="727" on="1"/>
        <pt x="484" y="166" on="1"/>
        <pt x="491" y="130" on="1"/>
        <pt x="499" y="166" on="1"/>
        <pt x="657" y="727" on="1"/>
        <pt x="839" y="727" on="1"/>
        <pt x="907" y="0" on="1"/>
        <pt x="776" y="0" on="1"/>
        <pt x="737" y="548" on="1"/>
        <pt x="734" y="596" on="1"/>
        <pt x="722" y="548" on="1"/>
        <pt x="564" y="10" on="1"/>
        <pt x="417" y="10" on="1"/>
        <pt x="257" y="549" on="1"/>
        <pt x="245" y="596" on="1"/>
        <pt x="242" y="549" on="1"/>
        <pt x="205" y="0" on="1"/>
        <pt x="74" y="0" on="1"/>
      </contour>
    </TTGlyph>
    <TTGlyph name="N" xMin="94" yMin="0" xMax="677" yMax="727">
      <contour>
        <pt x="230" y="509" on="1"/>
        <pt x="214" y="545" on="1"/>
        <pt x="216" y="511" on="1"/>
        <pt x="216" y="0" on="1"/>
        <pt x="94" y="0" on="1"/>
        <pt x="94" y="727" on="1"/>
        <pt x="232" y="727" on="1"/>
        <pt x="539" y="238" on="1"/>
        <pt x="553" y="198" on="1"/>
        <pt x="551" y="238" on="1"/>
        <pt x="551" y="727" on="1"/>
        <pt x="677" y="727" on="1"/>
        <pt x="677" y="0" on="1"/>
        <pt x="551" y="0" on="1"/>
      </contour>
    </TTGlyph>
    <TTGlyph name="Ntilde" xMin="84" yMin="0" xMax="667" yMax="901">
      <contour>
        <pt x="218" y="511" on="1"/>
        <pt x="204" y="545" on="1"/>
        <pt x="206" y="511" on="1"/>
        <pt x="206" y="0" on="1"/>
        <pt x="84" y="0" on="1"/>
        <pt x="84" y="727" on="1"/>
        <pt x="222" y="727" on="1"/>
        <pt x="531" y="236" on="1"/>
        <pt x="543" y="203" on="1"/>
        <pt x="541" y="238" on="1"/>
        <pt x="541" y="727" on="1"/>
        <pt x="667" y="727" on="1"/>
        <pt x="667" y="0" on="1"/>
        <pt x="541" y="0" on="1"/>
      </contour>
      <contour>
        <pt x="217" y="783" on="1"/>
        <pt x="218" y="811" on="0"/>
        <pt x="235" y="855" on="0"/>
        <pt x="263" y="885" on="0"/>
        <pt x="298" y="901" on="0"/>
        <pt x="316" y="901" on="1"/>
        <pt x="338" y="901" on="0"/>
        <pt x="372" y="884" on="0"/>
        <pt x="400" y="865" on="0"/>
        <pt x="423" y="848" on="0"/>
        <pt x="434" y="848" on="1"/>
        <pt x="447" y="848" on="0"/>
        <pt x="463" y="873" on="0"/>
        <pt x="465" y="893" on="1"/>
        <pt x="538" y="887" on="1"/>
        <pt x="536" y="855" on="0"/>
        <pt x="517" y="811" on="0"/>
        <pt x="490" y="782" on="0"/>
        <pt x="458" y="769" on="0"/>
        <pt x="444" y="769" on="1"/>
        <pt x="419" y="769" on="0"/>
        <pt x="385" y="786" on="0"/>
        <pt x="360" y="805" on="0"/>
        <pt x="339" y="822" on="0"/>
        <pt x="327" y="822" on="1"/>
        <pt x="316" y="822" on="0"/>
        <pt x="294" y="803" on="0"/>
        <pt x="292" y="777" on="1"/>
      </contour>
    </TTGlyph>
    <TTGlyph name="O" xMin="43" yMin="-14" xMax="766" yMax="742">
      <contour>
        <pt x="405" y="639" on="1"/>
        <pt x="353" y="639" on="0"/>
        <pt x="275" y="595" on="0"/>
        <pt x="222" y="519" on="0"/>
        <pt x="195" y="419" on="0"/>
        <pt x="195" y="364" on="1"/>
        <pt x="195" y="312" on="0"/>
        <pt x="222" y="213" on="0"/>
        <pt x="275" y="136" on="0"/>
        <pt x="353" y="89" on="0"/>
        <pt x="405" y="89" on="1"/>
        <pt x="446" y="89" on="0"/>
        <pt x="522" y="126" on="0"/>
        <pt x="580" y="196" on="0"/>
        <pt x="615" y="298" on="0"/>
        <pt x="615" y="364" on="1"/>
        <pt x="615" y="423" on="0"/>
        <pt x="586" y="524" on="0"/>
        <pt x="532" y="597" on="0"/>
        <pt x="454" y="639" on="0"/>
      </contour>
      <contour>
        <pt x="405" y="-14" on="1"/>
        <pt x="318" y="-14" on="0"/>
        <pt x="184" y="44" on="0"/>
        <pt x="91" y="145" on="0"/>
        <pt x="43" y="283" on="0"/>
        <pt x="43" y="364" on="1"/>
        <pt x="43" y="442" on="0"/>
        <pt x="92" y="580" on="0"/>
        <pt x="185" y="683" on="0"/>
        <pt x="319" y="742" on="0"/>
        <pt x="405" y="742" on="1"/>
        <pt x="503" y="742" on="0"/>
        <pt x="640" y="674" on="0"/>
        <pt x="727" y="565" on="0"/>
        <pt x="766" y="430" on="0"/>
        <pt x="766" y="364" on="1"/>
        <pt x="766" y="290" on="0"/>
        <pt x="718" y="154" on="0"/>
        <pt x="627" y="49" on="0"/>
        <pt x="492" y="-14" on="0"/>
      </contour>
    </TTGlyph>
    <TTGlyph name="OE" xMin="20" yMin="-14" xMax="930" yMax="742">
      <contour>
        <pt x="382" y="742" on="1"/>
        <pt x="402" y="742" on="0"/>
        <pt x="440" y="737" on="0"/>
        <pt x="478" y="732" on="0"/>
        <pt x="518" y="727" on="0"/>
        <pt x="541" y="727" on="1"/>
        <pt x="914" y="727" on="1"/>
        <pt x="914" y="624" on="1"/>
        <pt x="621" y="624" on="1"/>
        <pt x="621" y="103" on="1"/>
        <pt x="930" y="103" on="1"/>
        <pt x="930" y="0" on="1"/>
        <pt x="541" y="0" on="1"/>
        <pt x="516" y="0" on="0"/>
        <pt x="474" y="-4" on="0"/>
        <pt x="436" y="-10" on="0"/>
        <pt x="400" y="-14" on="0"/>
        <pt x="382" y="-14" on="1"/>
        <pt x="297" y="-14" on="0"/>
        <pt x="163" y="42" on="0"/>
        <pt x="70" y="142" on="0"/>
        <pt x="20" y="281" on="0"/>
        <pt x="20" y="364" on="1"/>
        <pt x="20" y="446" on="0"/>
        <pt x="71" y="584" on="0"/>
        <pt x="165" y="685" on="0"/>
        <pt x="299" y="742" on="0"/>
      </contour>
      <contour>
        <pt x="382" y="89" on="1"/>
        <pt x="436" y="89" on="0"/>
        <pt x="478" y="105" on="1"/>
        <pt x="478" y="622" on="1"/>
        <pt x="433" y="639" on="0"/>
        <pt x="382" y="639" on="1"/>
        <pt x="330" y="639" on="0"/>
        <pt x="252" y="595" on="0"/>
        <pt x="199" y="519" on="0"/>
        <pt x="172" y="419" on="0"/>
        <pt x="172" y="364" on="1"/>
        <pt x="172" y="312" on="0"/>
        <pt x="199" y="213" on="0"/>
        <pt x="252" y="136" on="0"/>
        <pt x="330" y="89" on="0"/>
      </contour>
      <contour>
        <pt x="659" y="331" on="1"/>
        <pt x="664" y="347" on="0"/>
        <pt x="680" y="383" on="0"/>
        <pt x="704" y="413" on="0"/>
        <pt x="737" y="432" on="0"/>
        <pt x="759" y="432" on="1"/>
        <pt x="880" y="432" on="1"/>
        <pt x="880" y="331" on="1"/>
      </contour>
    </TTGlyph>
    <TTGlyph name="Oacute" xMin="19" yMin="-14" xMax="742" yMax="890">
      <contour>
        <pt x="381" y="89" on="1"/>
        <pt x="433" y="89" on="0"/>
        <pt x="511" y="136" on="0"/>
        <pt x="564" y="213" on="0"/>
        <pt x="591" y="312" on="0"/>
        <pt x="591" y="364" on="1"/>
        <pt x="591" y="419" on="0"/>
        <pt x="564" y="519" on="0"/>
        <pt x="511" y="595" on="0"/>
        <pt x="433" y="639" on="0"/>
        <pt x="381" y="639" on="1"/>
        <pt x="329" y="639" on="0"/>
        <pt x="251" y="595" on="0"/>
        <pt x="198" y="519" on="0"/>
        <pt x="171" y="419" on="0"/>
        <pt x="171" y="364" on="1"/>
        <pt x="171" y="312" on="0"/>
        <pt x="198" y="213" on="0"/>
        <pt x="251" y="136" on="0"/>
        <pt x="329" y="89" on="0"/>
      </contour>
      <contour>
        <pt x="381" y="-14" on="1"/>
        <pt x="296" y="-14" on="0"/>
        <pt x="162" y="42" on="0"/>
        <pt x="69" y="142" on="0"/>
        <pt x="19" y="281" on="0"/>
        <pt x="19" y="364" on="1"/>
        <pt x="19" y="446" on="0"/>
        <pt x="70" y="584" on="0"/>
        <pt x="164" y="685" on="0"/>
        <pt x="298" y="742" on="0"/>
        <pt x="381" y="742" on="1"/>
        <pt x="465" y="742" on="0"/>
        <pt x="599" y="686" on="0"/>
        <pt x="692" y="585" on="0"/>
        <pt x="742" y="446" on="0"/>
        <pt x="742" y="364" on="1"/>
        <pt x="742" y="282" on="0"/>
        <pt x="688" y="143" on="0"/>
        <pt x="592" y="43" on="0"/>
        <pt x="460" y="-14" on="0"/>
      </contour>
      <contour>
        <pt x="477" y="808" on="1"/>
        <pt x="462" y="791" on="0"/>
        <pt x="422" y="771" on="0"/>
        <pt x="381" y="762" on="0"/>
        <pt x="343" y="762" on="0"/>
        <pt x="330" y="765" on="1"/>
        <pt x="416" y="890" on="1"/>
        <pt x="549" y="890" on="1"/>
      </contour>
    </TTGlyph>
    <TTGlyph name="Ocircumflex" xMin="19" yMin="-14" xMax="742" yMax="890">
      <contour>
        <pt x="381" y="89" on="1"/>
        <pt x="433" y="89" on="0"/>
        <pt x="511" y="136" on="0"/>
        <pt x="564" y="213" on="0"/>
        <pt x="591" y="312" on="0"/>
        <pt x="591" y="364" on="1"/>
        <pt x="591" y="419" on="0"/>
        <pt x="564" y="519" on="0"/>
        <pt x="511" y="595" on="0"/>
        <pt x="433" y="639" on="0"/>
        <pt x="381" y="639" on="1"/>
        <pt x="329" y="639" on="0"/>
        <pt x="251" y="595" on="0"/>
        <pt x="198" y="519" on="0"/>
        <pt x="171" y="419" on="0"/>
        <pt x="171" y="364" on="1"/>
        <pt x="171" y="312" on="0"/>
        <pt x="198" y="213" on="0"/>
        <pt x="251" y="136" on="0"/>
        <pt x="329" y="89" on="0"/>
      </contour>
      <contour>
        <pt x="381" y="-14" on="1"/>
        <pt x="296" y="-14" on="0"/>
        <pt x="162" y="42" on="0"/>
        <pt x="69" y="142" on="0"/>
        <pt x="19" y="281" on="0"/>
        <pt x="19" y="364" on="1"/>
        <pt x="19" y="446" on="0"/>
        <pt x="70" y="584" on="0"/>
        <pt x="164" y="685" on="0"/>
        <pt x="298" y="742" on="0"/>
        <pt x="381" y="742" on="1"/>
        <pt x="465" y="742" on="0"/>
        <pt x="599" y="686" on="0"/>
        <pt x="692" y="585" on="0"/>
        <pt x="742" y="446" on="0"/>
        <pt x="742" y="364" on="1"/>
        <pt x="742" y="282" on="0"/>
        <pt x="688" y="143" on="0"/>
        <pt x="592" y="43" on="0"/>
        <pt x="460" y="-14" on="0"/>
      </contour>
      <contour>
        <pt x="435" y="890" on="1"/>
        <pt x="542" y="774" on="1"/>
        <pt x="461" y="756" on="1"/>
        <pt x="383" y="812" on="1"/>
        <pt x="307" y="756" on="1"/>
        <pt x="227" y="774" on="1"/>
        <pt x="332" y="890" on="1"/>
      </contour>
    </TTGlyph>
    <TTGlyph name="Odieresis" xMin="20" yMin="-14" xMax="743" yMax="903">
      <contour>
        <pt x="382" y="89" on="1"/>
        <pt x="434" y="89" on="0"/>
        <pt x="512" y="136" on="0"/>
        <pt x="565" y="213" on="0"/>
        <pt x="592" y="312" on="0"/>
        <pt x="592" y="364" on="1"/>
        <pt x="592" y="419" on="0"/>
        <pt x="565" y="519" on="0"/>
        <pt x="512" y="595" on="0"/>
        <pt x="434" y="639" on="0"/>
        <pt x="382" y="639" on="1"/>
        <pt x="330" y="639" on="0"/>
        <pt x="252" y="595" on="0"/>
        <pt x="199" y="519" on="0"/>
        <pt x="172" y="419" on="0"/>
        <pt x="172" y="364" on="1"/>
        <pt x="172" y="312" on="0"/>
        <pt x="199" y="213" on="0"/>
        <pt x="252" y="136" on="0"/>
        <pt x="330" y="89" on="0"/>
      </contour>
      <contour>
        <pt x="382" y="-14" on="1"/>
        <pt x="297" y="-14" on="0"/>
        <pt x="163" y="42" on="0"/>
        <pt x="70" y="142" on="0"/>
        <pt x="20" y="281" on="0"/>
        <pt x="20" y="364" on="1"/>
        <pt x="20" y="446" on="0"/>
        <pt x="71" y="584" on="0"/>
        <pt x="165" y="685" on="0"/>
        <pt x="299" y="742" on="0"/>
        <pt x="382" y="742" on="1"/>
        <pt x="466" y="742" on="0"/>
        <pt x="600" y="686" on="0"/>
        <pt x="693" y="585" on="0"/>
        <pt x="743" y="446" on="0"/>
        <pt x="743" y="364" on="1"/>
        <pt x="743" y="282" on="0"/>
        <pt x="689" y="143" on="0"/>
        <pt x="593" y="43" on="0"/>
        <pt x="461" y="-14" on="0"/>
      </contour>
      <contour>
        <pt x="223" y="840" on="1"/>
        <pt x="223" y="866" on="0"/>
        <pt x="260" y="903" on="0"/>
        <pt x="286" y="903" on="1"/>
        <pt x="312" y="903" on="0"/>
        <pt x="350" y="866" on="0"/>
        <pt x="350" y="840" on="1"/>
        <pt x="350" y="814" on="0"/>
        <pt x="312" y="777" on="0"/>
        <pt x="286" y="777" on="1"/>
        <pt x="260" y="777" on="0"/>
        <pt x="223" y="814" on="0"/>
      </contour>
      <contour>
        <pt x="418" y="840" on="1"/>
        <pt x="418" y="866" on="0"/>
        <pt x="455" y="903" on="0"/>
        <pt x="481" y="903" on="1"/>
        <pt x="507" y="903" on="0"/>
        <pt x="545" y="866" on="0"/>
        <pt x="545" y="840" on="1"/>
        <pt x="545" y="814" on="0"/>
        <pt x="507" y="777" on="0"/>
        <pt x="481" y="777" on="1"/>
        <pt x="455" y="777" on="0"/>
        <pt x="418" y="814" on="0"/>
      </contour>
    </TTGlyph>
    <TTGlyph name="Ograve" xMin="21" yMin="-14" xMax="744" yMax="890">
      <contour>
        <pt x="383" y="89" on="1"/>
        <pt x="435" y="89" on="0"/>
        <pt x="513" y="136" on="0"/>
        <pt x="566" y="213" on="0"/>
        <pt x="593" y="312" on="0"/>
        <pt x="593" y="364" on="1"/>
        <pt x="593" y="419" on="0"/>
        <pt x="566" y="519" on="0"/>
        <pt x="513" y="595" on="0"/>
        <pt x="435" y="639" on="0"/>
        <pt x="383" y="639" on="1"/>
        <pt x="331" y="639" on="0"/>
        <pt x="253" y="595" on="0"/>
        <pt x="200" y="519" on="0"/>
        <pt x="173" y="419" on="0"/>
        <pt x="173" y="364" on="1"/>
        <pt x="173" y="312" on="0"/>
        <pt x="200" y="213" on="0"/>
        <pt x="253" y="136" on="0"/>
        <pt x="331" y="89" on="0"/>
      </contour>
      <contour>
        <pt x="383" y="-14" on="1"/>
        <pt x="298" y="-14" on="0"/>
        <pt x="164" y="42" on="0"/>
        <pt x="71" y="142" on="0"/>
        <pt x="21" y="281" on="0"/>
        <pt x="21" y="364" on="1"/>
        <pt x="21" y="446" on="0"/>
        <pt x="72" y="584" on="0"/>
        <pt x="166" y="685" on="0"/>
        <pt x="300" y="742" on="0"/>
        <pt x="383" y="742" on="1"/>
        <pt x="467" y="742" on="0"/>
        <pt x="601" y="686" on="0"/>
        <pt x="694" y="585" on="0"/>
        <pt x="744" y="446" on="0"/>
        <pt x="744" y="364" on="1"/>
        <pt x="744" y="282" on="0"/>
        <pt x="690" y="143" on="0"/>
        <pt x="594" y="43" on="0"/>
        <pt x="462" y="-14" on="0"/>
      </contour>
      <contour>
        <pt x="217" y="890" on="1"/>
        <pt x="350" y="890" on="1"/>
        <pt x="424" y="765" on="1"/>
        <pt x="411" y="762" on="0"/>
        <pt x="372" y="761" on="0"/>
        <pt x="330" y="770" on="0"/>
        <pt x="291" y="791" on="0"/>
        <pt x="278" y="808" on="1"/>
      </contour>
    </TTGlyph>
    <TTGlyph name="Oslash" xMin="20" yMin="-60" xMax="743" yMax="789">
      <contour>
        <pt x="616" y="665" on="1"/>
        <pt x="677" y="614" on="0"/>
        <pt x="743" y="460" on="0"/>
        <pt x="743" y="364" on="1"/>
        <pt x="743" y="282" on="0"/>
        <pt x="689" y="143" on="0"/>
        <pt x="593" y="43" on="0"/>
        <pt x="461" y="-14" on="0"/>
        <pt x="382" y="-14" on="1"/>
        <pt x="341" y="-14" on="0"/>
        <pt x="269" y="-1" on="0"/>
        <pt x="237" y="11" on="1"/>
        <pt x="196" y="-60" on="1"/>
        <pt x="77" y="-60" on="1"/>
        <pt x="149" y="62" on="1"/>
        <pt x="86" y="113" on="0"/>
        <pt x="20" y="267" on="0"/>
        <pt x="20" y="364" on="1"/>
        <pt x="20" y="446" on="0"/>
        <pt x="71" y="584" on="0"/>
        <pt x="165" y="685" on="0"/>
        <pt x="299" y="742" on="0"/>
        <pt x="382" y="742" on="1"/>
        <pt x="462" y="742" on="0"/>
        <pt x="526" y="716" on="1"/>
        <pt x="570" y="789" on="1"/>
        <pt x="689" y="789" on="1"/>
      </contour>
      <contour>
        <pt x="382" y="89" on="1"/>
        <pt x="434" y="89" on="0"/>
        <pt x="512" y="136" on="0"/>
        <pt x="565" y="213" on="0"/>
        <pt x="592" y="312" on="0"/>
        <pt x="592" y="364" on="1"/>
        <pt x="592" y="416" on="0"/>
        <pt x="569" y="509" on="0"/>
        <pt x="546" y="546" on="1"/>
        <pt x="308" y="144" on="1"/>
        <pt x="297" y="159" on="0"/>
        <pt x="275" y="193" on="0"/>
        <pt x="263" y="231" on="0"/>
        <pt x="264" y="272" on="0"/>
        <pt x="275" y="294" on="1"/>
        <pt x="469" y="619" on="1"/>
        <pt x="431" y="639" on="0"/>
        <pt x="382" y="639" on="1"/>
        <pt x="330" y="639" on="0"/>
        <pt x="252" y="595" on="0"/>
        <pt x="199" y="519" on="0"/>
        <pt x="172" y="419" on="0"/>
        <pt x="172" y="364" on="1"/>
        <pt x="172" y="312" on="0"/>
        <pt x="199" y="213" on="0"/>
        <pt x="252" y="136" on="0"/>
        <pt x="330" y="89" on="0"/>
      </contour>
    </TTGlyph>
    <TTGlyph name="Otilde" xMin="20" yMin="-14" xMax="743" yMax="901">
      <contour>
        <pt x="382" y="89" on="1"/>
        <pt x="434" y="89" on="0"/>
        <pt x="512" y="136" on="0"/>
        <pt x="565" y="213" on="0"/>
        <pt x="592" y="312" on="0"/>
        <pt x="592" y="364" on="1"/>
        <pt x="592" y="419" on="0"/>
        <pt x="565" y="519" on="0"/>
        <pt x="512" y="595" on="0"/>
        <pt x="434" y="639" on="0"/>
        <pt x="382" y="639" on="1"/>
        <pt x="330" y="639" on="0"/>
        <pt x="252" y="595" on="0"/>
        <pt x="199" y="519" on="0"/>
        <pt x="172" y="419" on="0"/>
        <pt x="172" y="364" on="1"/>
        <pt x="172" y="312" on="0"/>
        <pt x="199" y="213" on="0"/>
        <pt x="252" y="136" on="0"/>
        <pt x="330" y="89" on="0"/>
      </contour>
      <contour>
        <pt x="382" y="-14" on="1"/>
        <pt x="297" y="-14" on="0"/>
        <pt x="163" y="42" on="0"/>
        <pt x="70" y="142" on="0"/>
        <pt x="20" y="281" on="0"/>
        <pt x="20" y="364" on="1"/>
        <pt x="20" y="446" on="0"/>
        <pt x="71" y="584" on="0"/>
        <pt x="165" y="685" on="0"/>
        <pt x="299" y="742" on="0"/>
        <pt x="382" y="742" on="1"/>
        <pt x="466" y="742" on="0"/>
        <pt x="600" y="686" on="0"/>
        <pt x="693" y="585" on="0"/>
        <pt x="743" y="446" on="0"/>
        <pt x="743" y="364" on="1"/>
        <pt x="743" y="282" on="0"/>
        <pt x="689" y="143" on="0"/>
        <pt x="593" y="43" on="0"/>
        <pt x="461" y="-14" on="0"/>
      </contour>
      <contour>
        <pt x="226" y="783" on="1"/>
        <pt x="227" y="811" on="0"/>
        <pt x="244" y="855" on="0"/>
        <pt x="272" y="885" on="0"/>
        <pt x="307" y="901" on="0"/>
        <pt x="325" y="901" on="1"/>
        <pt x="347" y="901" on="0"/>
        <pt x="381" y="884" on="0"/>
        <pt x="409" y="865" on="0"/>
        <pt x="432" y="848" on="0"/>
        <pt x="443" y="848" on="1"/>
        <pt x="456" y="848" on="0"/>
        <pt x="472" y="873" on="0"/>
        <pt x="474" y="893" on="1"/>
        <pt x="547" y="887" on="1"/>
        <pt x="545" y="855" on="0"/>
        <pt x="526" y="811" on="0"/>
        <pt x="499" y="782" on="0"/>
        <pt x="467" y="769" on="0"/>
        <pt x="453" y="769" on="1"/>
        <pt x="428" y="769" on="0"/>
        <pt x="394" y="786" on="0"/>
        <pt x="369" y="805" on="0"/>
        <pt x="348" y="822" on="0"/>
        <pt x="336" y="822" on="1"/>
        <pt x="325" y="822" on="0"/>
        <pt x="303" y="803" on="0"/>
        <pt x="301" y="777" on="1"/>
      </contour>
    </TTGlyph>
    <TTGlyph name="P" xMin="83" yMin="0" xMax="597" yMax="741">
      <contour>
        <pt x="597" y="513" on="1"/>
        <pt x="597" y="463" on="0"/>
        <pt x="558" y="384" on="0"/>
        <pt x="493" y="327" on="0"/>
        <pt x="410" y="293" on="0"/>
        <pt x="365" y="289" on="1"/>
        <pt x="342" y="287" on="0"/>
        <pt x="292" y="290" on="0"/>
        <pt x="264" y="298" on="1"/>
        <pt x="270" y="312" on="0"/>
        <pt x="285" y="343" on="0"/>
        <pt x="306" y="369" on="0"/>
        <pt x="333" y="387" on="0"/>
        <pt x="350" y="389" on="1"/>
        <pt x="371" y="391" on="0"/>
        <pt x="407" y="412" on="0"/>
        <pt x="434" y="445" on="0"/>
        <pt x="450" y="489" on="0"/>
        <pt x="450" y="513" on="1"/>
        <pt x="450" y="539" on="0"/>
        <pt x="430" y="584" on="0"/>
        <pt x="393" y="618" on="0"/>
        <pt x="342" y="638" on="0"/>
        <pt x="311" y="638" on="1"/>
        <pt x="297" y="638" on="0"/>
        <pt x="278" y="637" on="0"/>
        <pt x="260" y="636" on="0"/>
        <pt x="240" y="633" on="0"/>
        <pt x="227" y="632" on="1"/>
        <pt x="227" y="0" on="1"/>
        <pt x="83" y="0" on="1"/>
        <pt x="83" y="718" on="1"/>
        <pt x="123" y="725" on="0"/>
        <pt x="185" y="734" on="0"/>
        <pt x="236" y="739" on="0"/>
        <pt x="284" y="741" on="0"/>
        <pt x="311" y="741" on="1"/>
        <pt x="372" y="741" on="0"/>
        <pt x="476" y="709" on="0"/>
        <pt x="553" y="650" on="0"/>
        <pt x="597" y="566" on="0"/>
      </contour>
    </TTGlyph>
    <TTGlyph name="Q" xMin="43" yMin="-26" xMax="766" yMax="742">
      <contour>
        <pt x="394" y="-14" on="1"/>
        <pt x="313" y="-14" on="0"/>
        <pt x="184" y="42" on="0"/>
        <pt x="92" y="142" on="0"/>
        <pt x="43" y="281" on="0"/>
        <pt x="43" y="364" on="1"/>
        <pt x="43" y="446" on="0"/>
        <pt x="94" y="584" on="0"/>
        <pt x="188" y="685" on="0"/>
        <pt x="322" y="742" on="0"/>
        <pt x="405" y="742" on="1"/>
        <pt x="489" y="742" on="0"/>
        <pt x="623" y="686" on="0"/>
        <pt x="716" y="585" on="0"/>
        <pt x="766" y="446" on="0"/>
        <pt x="766" y="364" on="1"/>
        <pt x="766" y="295" on="0"/>
        <pt x="716" y="166" on="0"/>
        <pt x="675" y="114" on="1"/>
        <pt x="737" y="50" on="1"/>
        <pt x="661" y="-26" on="1"/>
        <pt x="414" y="226" on="1"/>
        <pt x="490" y="303" on="1"/>
        <pt x="570" y="221" on="1"/>
        <pt x="583" y="200" on="1"/>
        <pt x="589" y="226" on="1"/>
        <pt x="603" y="258" on="0"/>
        <pt x="615" y="330" on="0"/>
        <pt x="615" y="364" on="1"/>
        <pt x="615" y="419" on="0"/>
        <pt x="588" y="519" on="0"/>
        <pt x="535" y="595" on="0"/>
        <pt x="457" y="639" on="0"/>
        <pt x="405" y="639" on="1"/>
        <pt x="353" y="639" on="0"/>
        <pt x="275" y="595" on="0"/>
        <pt x="222" y="519" on="0"/>
        <pt x="195" y="419" on="0"/>
        <pt x="195" y="364" on="1"/>
        <pt x="195" y="312" on="0"/>
        <pt x="221" y="213" on="0"/>
        <pt x="272" y="136" on="0"/>
        <pt x="346" y="89" on="0"/>
        <pt x="394" y="89" on="1"/>
        <pt x="401" y="89" on="0"/>
        <pt x="426" y="91" on="0"/>
        <pt x="435" y="91" on="1"/>
        <pt x="451" y="91" on="0"/>
        <pt x="483" y="80" on="0"/>
        <pt x="510" y="63" on="0"/>
        <pt x="532" y="43" on="0"/>
        <pt x="540" y="34" on="1"/>
        <pt x="504" y="10" on="0"/>
        <pt x="429" y="-14" on="0"/>
      </contour>
    </TTGlyph>
    <TTGlyph name="R" xMin="83" yMin="0" xMax="628" yMax="741">
      <contour>
        <pt x="597" y="518" on="1"/>
        <pt x="597" y="458" on="0"/>
        <pt x="543" y="370" on="0"/>
        <pt x="498" y="343" on="1"/>
        <pt x="470" y="332" on="1"/>
        <pt x="474" y="330" on="0"/>
        <pt x="488" y="324" on="0"/>
        <pt x="492" y="321" on="1"/>
        <pt x="522" y="295" on="0"/>
        <pt x="556" y="224" on="0"/>
        <pt x="581" y="141" on="0"/>
        <pt x="606" y="48" on="0"/>
        <pt x="628" y="0" on="1"/>
        <pt x="481" y="0" on="1"/>
        <pt x="463" y="38" on="0"/>
        <pt x="442" y="125" on="0"/>
        <pt x="418" y="207" on="0"/>
        <pt x="386" y="277" on="0"/>
        <pt x="358" y="299" on="1"/>
        <pt x="337" y="297" on="0"/>
        <pt x="290" y="300" on="0"/>
        <pt x="264" y="308" on="1"/>
        <pt x="270" y="322" on="0"/>
        <pt x="285" y="353" on="0"/>
        <pt x="306" y="380" on="0"/>
        <pt x="333" y="398" on="0"/>
        <pt x="350" y="400" on="1"/>
        <pt x="371" y="402" on="0"/>
        <pt x="407" y="421" on="0"/>
        <pt x="434" y="452" on="0"/>
        <pt x="450" y="494" on="0"/>
        <pt x="450" y="518" on="1"/>
        <pt x="450" y="544" on="0"/>
        <pt x="428" y="588" on="0"/>
        <pt x="391" y="620" on="0"/>
        <pt x="340" y="638" on="0"/>
        <pt x="311" y="638" on="1"/>
        <pt x="297" y="638" on="0"/>
        <pt x="278" y="637" on="0"/>
        <pt x="260" y="636" on="0"/>
        <pt x="240" y="633" on="0"/>
        <pt x="227" y="632" on="1"/>
        <pt x="227" y="0" on="1"/>
        <pt x="83" y="0" on="1"/>
        <pt x="83" y="718" on="1"/>
        <pt x="123" y="725" on="0"/>
        <pt x="185" y="734" on="0"/>
        <pt x="236" y="739" on="0"/>
        <pt x="284" y="741" on="0"/>
        <pt x="311" y="741" on="1"/>
        <pt x="370" y="741" on="0"/>
        <pt x="474" y="711" on="0"/>
        <pt x="552" y="654" on="0"/>
        <pt x="597" y="571" on="0"/>
      </contour>
    </TTGlyph>
    <TTGlyph name="S" xMin="51" yMin="-13" xMax="531" yMax="740">
      <contour>
        <pt x="289" y="640" on="1"/>
        <pt x="244" y="640" on="0"/>
        <pt x="190" y="596" on="0"/>
        <pt x="190" y="562" on="1"/>
        <pt x="190" y="528" on="0"/>
        <pt x="241" y="478" on="0"/>
        <pt x="316" y="434" on="0"/>
        <pt x="405" y="388" on="0"/>
        <pt x="480" y="328" on="0"/>
        <pt x="531" y="246" on="0"/>
        <pt x="531" y="188" on="1"/>
        <pt x="531" y="140" on="0"/>
        <pt x="494" y="65" on="0"/>
        <pt x="427" y="14" on="0"/>
        <pt x="333" y="-13" on="0"/>
        <pt x="276" y="-13" on="1"/>
        <pt x="233" y="-13" on="0"/>
        <pt x="120" y="10" on="0"/>
        <pt x="51" y="42" on="1"/>
        <pt x="89" y="135" on="1"/>
        <pt x="143" y="109" on="0"/>
        <pt x="238" y="90" on="0"/>
        <pt x="276" y="90" on="1"/>
        <pt x="303" y="90" on="0"/>
        <pt x="348" y="105" on="0"/>
        <pt x="381" y="131" on="0"/>
        <pt x="399" y="165" on="0"/>
        <pt x="399" y="185" on="1"/>
        <pt x="399" y="221" on="0"/>
        <pt x="349" y="273" on="0"/>
        <pt x="273" y="318" on="0"/>
        <pt x="186" y="362" on="0"/>
        <pt x="110" y="419" on="0"/>
        <pt x="60" y="496" on="0"/>
        <pt x="60" y="550" on="1"/>
        <pt x="60" y="599" on="0"/>
        <pt x="95" y="671" on="0"/>
        <pt x="155" y="717" on="0"/>
        <pt x="235" y="740" on="0"/>
        <pt x="280" y="740" on="1"/>
        <pt x="303" y="740" on="0"/>
        <pt x="346" y="737" on="0"/>
        <pt x="393" y="730" on="0"/>
        <pt x="444" y="717" on="0"/>
        <pt x="476" y="707" on="1"/>
        <pt x="439" y="616" on="1"/>
        <pt x="394" y="629" on="0"/>
        <pt x="322" y="640" on="0"/>
      </contour>
    </TTGlyph>
    <TTGlyph name="Scaron" xMin="43" yMin="-13" xMax="523" yMax="895">
      <contour>
        <pt x="281" y="640" on="1"/>
        <pt x="236" y="640" on="0"/>
        <pt x="182" y="596" on="0"/>
        <pt x="182" y="562" on="1"/>
        <pt x="182" y="528" on="0"/>
        <pt x="233" y="478" on="0"/>
        <pt x="308" y="434" on="0"/>
        <pt x="397" y="388" on="0"/>
        <pt x="472" y="328" on="0"/>
        <pt x="523" y="246" on="0"/>
        <pt x="523" y="188" on="1"/>
        <pt x="523" y="140" on="0"/>
        <pt x="486" y="65" on="0"/>
        <pt x="419" y="14" on="0"/>
        <pt x="325" y="-13" on="0"/>
        <pt x="268" y="-13" on="1"/>
        <pt x="225" y="-13" on="0"/>
        <pt x="112" y="10" on="0"/>
        <pt x="43" y="42" on="1"/>
        <pt x="81" y="135" on="1"/>
        <pt x="135" y="109" on="0"/>
        <pt x="230" y="90" on="0"/>
        <pt x="268" y="90" on="1"/>
        <pt x="295" y="90" on="0"/>
        <pt x="340" y="105" on="0"/>
        <pt x="373" y="131" on="0"/>
        <pt x="391" y="165" on="0"/>
        <pt x="391" y="185" on="1"/>
        <pt x="391" y="221" on="0"/>
        <pt x="341" y="273" on="0"/>
        <pt x="265" y="318" on="0"/>
        <pt x="178" y="362" on="0"/>
        <pt x="102" y="419" on="0"/>
        <pt x="52" y="496" on="0"/>
        <pt x="52" y="550" on="1"/>
        <pt x="52" y="599" on="0"/>
        <pt x="87" y="671" on="0"/>
        <pt x="147" y="717" on="0"/>
        <pt x="227" y="740" on="0"/>
        <pt x="272" y="740" on="1"/>
        <pt x="295" y="740" on="0"/>
        <pt x="338" y="737" on="0"/>
        <pt x="385" y="730" on="0"/>
        <pt x="436" y="717" on="0"/>
        <pt x="468" y="707" on="1"/>
        <pt x="431" y="616" on="1"/>
        <pt x="386" y="629" on="0"/>
        <pt x="314" y="640" on="0"/>
      </contour>
      <contour>
        <pt x="229" y="761" on="1"/>
        <pt x="124" y="877" on="1"/>
        <pt x="204" y="895" on="1"/>
        <pt x="280" y="839" on="1"/>
        <pt x="358" y="895" on="1"/>
        <pt x="439" y="877" on="1"/>
        <pt x="332" y="761" on="1"/>
      </contour>
    </TTGlyph>
    <TTGlyph name="T" xMin="5" yMin="0" xMax="527" yMax="727">
      <contour>
        <pt x="5" y="624" on="1"/>
        <pt x="5" y="727" on="1"/>
        <pt x="527" y="727" on="1"/>
        <pt x="527" y="624" on="1"/>
        <pt x="337" y="624" on="1"/>
        <pt x="337" y="0" on="1"/>
        <pt x="195" y="0" on="1"/>
        <pt x="195" y="624" on="1"/>
      </contour>
    </TTGlyph>
    <TTGlyph name="Thorn" xMin="71" yMin="0" xMax="577" yMax="727">
      <contour>
        <pt x="577" y="364" on="1"/>
        <pt x="577" y="312" on="0"/>
        <pt x="538" y="231" on="0"/>
        <pt x="473" y="173" on="0"/>
        <pt x="390" y="139" on="0"/>
        <pt x="345" y="135" on="1"/>
        <pt x="322" y="133" on="0"/>
        <pt x="272" y="136" on="0"/>
        <pt x="244" y="144" on="1"/>
        <pt x="250" y="158" on="0"/>
        <pt x="265" y="189" on="0"/>
        <pt x="286" y="215" on="0"/>
        <pt x="313" y="233" on="0"/>
        <pt x="330" y="235" on="1"/>
        <pt x="351" y="237" on="0"/>
        <pt x="387" y="258" on="0"/>
        <pt x="414" y="292" on="0"/>
        <pt x="430" y="338" on="0"/>
        <pt x="430" y="364" on="1"/>
        <pt x="430" y="420" on="0"/>
        <pt x="354" y="494" on="0"/>
        <pt x="291" y="494" on="1"/>
        <pt x="277" y="494" on="0"/>
        <pt x="258" y="493" on="0"/>
        <pt x="240" y="492" on="0"/>
        <pt x="220" y="489" on="0"/>
        <pt x="207" y="488" on="1"/>
        <pt x="207" y="0" on="1"/>
        <pt x="71" y="0" on="1"/>
        <pt x="71" y="727" on="1"/>
        <pt x="207" y="727" on="1"/>
        <pt x="207" y="594" on="1"/>
        <pt x="228" y="596" on="0"/>
        <pt x="268" y="597" on="0"/>
        <pt x="291" y="597" on="1"/>
        <pt x="352" y="597" on="0"/>
        <pt x="456" y="566" on="0"/>
        <pt x="533" y="506" on="0"/>
        <pt x="577" y="419" on="0"/>
      </contour>
    </TTGlyph>
    <TTGlyph name="U" xMin="83" yMin="-14" xMax="664" yMax="727">
      <contour>
        <pt x="374" y="-14" on="1"/>
        <pt x="307" y="-14" on="0"/>
        <pt x="199" y="24" on="0"/>
        <pt x="124" y="98" on="0"/>
        <pt x="83" y="207" on="0"/>
        <pt x="83" y="278" on="1"/>
        <pt x="83" y="727" on="1"/>
        <pt x="224" y="727" on="1"/>
        <pt x="224" y="263" on="1"/>
        <pt x="224" y="222" on="0"/>
        <pt x="247" y="158" on="0"/>
        <pt x="287" y="113" on="0"/>
        <pt x="342" y="89" on="0"/>
        <pt x="374" y="89" on="1"/>
        <pt x="406" y="89" on="0"/>
        <pt x="461" y="113" on="0"/>
        <pt x="501" y="158" on="0"/>
        <pt x="524" y="222" on="0"/>
        <pt x="524" y="263" on="1"/>
        <pt x="524" y="727" on="1"/>
        <pt x="664" y="727" on="1"/>
        <pt x="664" y="278" on="1"/>
        <pt x="664" y="212" on="0"/>
        <pt x="624" y="104" on="0"/>
        <pt x="549" y="27" on="0"/>
        <pt x="441" y="-14" on="0"/>
      </contour>
    </TTGlyph>
    <TTGlyph name="Uacute" xMin="56" yMin="-14" xMax="637" yMax="890">
      <contour>
        <pt x="347" y="-14" on="1"/>
        <pt x="280" y="-14" on="0"/>
        <pt x="172" y="24" on="0"/>
        <pt x="97" y="98" on="0"/>
        <pt x="56" y="207" on="0"/>
        <pt x="56" y="278" on="1"/>
        <pt x="56" y="727" on="1"/>
        <pt x="197" y="727" on="1"/>
        <pt x="197" y="263" on="1"/>
        <pt x="197" y="222" on="0"/>
        <pt x="220" y="158" on="0"/>
        <pt x="260" y="113" on="0"/>
        <pt x="315" y="89" on="0"/>
        <pt x="347" y="89" on="1"/>
        <pt x="379" y="89" on="0"/>
        <pt x="434" y="113" on="0"/>
        <pt x="474" y="158" on="0"/>
        <pt x="497" y="222" on="0"/>
        <pt x="497" y="263" on="1"/>
        <pt x="497" y="727" on="1"/>
        <pt x="637" y="727" on="1"/>
        <pt x="637" y="278" on="1"/>
        <pt x="637" y="212" on="0"/>
        <pt x="597" y="104" on="0"/>
        <pt x="522" y="27" on="0"/>
        <pt x="414" y="-14" on="0"/>
      </contour>
      <contour>
        <pt x="437" y="808" on="1"/>
        <pt x="422" y="791" on="0"/>
        <pt x="382" y="771" on="0"/>
        <pt x="341" y="762" on="0"/>
        <pt x="303" y="762" on="0"/>
        <pt x="290" y="765" on="1"/>
        <pt x="376" y="890" on="1"/>
        <pt x="509" y="890" on="1"/>
      </contour>
    </TTGlyph>
    <TTGlyph name="Ucircumflex" xMin="56" yMin="-14" xMax="637" yMax="890">
      <contour>
        <pt x="347" y="-14" on="1"/>
        <pt x="280" y="-14" on="0"/>
        <pt x="172" y="24" on="0"/>
        <pt x="97" y="98" on="0"/>
        <pt x="56" y="207" on="0"/>
        <pt x="56" y="278" on="1"/>
        <pt x="56" y="727" on="1"/>
        <pt x="197" y="727" on="1"/>
        <pt x="197" y="263" on="1"/>
        <pt x="197" y="222" on="0"/>
        <pt x="220" y="158" on="0"/>
        <pt x="260" y="113" on="0"/>
        <pt x="315" y="89" on="0"/>
        <pt x="347" y="89" on="1"/>
        <pt x="379" y="89" on="0"/>
        <pt x="434" y="113" on="0"/>
        <pt x="474" y="158" on="0"/>
        <pt x="497" y="222" on="0"/>
        <pt x="497" y="263" on="1"/>
        <pt x="497" y="727" on="1"/>
        <pt x="637" y="727" on="1"/>
        <pt x="637" y="278" on="1"/>
        <pt x="637" y="212" on="0"/>
        <pt x="597" y="104" on="0"/>
        <pt x="522" y="27" on="0"/>
        <pt x="414" y="-14" on="0"/>
      </contour>
      <contour>
        <pt x="398" y="890" on="1"/>
        <pt x="505" y="774" on="1"/>
        <pt x="424" y="756" on="1"/>
        <pt x="346" y="812" on="1"/>
        <pt x="270" y="756" on="1"/>
        <pt x="190" y="774" on="1"/>
        <pt x="295" y="890" on="1"/>
      </contour>
    </TTGlyph>
    <TTGlyph name="Udieresis" xMin="55" yMin="-14" xMax="636" yMax="903">
      <contour>
        <pt x="346" y="-14" on="1"/>
        <pt x="279" y="-14" on="0"/>
        <pt x="171" y="24" on="0"/>
        <pt x="96" y="98" on="0"/>
        <pt x="55" y="207" on="0"/>
        <pt x="55" y="278" on="1"/>
        <pt x="55" y="727" on="1"/>
        <pt x="196" y="727" on="1"/>
        <pt x="196" y="263" on="1"/>
        <pt x="196" y="222" on="0"/>
        <pt x="219" y="158" on="0"/>
        <pt x="259" y="113" on="0"/>
        <pt x="314" y="89" on="0"/>
        <pt x="346" y="89" on="1"/>
        <pt x="378" y="89" on="0"/>
        <pt x="433" y="113" on="0"/>
        <pt x="473" y="158" on="0"/>
        <pt x="496" y="222" on="0"/>
        <pt x="496" y="263" on="1"/>
        <pt x="496" y="727" on="1"/>
        <pt x="636" y="727" on="1"/>
        <pt x="636" y="278" on="1"/>
        <pt x="636" y="212" on="0"/>
        <pt x="596" y="104" on="0"/>
        <pt x="521" y="27" on="0"/>
        <pt x="413" y="-14" on="0"/>
      </contour>
      <contour>
        <pt x="187" y="840" on="1"/>
        <pt x="187" y="866" on="0"/>
        <pt x="224" y="903" on="0"/>
        <pt x="250" y="903" on="1"/>
        <pt x="276" y="903" on="0"/>
        <pt x="314" y="866" on="0"/>
        <pt x="314" y="840" on="1"/>
        <pt x="314" y="814" on="0"/>
        <pt x="276" y="777" on="0"/>
        <pt x="250" y="777" on="1"/>
        <pt x="224" y="777" on="0"/>
        <pt x="187" y="814" on="0"/>
      </contour>
      <contour>
        <pt x="382" y="840" on="1"/>
        <pt x="382" y="866" on="0"/>
        <pt x="419" y="903" on="0"/>
        <pt x="445" y="903" on="1"/>
        <pt x="471" y="903" on="0"/>
        <pt x="509" y="866" on="0"/>
        <pt x="509" y="840" on="1"/>
        <pt x="509" y="814" on="0"/>
        <pt x="471" y="777" on="0"/>
        <pt x="445" y="777" on="1"/>
        <pt x="419" y="777" on="0"/>
        <pt x="382" y="814" on="0"/>
      </contour>
    </TTGlyph>
    <TTGlyph name="Ugrave" xMin="57" yMin="-14" xMax="638" yMax="890">
      <contour>
        <pt x="348" y="-14" on="1"/>
        <pt x="281" y="-14" on="0"/>
        <pt x="173" y="24" on="0"/>
        <pt x="98" y="98" on="0"/>
        <pt x="57" y="207" on="0"/>
        <pt x="57" y="278" on="1"/>
        <pt x="57" y="727" on="1"/>
        <pt x="198" y="727" on="1"/>
        <pt x="198" y="263" on="1"/>
        <pt x="198" y="222" on="0"/>
        <pt x="221" y="158" on="0"/>
        <pt x="261" y="113" on="0"/>
        <pt x="316" y="89" on="0"/>
        <pt x="348" y="89" on="1"/>
        <pt x="380" y="89" on="0"/>
        <pt x="435" y="113" on="0"/>
        <pt x="475" y="158" on="0"/>
        <pt x="498" y="222" on="0"/>
        <pt x="498" y="263" on="1"/>
        <pt x="498" y="727" on="1"/>
        <pt x="638" y="727" on="1"/>
        <pt x="638" y="278" on="1"/>
        <pt x="638" y="212" on="0"/>
        <pt x="598" y="104" on="0"/>
        <pt x="523" y="27" on="0"/>
        <pt x="415" y="-14" on="0"/>
      </contour>
      <contour>
        <pt x="200" y="890" on="1"/>
        <pt x="333" y="890" on="1"/>
        <pt x="407" y="765" on="1"/>
        <pt x="394" y="762" on="0"/>
        <pt x="355" y="761" on="0"/>
        <pt x="313" y="770" on="0"/>
        <pt x="274" y="791" on="0"/>
        <pt x="261" y="808" on="1"/>
      </contour>
    </TTGlyph>
    <TTGlyph name="V" xMin="8" yMin="0" xMax="663" yMax="727">
      <contour>
        <pt x="263" y="0" on="1"/>
        <pt x="8" y="727" on="1"/>
        <pt x="160" y="727" on="1"/>
        <pt x="331" y="175" on="1"/>
        <pt x="338" y="137" on="1"/>
        <pt x="345" y="174" on="1"/>
        <pt x="516" y="727" on="1"/>
        <pt x="663" y="727" on="1"/>
        <pt x="410" y="0" on="1"/>
      </contour>
    </TTGlyph>
    <TTGlyph name="W" xMin="31" yMin="0" xMax="1028" yMax="727">
      <contour>
        <pt x="611" y="717" on="1"/>
        <pt x="739" y="194" on="1"/>
        <pt x="749" y="138" on="1"/>
        <pt x="757" y="192" on="1"/>
        <pt x="892" y="727" on="1"/>
        <pt x="1028" y="727" on="1"/>
        <pt x="823" y="0" on="1"/>
        <pt x="682" y="0" on="1"/>
        <pt x="540" y="535" on="1"/>
        <pt x="531" y="576" on="1"/>
        <pt x="523" y="536" on="1"/>
        <pt x="381" y="0" on="1"/>
        <pt x="237" y="0" on="1"/>
        <pt x="31" y="727" on="1"/>
        <pt x="170" y="727" on="1"/>
        <pt x="305" y="193" on="1"/>
        <pt x="313" y="138" on="1"/>
        <pt x="324" y="193" on="1"/>
        <pt x="454" y="717" on="1"/>
      </contour>
    </TTGlyph>
    <TTGlyph name="X" xMin="29" yMin="0" xMax="630" yMax="727">
      <contour>
        <pt x="40" y="727" on="1"/>
        <pt x="198" y="727" on="1"/>
        <pt x="321" y="488" on="1"/>
        <pt x="331" y="457" on="1"/>
        <pt x="339" y="488" on="1"/>
        <pt x="462" y="727" on="1"/>
        <pt x="619" y="727" on="1"/>
        <pt x="402" y="368" on="1"/>
        <pt x="630" y="0" on="1"/>
        <pt x="475" y="0" on="1"/>
      </contour>
      <contour>
        <pt x="182" y="0" on="1"/>
        <pt x="29" y="0" on="1"/>
        <pt x="227" y="325" on="1"/>
        <pt x="236" y="312" on="0"/>
        <pt x="260" y="270" on="0"/>
        <pt x="275" y="221" on="0"/>
        <pt x="276" y="168" on="0"/>
        <pt x="263" y="145" on="1"/>
      </contour>
    </TTGlyph>
    <TTGlyph name="Y" xMin="25" yMin="0" xMax="656" yMax="727">
      <contour>
        <pt x="414" y="339" on="1"/>
        <pt x="414" y="0" on="1"/>
        <pt x="276" y="0" on="1"/>
        <pt x="276" y="322" on="1"/>
        <pt x="25" y="727" on="1"/>
        <pt x="181" y="727" on="1"/>
      </contour>
      <contour>
        <pt x="502" y="727" on="1"/>
        <pt x="656" y="727" on="1"/>
        <pt x="444" y="377" on="1"/>
        <pt x="434" y="390" on="0"/>
        <pt x="411" y="431" on="0"/>
        <pt x="396" y="480" on="0"/>
        <pt x="395" y="533" on="0"/>
        <pt x="408" y="557" on="1"/>
      </contour>
    </TTGlyph>
    <TTGlyph name="Yacute" xMin="5" yMin="0" xMax="636" yMax="890">
      <contour>
        <pt x="394" y="339" on="1"/>
        <pt x="394" y="0" on="1"/>
        <pt x="256" y="0" on="1"/>
        <pt x="256" y="322" on="1"/>
        <pt x="5" y="727" on="1"/>
        <pt x="161" y="727" on="1"/>
      </contour>
      <contour>
        <pt x="482" y="727" on="1"/>
        <pt x="636" y="727" on="1"/>
        <pt x="424" y="377" on="1"/>
        <pt x="414" y="390" on="0"/>
        <pt x="391" y="431" on="0"/>
        <pt x="376" y="480" on="0"/>
        <pt x="375" y="533" on="0"/>
        <pt x="388" y="557" on="1"/>
      </contour>
      <contour>
        <pt x="433" y="808" on="1"/>
        <pt x="418" y="791" on="0"/>
        <pt x="378" y="771" on="0"/>
        <pt x="337" y="762" on="0"/>
        <pt x="299" y="762" on="0"/>
        <pt x="286" y="765" on="1"/>
        <pt x="372" y="890" on="1"/>
        <pt x="505" y="890" on="1"/>
      </contour>
    </TTGlyph>
    <TTGlyph name="Ydieresis" xMin="3" yMin="0" xMax="634" yMax="903">
      <contour>
        <pt x="392" y="339" on="1"/>
        <pt x="392" y="0" on="1"/>
        <pt x="254" y="0" on="1"/>
        <pt x="254" y="322" on="1"/>
        <pt x="3" y="727" on="1"/>
        <pt x="159" y="727" on="1"/>
      </contour>
      <contour>
        <pt x="480" y="727" on="1"/>
        <pt x="634" y="727" on="1"/>
        <pt x="422" y="377" on="1"/>
        <pt x="412" y="390" on="0"/>
        <pt x="389" y="431" on="0"/>
        <pt x="374" y="480" on="0"/>
        <pt x="373" y="533" on="0"/>
        <pt x="386" y="557" on="1"/>
      </contour>
      <contour>
        <pt x="163" y="840" on="1"/>
        <pt x="163" y="866" on="0"/>
        <pt x="200" y="903" on="0"/>
        <pt x="226" y="903" on="1"/>
        <pt x="252" y="903" on="0"/>
        <pt x="290" y="866" on="0"/>
        <pt x="290" y="840" on="1"/>
        <pt x="290" y="814" on="0"/>
        <pt x="252" y="777" on="0"/>
        <pt x="226" y="777" on="1"/>
        <pt x="200" y="777" on="0"/>
        <pt x="163" y="814" on="0"/>
      </contour>
      <contour>
        <pt x="358" y="840" on="1"/>
        <pt x="358" y="866" on="0"/>
        <pt x="395" y="903" on="0"/>
        <pt x="421" y="903" on="1"/>
        <pt x="447" y="903" on="0"/>
        <pt x="485" y="866" on="0"/>
        <pt x="485" y="840" on="1"/>
        <pt x="485" y="814" on="0"/>
        <pt x="447" y="777" on="0"/>
        <pt x="421" y="777" on="1"/>
        <pt x="395" y="777" on="0"/>
        <pt x="358" y="814" on="0"/>
      </contour>
    </TTGlyph>
    <TTGlyph name="Z" xMin="47" yMin="0" xMax="593" yMax="727">
      <contour>
        <pt x="78" y="727" on="1"/>
        <pt x="584" y="727" on="1"/>
        <pt x="584" y="668" on="1"/>
        <pt x="228" y="115" on="1"/>
        <pt x="212" y="100" on="1"/>
        <pt x="235" y="103" on="1"/>
        <pt x="593" y="103" on="1"/>
        <pt x="593" y="0" on="1"/>
        <pt x="47" y="0" on="1"/>
        <pt x="47" y="59" on="1"/>
        <pt x="402" y="612" on="1"/>
        <pt x="418" y="629" on="1"/>
        <pt x="394" y="626" on="1"/>
        <pt x="78" y="626" on="1"/>
      </contour>
    </TTGlyph>
    <TTGlyph name="Zcaron" xMin="73" yMin="0" xMax="619" yMax="895">
      <contour>
        <pt x="104" y="727" on="1"/>
        <pt x="610" y="727" on="1"/>
        <pt x="610" y="668" on="1"/>
        <pt x="254" y="115" on="1"/>
        <pt x="238" y="100" on="1"/>
        <pt x="261" y="103" on="1"/>
        <pt x="619" y="103" on="1"/>
        <pt x="619" y="0" on="1"/>
        <pt x="73" y="0" on="1"/>
        <pt x="73" y="59" on="1"/>
        <pt x="428" y="612" on="1"/>
        <pt x="444" y="629" on="1"/>
        <pt x="420" y="626" on="1"/>
        <pt x="104" y="626" on="1"/>
      </contour>
      <contour>
        <pt x="312" y="761" on="1"/>
        <pt x="207" y="877" on="1"/>
        <pt x="287" y="895" on="1"/>
        <pt x="363" y="839" on="1"/>
        <pt x="441" y="895" on="1"/>
        <pt x="522" y="877" on="1"/>
        <pt x="415" y="761" on="1"/>
      </contour>
    </TTGlyph>
    <TTGlyph name="a" xMin="40" yMin="-13" xMax="501" yMax="528">
      <contour>
        <pt x="398" y="0" on="1"/>
        <pt x="384" y="8" on="0"/>
        <pt x="367" y="35" on="0"/>
        <pt x="361" y="50" on="1"/>
        <pt x="358" y="70" on="1"/>
        <pt x="346" y="53" on="1"/>
        <pt x="301" y="12" on="0"/>
        <pt x="233" y="-13" on="0"/>
        <pt x="195" y="-13" on="1"/>
        <pt x="159" y="-13" on="0"/>
        <pt x="102" y="12" on="0"/>
        <pt x="61" y="54" on="0"/>
        <pt x="40" y="108" on="0"/>
        <pt x="40" y="138" on="1"/>
        <pt x="40" y="169" on="0"/>
        <pt x="66" y="227" on="0"/>
        <pt x="129" y="274" on="0"/>
        <pt x="235" y="307" on="0"/>
        <pt x="314" y="313" on="1"/>
        <pt x="309" y="278" on="0"/>
        <pt x="278" y="226" on="0"/>
        <pt x="246" y="220" on="1"/>
        <pt x="208" y="214" on="0"/>
        <pt x="174" y="176" on="0"/>
        <pt x="174" y="151" on="1"/>
        <pt x="174" y="125" on="0"/>
        <pt x="211" y="90" on="0"/>
        <pt x="237" y="90" on="1"/>
        <pt x="266" y="90" on="0"/>
        <pt x="324" y="129" on="0"/>
        <pt x="350" y="160" on="1"/>
        <pt x="350" y="311" on="1"/>
        <pt x="350" y="363" on="0"/>
        <pt x="293" y="425" on="0"/>
        <pt x="240" y="425" on="1"/>
        <pt x="215" y="425" on="0"/>
        <pt x="158" y="415" on="0"/>
        <pt x="123" y="402" on="1"/>
        <pt x="89" y="490" on="1"/>
        <pt x="134" y="510" on="0"/>
        <pt x="228" y="528" on="0"/>
        <pt x="263" y="528" on="1"/>
        <pt x="370" y="528" on="0"/>
        <pt x="485" y="417" on="0"/>
        <pt x="485" y="311" on="1"/>
        <pt x="485" y="126" on="1"/>
        <pt x="485" y="98" on="0"/>
        <pt x="492" y="35" on="0"/>
        <pt x="501" y="0" on="1"/>
      </contour>
    </TTGlyph>
    <TTGlyph name="aacute" xMin="26" yMin="-13" xMax="490" yMax="740">
      <contour>
        <pt x="347" y="645" on="1"/>
        <pt x="332" y="627" on="0"/>
        <pt x="293" y="607" on="0"/>
        <pt x="252" y="598" on="0"/>
        <pt x="214" y="599" on="0"/>
        <pt x="201" y="602" on="1"/>
        <pt x="287" y="740" on="1"/>
        <pt x="426" y="740" on="1"/>
      </contour>
      <contour>
        <pt x="384" y="0" on="1"/>
        <pt x="367" y="9" on="0"/>
        <pt x="348" y="45" on="0"/>
        <pt x="342" y="63" on="1"/>
        <pt x="317" y="39" on="0"/>
        <pt x="276" y="10" on="0"/>
        <pt x="238" y="-7" on="0"/>
        <pt x="201" y="-13" on="0"/>
        <pt x="181" y="-13" on="1"/>
        <pt x="145" y="-13" on="0"/>
        <pt x="88" y="12" on="0"/>
        <pt x="47" y="54" on="0"/>
        <pt x="26" y="108" on="0"/>
        <pt x="26" y="138" on="1"/>
        <pt x="26" y="169" on="0"/>
        <pt x="52" y="227" on="0"/>
        <pt x="115" y="274" on="0"/>
        <pt x="221" y="307" on="0"/>
        <pt x="300" y="313" on="1"/>
        <pt x="295" y="278" on="0"/>
        <pt x="264" y="226" on="0"/>
        <pt x="232" y="220" on="1"/>
        <pt x="194" y="214" on="0"/>
        <pt x="160" y="176" on="0"/>
        <pt x="160" y="151" on="1"/>
        <pt x="160" y="125" on="0"/>
        <pt x="197" y="90" on="0"/>
        <pt x="223" y="90" on="1"/>
        <pt x="252" y="90" on="0"/>
        <pt x="310" y="129" on="0"/>
        <pt x="336" y="160" on="1"/>
        <pt x="336" y="311" on="1"/>
        <pt x="336" y="363" on="0"/>
        <pt x="279" y="425" on="0"/>
        <pt x="226" y="425" on="1"/>
        <pt x="201" y="425" on="0"/>
        <pt x="144" y="415" on="0"/>
        <pt x="109" y="402" on="1"/>
        <pt x="75" y="490" on="1"/>
        <pt x="120" y="510" on="0"/>
        <pt x="199" y="528" on="0"/>
        <pt x="234" y="528" on="1"/>
        <pt x="352" y="528" on="0"/>
        <pt x="474" y="417" on="0"/>
        <pt x="474" y="311" on="1"/>
        <pt x="474" y="126" on="1"/>
        <pt x="474" y="98" on="0"/>
        <pt x="481" y="35" on="0"/>
        <pt x="490" y="0" on="1"/>
      </contour>
    </TTGlyph>
    <TTGlyph name="acircumflex" xMin="26" yMin="-13" xMax="490" yMax="743">
      <contour>
        <pt x="318" y="743" on="1"/>
        <pt x="425" y="603" on="1"/>
        <pt x="344" y="585" on="1"/>
        <pt x="266" y="658" on="1"/>
        <pt x="190" y="585" on="1"/>
        <pt x="110" y="603" on="1"/>
        <pt x="215" y="743" on="1"/>
      </contour>
      <contour>
        <pt x="384" y="0" on="1"/>
        <pt x="367" y="9" on="0"/>
        <pt x="348" y="45" on="0"/>
        <pt x="342" y="63" on="1"/>
        <pt x="317" y="39" on="0"/>
        <pt x="276" y="10" on="0"/>
        <pt x="238" y="-7" on="0"/>
        <pt x="201" y="-13" on="0"/>
        <pt x="181" y="-13" on="1"/>
        <pt x="145" y="-13" on="0"/>
        <pt x="88" y="12" on="0"/>
        <pt x="47" y="54" on="0"/>
        <pt x="26" y="108" on="0"/>
        <pt x="26" y="138" on="1"/>
        <pt x="26" y="169" on="0"/>
        <pt x="52" y="227" on="0"/>
        <pt x="115" y="274" on="0"/>
        <pt x="221" y="307" on="0"/>
        <pt x="300" y="313" on="1"/>
        <pt x="295" y="278" on="0"/>
        <pt x="264" y="226" on="0"/>
        <pt x="232" y="220" on="1"/>
        <pt x="194" y="214" on="0"/>
        <pt x="160" y="176" on="0"/>
        <pt x="160" y="151" on="1"/>
        <pt x="160" y="125" on="0"/>
        <pt x="197" y="90" on="0"/>
        <pt x="223" y="90" on="1"/>
        <pt x="252" y="90" on="0"/>
        <pt x="310" y="129" on="0"/>
        <pt x="336" y="160" on="1"/>
        <pt x="336" y="311" on="1"/>
        <pt x="336" y="363" on="0"/>
        <pt x="279" y="425" on="0"/>
        <pt x="226" y="425" on="1"/>
        <pt x="201" y="425" on="0"/>
        <pt x="144" y="415" on="0"/>
        <pt x="109" y="402" on="1"/>
        <pt x="75" y="490" on="1"/>
        <pt x="120" y="510" on="0"/>
        <pt x="199" y="528" on="0"/>
        <pt x="234" y="528" on="1"/>
        <pt x="352" y="528" on="0"/>
        <pt x="474" y="417" on="0"/>
        <pt x="474" y="311" on="1"/>
        <pt x="474" y="126" on="1"/>
        <pt x="474" y="98" on="0"/>
        <pt x="481" y="35" on="0"/>
        <pt x="490" y="0" on="1"/>
      </contour>
    </TTGlyph>
    <TTGlyph name="acute" xMin="53" yMin="598" xMax="278" yMax="740">
      <contour>
        <pt x="199" y="645" on="1"/>
        <pt x="184" y="627" on="0"/>
        <pt x="145" y="607" on="0"/>
        <pt x="104" y="598" on="0"/>
        <pt x="66" y="599" on="0"/>
        <pt x="53" y="602" on="1"/>
        <pt x="139" y="740" on="1"/>
        <pt x="278" y="740" on="1"/>
      </contour>
    </TTGlyph>
    <TTGlyph name="adieresis" xMin="27" yMin="-13" xMax="491" yMax="733">
      <contour>
        <pt x="107" y="670" on="1"/>
        <pt x="107" y="696" on="0"/>
        <pt x="144" y="733" on="0"/>
        <pt x="170" y="733" on="1"/>
        <pt x="196" y="733" on="0"/>
        <pt x="234" y="696" on="0"/>
        <pt x="234" y="670" on="1"/>
        <pt x="234" y="644" on="0"/>
        <pt x="196" y="607" on="0"/>
        <pt x="170" y="607" on="1"/>
        <pt x="144" y="607" on="0"/>
        <pt x="107" y="644" on="0"/>
      </contour>
      <contour>
        <pt x="385" y="0" on="1"/>
        <pt x="368" y="9" on="0"/>
        <pt x="349" y="45" on="0"/>
        <pt x="343" y="63" on="1"/>
        <pt x="318" y="39" on="0"/>
        <pt x="277" y="10" on="0"/>
        <pt x="239" y="-7" on="0"/>
        <pt x="202" y="-13" on="0"/>
        <pt x="182" y="-13" on="1"/>
        <pt x="146" y="-13" on="0"/>
        <pt x="89" y="12" on="0"/>
        <pt x="48" y="54" on="0"/>
        <pt x="27" y="108" on="0"/>
        <pt x="27" y="138" on="1"/>
        <pt x="27" y="169" on="0"/>
        <pt x="53" y="227" on="0"/>
        <pt x="116" y="274" on="0"/>
        <pt x="222" y="307" on="0"/>
        <pt x="301" y="313" on="1"/>
        <pt x="296" y="278" on="0"/>
        <pt x="265" y="226" on="0"/>
        <pt x="233" y="220" on="1"/>
        <pt x="195" y="214" on="0"/>
        <pt x="161" y="176" on="0"/>
        <pt x="161" y="151" on="1"/>
        <pt x="161" y="125" on="0"/>
        <pt x="198" y="90" on="0"/>
        <pt x="224" y="90" on="1"/>
        <pt x="253" y="90" on="0"/>
        <pt x="311" y="129" on="0"/>
        <pt x="337" y="160" on="1"/>
        <pt x="337" y="311" on="1"/>
        <pt x="337" y="363" on="0"/>
        <pt x="280" y="425" on="0"/>
        <pt x="227" y="425" on="1"/>
        <pt x="202" y="425" on="0"/>
        <pt x="145" y="415" on="0"/>
        <pt x="110" y="402" on="1"/>
        <pt x="76" y="490" on="1"/>
        <pt x="121" y="510" on="0"/>
        <pt x="200" y="528" on="0"/>
        <pt x="235" y="528" on="1"/>
        <pt x="353" y="528" on="0"/>
        <pt x="475" y="417" on="0"/>
        <pt x="475" y="311" on="1"/>
        <pt x="475" y="126" on="1"/>
        <pt x="475" y="98" on="0"/>
        <pt x="482" y="35" on="0"/>
        <pt x="491" y="0" on="1"/>
      </contour>
      <contour>
        <pt x="302" y="670" on="1"/>
        <pt x="302" y="696" on="0"/>
        <pt x="339" y="733" on="0"/>
        <pt x="365" y="733" on="1"/>
        <pt x="391" y="733" on="0"/>
        <pt x="429" y="696" on="0"/>
        <pt x="429" y="670" on="1"/>
        <pt x="429" y="644" on="0"/>
        <pt x="391" y="607" on="0"/>
        <pt x="365" y="607" on="1"/>
        <pt x="339" y="607" on="0"/>
        <pt x="302" y="644" on="0"/>
      </contour>
    </TTGlyph>
    <TTGlyph name="ae" xMin="27" yMin="-13" xMax="815" yMax="530">
      <contour>
        <pt x="680" y="317" on="1"/>
        <pt x="683" y="340" on="0"/>
        <pt x="673" y="382" on="0"/>
        <pt x="650" y="414" on="0"/>
        <pt x="615" y="433" on="0"/>
        <pt x="592" y="433" on="1"/>
        <pt x="571" y="433" on="0"/>
        <pt x="530" y="415" on="0"/>
        <pt x="496" y="376" on="0"/>
        <pt x="475" y="315" on="0"/>
        <pt x="475" y="272" on="1"/>
        <pt x="475" y="185" on="0"/>
        <pt x="553" y="90" on="0"/>
        <pt x="616" y="90" on="1"/>
        <pt x="651" y="90" on="0"/>
        <pt x="718" y="107" on="0"/>
        <pt x="762" y="127" on="1"/>
        <pt x="797" y="34" on="1"/>
        <pt x="743" y="8" on="0"/>
        <pt x="648" y="-13" on="0"/>
        <pt x="601" y="-13" on="1"/>
        <pt x="566" y="-13" on="0"/>
        <pt x="502" y="11" on="0"/>
        <pt x="451" y="49" on="0"/>
        <pt x="415" y="97" on="0"/>
        <pt x="407" y="121" on="1"/>
        <pt x="391" y="85" on="0"/>
        <pt x="344" y="35" on="0"/>
        <pt x="289" y="2" on="0"/>
        <pt x="232" y="-13" on="0"/>
        <pt x="207" y="-13" on="1"/>
        <pt x="167" y="-13" on="0"/>
        <pt x="101" y="8" on="0"/>
        <pt x="53" y="47" on="0"/>
        <pt x="27" y="103" on="0"/>
        <pt x="27" y="138" on="1"/>
        <pt x="27" y="169" on="0"/>
        <pt x="53" y="227" on="0"/>
        <pt x="116" y="274" on="0"/>
        <pt x="222" y="307" on="0"/>
        <pt x="301" y="313" on="1"/>
        <pt x="296" y="278" on="0"/>
        <pt x="265" y="226" on="0"/>
        <pt x="233" y="220" on="1"/>
        <pt x="195" y="214" on="0"/>
        <pt x="161" y="176" on="0"/>
        <pt x="161" y="151" on="1"/>
        <pt x="161" y="125" on="0"/>
        <pt x="198" y="90" on="0"/>
        <pt x="224" y="90" on="1"/>
        <pt x="250" y="90" on="0"/>
        <pt x="292" y="116" on="0"/>
        <pt x="321" y="162" on="0"/>
        <pt x="337" y="226" on="0"/>
        <pt x="337" y="265" on="1"/>
        <pt x="337" y="311" on="1"/>
        <pt x="337" y="363" on="0"/>
        <pt x="280" y="425" on="0"/>
        <pt x="227" y="425" on="1"/>
        <pt x="202" y="425" on="0"/>
        <pt x="145" y="415" on="0"/>
        <pt x="110" y="402" on="1"/>
        <pt x="76" y="490" on="1"/>
        <pt x="121" y="510" on="0"/>
        <pt x="215" y="528" on="0"/>
        <pt x="250" y="528" on="1"/>
        <pt x="298" y="528" on="0"/>
        <pt x="388" y="474" on="0"/>
        <pt x="417" y="420" on="1"/>
        <pt x="431" y="445" on="0"/>
        <pt x="472" y="486" on="0"/>
        <pt x="520" y="514" on="0"/>
        <pt x="573" y="530" on="0"/>
        <pt x="599" y="530" on="1"/>
        <pt x="654" y="530" on="0"/>
        <pt x="746" y="486" on="0"/>
        <pt x="802" y="408" on="0"/>
        <pt x="815" y="299" on="0"/>
        <pt x="793" y="235" on="1"/>
        <pt x="513" y="235" on="1"/>
        <pt x="524" y="270" on="0"/>
        <pt x="565" y="317" on="0"/>
        <pt x="591" y="317" on="1"/>
      </contour>
    </TTGlyph>
    <TTGlyph name="agrave" xMin="26" yMin="-13" xMax="487" yMax="740">
      <contour>
        <pt x="107" y="740" on="1"/>
        <pt x="241" y="740" on="1"/>
        <pt x="314" y="602" on="1"/>
        <pt x="301" y="599" on="0"/>
        <pt x="265" y="599" on="0"/>
        <pt x="225" y="610" on="0"/>
        <pt x="186" y="631" on="0"/>
        <pt x="171" y="649" on="1"/>
      </contour>
      <contour>
        <pt x="384" y="0" on="1"/>
        <pt x="367" y="9" on="0"/>
        <pt x="348" y="45" on="0"/>
        <pt x="342" y="63" on="1"/>
        <pt x="317" y="39" on="0"/>
        <pt x="276" y="10" on="0"/>
        <pt x="238" y="-7" on="0"/>
        <pt x="201" y="-13" on="0"/>
        <pt x="181" y="-13" on="1"/>
        <pt x="145" y="-13" on="0"/>
        <pt x="88" y="12" on="0"/>
        <pt x="47" y="54" on="0"/>
        <pt x="26" y="108" on="0"/>
        <pt x="26" y="138" on="1"/>
        <pt x="26" y="169" on="0"/>
        <pt x="52" y="227" on="0"/>
        <pt x="115" y="274" on="0"/>
        <pt x="221" y="307" on="0"/>
        <pt x="300" y="313" on="1"/>
        <pt x="295" y="278" on="0"/>
        <pt x="264" y="226" on="0"/>
        <pt x="232" y="220" on="1"/>
        <pt x="194" y="214" on="0"/>
        <pt x="160" y="176" on="0"/>
        <pt x="160" y="151" on="1"/>
        <pt x="160" y="125" on="0"/>
        <pt x="197" y="90" on="0"/>
        <pt x="223" y="90" on="1"/>
        <pt x="252" y="90" on="0"/>
        <pt x="310" y="129" on="0"/>
        <pt x="336" y="160" on="1"/>
        <pt x="336" y="311" on="1"/>
        <pt x="336" y="363" on="0"/>
        <pt x="279" y="425" on="0"/>
        <pt x="226" y="425" on="1"/>
        <pt x="201" y="425" on="0"/>
        <pt x="144" y="415" on="0"/>
        <pt x="109" y="402" on="1"/>
        <pt x="75" y="490" on="1"/>
        <pt x="120" y="510" on="0"/>
        <pt x="199" y="528" on="0"/>
        <pt x="234" y="528" on="1"/>
        <pt x="352" y="528" on="0"/>
        <pt x="471" y="417" on="0"/>
        <pt x="471" y="311" on="1"/>
        <pt x="471" y="126" on="1"/>
        <pt x="471" y="98" on="0"/>
        <pt x="478" y="35" on="0"/>
        <pt x="487" y="0" on="1"/>
      </contour>
    </TTGlyph>
    <TTGlyph name="ampersand" xMin="108" yMin="-11" xMax="735" yMax="737">
      <contour>
        <pt x="297" y="324" on="1"/>
        <pt x="288" y="341" on="1"/>
        <pt x="279" y="323" on="1"/>
        <pt x="262" y="302" on="0"/>
        <pt x="243" y="254" on="0"/>
        <pt x="243" y="222" on="1"/>
        <pt x="243" y="167" on="0"/>
        <pt x="296" y="93" on="0"/>
        <pt x="350" y="93" on="1"/>
        <pt x="361" y="93" on="0"/>
        <pt x="374" y="95" on="0"/>
        <pt x="383" y="96" on="1"/>
        <pt x="421" y="99" on="0"/>
        <pt x="470" y="62" on="0"/>
        <pt x="491" y="39" on="1"/>
        <pt x="456" y="13" on="0"/>
        <pt x="380" y="-11" on="0"/>
        <pt x="335" y="-11" on="1"/>
        <pt x="284" y="-11" on="0"/>
        <pt x="201" y="20" on="0"/>
        <pt x="141" y="77" on="0"/>
        <pt x="108" y="159" on="0"/>
        <pt x="108" y="209" on="1"/>
        <pt x="108" y="277" on="0"/>
        <pt x="176" y="378" on="0"/>
        <pt x="225" y="415" on="1"/>
        <pt x="207" y="439" on="0"/>
        <pt x="186" y="477" on="0"/>
        <pt x="174" y="509" on="0"/>
        <pt x="170" y="536" on="0"/>
        <pt x="170" y="550" on="1"/>
        <pt x="170" y="596" on="0"/>
        <pt x="204" y="666" on="0"/>
        <pt x="265" y="713" on="0"/>
        <pt x="348" y="737" on="0"/>
        <pt x="396" y="737" on="1"/>
        <pt x="429" y="737" on="0"/>
        <pt x="513" y="720" on="0"/>
        <pt x="550" y="703" on="1"/>
        <pt x="520" y="611" on="1"/>
        <pt x="488" y="622" on="0"/>
        <pt x="421" y="633" on="0"/>
        <pt x="394" y="633" on="1"/>
        <pt x="351" y="633" on="0"/>
        <pt x="298" y="592" on="0"/>
        <pt x="298" y="559" on="1"/>
        <pt x="298" y="521" on="0"/>
        <pt x="347" y="453" on="0"/>
        <pt x="388" y="404" on="1"/>
        <pt x="522" y="246" on="1"/>
        <pt x="532" y="228" on="1"/>
        <pt x="539" y="249" on="1"/>
        <pt x="553" y="281" on="0"/>
        <pt x="571" y="343" on="0"/>
        <pt x="576" y="379" on="1"/>
        <pt x="691" y="379" on="1"/>
        <pt x="677" y="313" on="0"/>
        <pt x="639" y="198" on="0"/>
        <pt x="608" y="147" on="1"/>
        <pt x="735" y="0" on="1"/>
        <pt x="576" y="0" on="1"/>
      </contour>
    </TTGlyph>
    <TTGlyph name="aring" xMin="27" yMin="-13" xMax="491" yMax="751">
      <contour>
        <pt x="385" y="0" on="1"/>
        <pt x="368" y="9" on="0"/>
        <pt x="349" y="45" on="0"/>
        <pt x="343" y="63" on="1"/>
        <pt x="318" y="39" on="0"/>
        <pt x="277" y="10" on="0"/>
        <pt x="239" y="-7" on="0"/>
        <pt x="202" y="-13" on="0"/>
        <pt x="182" y="-13" on="1"/>
        <pt x="146" y="-13" on="0"/>
        <pt x="89" y="12" on="0"/>
        <pt x="48" y="54" on="0"/>
        <pt x="27" y="108" on="0"/>
        <pt x="27" y="138" on="1"/>
        <pt x="27" y="169" on="0"/>
        <pt x="53" y="227" on="0"/>
        <pt x="116" y="274" on="0"/>
        <pt x="222" y="307" on="0"/>
        <pt x="301" y="313" on="1"/>
        <pt x="296" y="278" on="0"/>
        <pt x="265" y="226" on="0"/>
        <pt x="233" y="220" on="1"/>
        <pt x="195" y="214" on="0"/>
        <pt x="161" y="176" on="0"/>
        <pt x="161" y="151" on="1"/>
        <pt x="161" y="125" on="0"/>
        <pt x="198" y="90" on="0"/>
        <pt x="224" y="90" on="1"/>
        <pt x="253" y="90" on="0"/>
        <pt x="311" y="129" on="0"/>
        <pt x="337" y="160" on="1"/>
        <pt x="337" y="311" on="1"/>
        <pt x="337" y="363" on="0"/>
        <pt x="280" y="425" on="0"/>
        <pt x="227" y="425" on="1"/>
        <pt x="202" y="425" on="0"/>
        <pt x="145" y="415" on="0"/>
        <pt x="110" y="402" on="1"/>
        <pt x="76" y="490" on="1"/>
        <pt x="121" y="510" on="0"/>
        <pt x="215" y="528" on="0"/>
        <pt x="250" y="528" on="1"/>
        <pt x="357" y="528" on="0"/>
        <pt x="475" y="417" on="0"/>
        <pt x="475" y="311" on="1"/>
        <pt x="475" y="126" on="1"/>
        <pt x="475" y="98" on="0"/>
        <pt x="482" y="35" on="0"/>
        <pt x="491" y="0" on="1"/>
      </contour>
      <contour>
        <pt x="267" y="560" on="1"/>
        <pt x="219" y="560" on="0"/>
        <pt x="157" y="613" on="0"/>
        <pt x="157" y="653" on="1"/>
        <pt x="157" y="674" on="0"/>
        <pt x="174" y="710" on="0"/>
        <pt x="204" y="736" on="0"/>
        <pt x="244" y="751" on="0"/>
        <pt x="268" y="751" on="1"/>
        <pt x="316" y="751" on="0"/>
        <pt x="376" y="698" on="0"/>
        <pt x="376" y="654" on="1"/>
        <pt x="376" y="633" on="0"/>
        <pt x="359" y="599" on="0"/>
        <pt x="329" y="574" on="0"/>
        <pt x="289" y="560" on="0"/>
      </contour>
      <contour>
        <pt x="267" y="616" on="1"/>
        <pt x="285" y="616" on="0"/>
        <pt x="304" y="638" on="0"/>
        <pt x="304" y="655" on="1"/>
        <pt x="304" y="672" on="0"/>
        <pt x="285" y="695" on="0"/>
        <pt x="267" y="695" on="1"/>
        <pt x="250" y="695" on="0"/>
        <pt x="232" y="672" on="0"/>
        <pt x="232" y="654" on="1"/>
        <pt x="232" y="640" on="0"/>
        <pt x="250" y="616" on="0"/>
      </contour>
    </TTGlyph>
    <TTGlyph name="asciicircum" xMin="54" yMin="210" xMax="577" yMax="727">
      <contour>
        <pt x="183" y="210" on="1"/>
        <pt x="54" y="210" on="1"/>
        <pt x="265" y="727" on="1"/>
        <pt x="366" y="727" on="1"/>
        <pt x="577" y="210" on="1"/>
        <pt x="450" y="210" on="1"/>
        <pt x="323" y="543" on="1"/>
        <pt x="316" y="574" on="1"/>
        <pt x="309" y="543" on="1"/>
      </contour>
    </TTGlyph>
    <TTGlyph name="asciitilde" xMin="63" yMin="217" xMax="569" yMax="396">
      <contour>
        <pt x="63" y="236" on="1"/>
        <pt x="64" y="274" on="0"/>
        <pt x="92" y="334" on="0"/>
        <pt x="135" y="374" on="0"/>
        <pt x="190" y="396" on="0"/>
        <pt x="219" y="396" on="1"/>
        <pt x="254" y="396" on="0"/>
        <pt x="307" y="373" on="0"/>
        <pt x="351" y="346" on="0"/>
        <pt x="387" y="324" on="0"/>
        <pt x="405" y="324" on="1"/>
        <pt x="425" y="324" on="0"/>
        <pt x="450" y="358" on="0"/>
        <pt x="454" y="385" on="1"/>
        <pt x="569" y="377" on="1"/>
        <pt x="567" y="334" on="0"/>
        <pt x="537" y="274" on="0"/>
        <pt x="494" y="235" on="0"/>
        <pt x="443" y="217" on="0"/>
        <pt x="421" y="217" on="1"/>
        <pt x="381" y="217" on="0"/>
        <pt x="328" y="239" on="0"/>
        <pt x="288" y="266" on="0"/>
        <pt x="255" y="289" on="0"/>
        <pt x="236" y="289" on="1"/>
        <pt x="219" y="289" on="0"/>
        <pt x="185" y="263" on="0"/>
        <pt x="181" y="228" on="1"/>
      </contour>
    </TTGlyph>
    <TTGlyph name="asterisk" xMin="51" yMin="346" xMax="450" yMax="746">
      <contour>
        <pt x="249" y="590" on="1"/>
        <pt x="303" y="746" on="1"/>
        <pt x="397" y="691" on="1"/>
        <pt x="289" y="568" on="1"/>
        <pt x="450" y="599" on="1"/>
        <pt x="450" y="491" on="1"/>
        <pt x="287" y="523" on="1"/>
        <pt x="396" y="400" on="1"/>
        <pt x="302" y="346" on="1"/>
        <pt x="250" y="502" on="1"/>
        <pt x="197" y="346" on="1"/>
        <pt x="103" y="400" on="1"/>
        <pt x="212" y="524" on="1"/>
        <pt x="51" y="492" on="1"/>
        <pt x="51" y="600" on="1"/>
        <pt x="210" y="569" on="1"/>
        <pt x="102" y="691" on="1"/>
        <pt x="196" y="746" on="1"/>
      </contour>
    </TTGlyph>
    <TTGlyph name="at" xMin="75" yMin="-132" xMax="827" yMax="648">
      <contour>
        <pt x="629" y="170" on="1"/>
        <pt x="627" y="149" on="1"/>
        <pt x="641" y="161" on="1"/>
        <pt x="664" y="176" on="0"/>
        <pt x="697" y="217" on="0"/>
        <pt x="718" y="262" on="0"/>
        <pt x="728" y="307" on="0"/>
        <pt x="728" y="328" on="1"/>
        <pt x="728" y="382" on="0"/>
        <pt x="689" y="469" on="0"/>
        <pt x="618" y="531" on="0"/>
        <pt x="520" y="564" on="0"/>
        <pt x="461" y="564" on="1"/>
        <pt x="397" y="564" on="0"/>
        <pt x="291" y="522" on="0"/>
        <pt x="215" y="442" on="0"/>
        <pt x="173" y="329" on="0"/>
        <pt x="173" y="257" on="1"/>
        <pt x="173" y="186" on="0"/>
        <pt x="214" y="73" on="0"/>
        <pt x="288" y="-6" on="0"/>
        <pt x="388" y="-48" on="0"/>
        <pt x="447" y="-48" on="1"/>
        <pt x="469" y="-48" on="0"/>
        <pt x="508" y="-46" on="0"/>
        <pt x="551" y="-40" on="0"/>
        <pt x="599" y="-28" on="0"/>
        <pt x="630" y="-19" on="1"/>
        <pt x="659" y="-96" on="1"/>
        <pt x="623" y="-108" on="0"/>
        <pt x="567" y="-122" on="0"/>
        <pt x="517" y="-130" on="0"/>
        <pt x="472" y="-132" on="0"/>
        <pt x="447" y="-132" on="1"/>
        <pt x="370" y="-132" on="0"/>
        <pt x="235" y="-86" on="0"/>
        <pt x="134" y="10" on="0"/>
        <pt x="75" y="156" on="0"/>
        <pt x="75" y="257" on="1"/>
        <pt x="75" y="350" on="0"/>
        <pt x="139" y="496" on="0"/>
        <pt x="246" y="596" on="0"/>
        <pt x="386" y="648" on="0"/>
        <pt x="462" y="648" on="1"/>
        <pt x="534" y="648" on="0"/>
        <pt x="666" y="606" on="0"/>
        <pt x="767" y="525" on="0"/>
        <pt x="827" y="405" on="0"/>
        <pt x="827" y="328" on="1"/>
        <pt x="827" y="278" on="0"/>
        <pt x="787" y="188" on="0"/>
        <pt x="718" y="115" on="0"/>
        <pt x="623" y="65" on="0"/>
        <pt x="568" y="55" on="1"/>
        <pt x="557" y="61" on="0"/>
        <pt x="546" y="83" on="0"/>
        <pt x="541" y="96" on="1"/>
        <pt x="539" y="115" on="1"/>
        <pt x="529" y="95" on="1"/>
        <pt x="500" y="66" on="0"/>
        <pt x="445" y="47" on="0"/>
        <pt x="418" y="47" on="1"/>
        <pt x="357" y="47" on="0"/>
        <pt x="284" y="107" on="0"/>
        <pt x="284" y="158" on="1"/>
        <pt x="284" y="188" on="0"/>
        <pt x="307" y="234" on="0"/>
        <pt x="358" y="267" on="0"/>
        <pt x="441" y="289" on="0"/>
        <pt x="500" y="295" on="1"/>
        <pt x="499" y="288" on="0"/>
        <pt x="493" y="264" on="0"/>
        <pt x="480" y="240" on="0"/>
        <pt x="459" y="221" on="0"/>
        <pt x="444" y="219" on="1"/>
        <pt x="403" y="213" on="0"/>
        <pt x="379" y="181" on="0"/>
        <pt x="379" y="162" on="1"/>
        <pt x="379" y="142" on="0"/>
        <pt x="410" y="118" on="0"/>
        <pt x="438" y="118" on="1"/>
        <pt x="464" y="118" on="0"/>
        <pt x="513" y="144" on="0"/>
        <pt x="536" y="175" on="1"/>
        <pt x="536" y="304" on="1"/>
        <pt x="536" y="350" on="0"/>
        <pt x="488" y="389" on="0"/>
        <pt x="444" y="389" on="1"/>
        <pt x="423" y="389" on="0"/>
        <pt x="382" y="383" on="0"/>
        <pt x="349" y="372" on="1"/>
        <pt x="323" y="439" on="1"/>
        <pt x="364" y="455" on="0"/>
        <pt x="426" y="466" on="0"/>
        <pt x="458" y="466" on="1"/>
        <pt x="540" y="466" on="0"/>
        <pt x="629" y="383" on="0"/>
        <pt x="629" y="299" on="1"/>
      </contour>
    </TTGlyph>
    <TTGlyph name="atilde" xMin="27" yMin="-13" xMax="491" yMax="742">
      <contour>
        <pt x="105" y="624" on="1"/>
        <pt x="106" y="652" on="0"/>
        <pt x="123" y="696" on="0"/>
        <pt x="151" y="726" on="0"/>
        <pt x="186" y="742" on="0"/>
        <pt x="204" y="742" on="1"/>
        <pt x="226" y="742" on="0"/>
        <pt x="260" y="725" on="0"/>
        <pt x="288" y="706" on="0"/>
        <pt x="311" y="689" on="0"/>
        <pt x="322" y="689" on="1"/>
        <pt x="335" y="689" on="0"/>
        <pt x="351" y="714" on="0"/>
        <pt x="353" y="734" on="1"/>
        <pt x="426" y="728" on="1"/>
        <pt x="424" y="696" on="0"/>
        <pt x="405" y="652" on="0"/>
        <pt x="378" y="623" on="0"/>
        <pt x="346" y="610" on="0"/>
        <pt x="332" y="610" on="1"/>
        <pt x="307" y="610" on="0"/>
        <pt x="273" y="627" on="0"/>
        <pt x="248" y="646" on="0"/>
        <pt x="227" y="663" on="0"/>
        <pt x="215" y="663" on="1"/>
        <pt x="204" y="663" on="0"/>
        <pt x="182" y="644" on="0"/>
        <pt x="180" y="618" on="1"/>
      </contour>
      <contour>
        <pt x="385" y="0" on="1"/>
        <pt x="368" y="9" on="0"/>
        <pt x="349" y="45" on="0"/>
        <pt x="343" y="63" on="1"/>
        <pt x="318" y="39" on="0"/>
        <pt x="277" y="10" on="0"/>
        <pt x="239" y="-7" on="0"/>
        <pt x="202" y="-13" on="0"/>
        <pt x="182" y="-13" on="1"/>
        <pt x="146" y="-13" on="0"/>
        <pt x="89" y="12" on="0"/>
        <pt x="48" y="54" on="0"/>
        <pt x="27" y="108" on="0"/>
        <pt x="27" y="138" on="1"/>
        <pt x="27" y="169" on="0"/>
        <pt x="53" y="227" on="0"/>
        <pt x="116" y="274" on="0"/>
        <pt x="222" y="307" on="0"/>
        <pt x="301" y="313" on="1"/>
        <pt x="296" y="278" on="0"/>
        <pt x="265" y="226" on="0"/>
        <pt x="233" y="220" on="1"/>
        <pt x="195" y="214" on="0"/>
        <pt x="161" y="176" on="0"/>
        <pt x="161" y="151" on="1"/>
        <pt x="161" y="125" on="0"/>
        <pt x="198" y="90" on="0"/>
        <pt x="224" y="90" on="1"/>
        <pt x="253" y="90" on="0"/>
        <pt x="311" y="129" on="0"/>
        <pt x="337" y="160" on="1"/>
        <pt x="337" y="311" on="1"/>
        <pt x="337" y="363" on="0"/>
        <pt x="280" y="425" on="0"/>
        <pt x="227" y="425" on="1"/>
        <pt x="202" y="425" on="0"/>
        <pt x="145" y="415" on="0"/>
        <pt x="110" y="402" on="1"/>
        <pt x="76" y="490" on="1"/>
        <pt x="121" y="510" on="0"/>
        <pt x="200" y="528" on="0"/>
        <pt x="235" y="528" on="1"/>
        <pt x="353" y="528" on="0"/>
        <pt x="475" y="417" on="0"/>
        <pt x="475" y="311" on="1"/>
        <pt x="475" y="126" on="1"/>
        <pt x="475" y="98" on="0"/>
        <pt x="482" y="35" on="0"/>
        <pt x="491" y="0" on="1"/>
      </contour>
    </TTGlyph>
    <TTGlyph name="b" xMin="73" yMin="-15" xMax="568" yMax="758">
      <contour>
        <pt x="330" y="425" on="1"/>
        <pt x="313" y="424" on="0"/>
        <pt x="289" y="437" on="0"/>
        <pt x="271" y="458" on="0"/>
        <pt x="255" y="487" on="0"/>
        <pt x="248" y="502" on="1"/>
        <pt x="277" y="514" on="0"/>
        <pt x="336" y="526" on="0"/>
        <pt x="362" y="526" on="1"/>
        <pt x="410" y="526" on="0"/>
        <pt x="486" y="482" on="0"/>
        <pt x="539" y="411" on="0"/>
        <pt x="568" y="322" on="0"/>
        <pt x="568" y="277" on="1"/>
        <pt x="568" y="216" on="0"/>
        <pt x="530" y="109" on="0"/>
        <pt x="458" y="30" on="0"/>
        <pt x="356" y="-15" on="0"/>
        <pt x="293" y="-15" on="1"/>
        <pt x="238" y="-15" on="0"/>
        <pt x="134" y="10" on="0"/>
        <pt x="73" y="42" on="1"/>
        <pt x="73" y="758" on="1"/>
        <pt x="212" y="758" on="1"/>
        <pt x="212" y="98" on="1"/>
        <pt x="235" y="92" on="0"/>
        <pt x="273" y="88" on="0"/>
        <pt x="293" y="88" on="1"/>
        <pt x="322" y="88" on="0"/>
        <pt x="369" y="116" on="0"/>
        <pt x="402" y="166" on="0"/>
        <pt x="419" y="236" on="0"/>
        <pt x="419" y="277" on="1"/>
        <pt x="419" y="301" on="0"/>
        <pt x="410" y="354" on="0"/>
        <pt x="389" y="398" on="0"/>
        <pt x="355" y="426" on="0"/>
      </contour>
    </TTGlyph>
    <TTGlyph name="backslash" xMin="-13" yMin="-62" xMax="351" yMax="727">
      <contour>
        <pt x="230" y="-62" on="1"/>
        <pt x="-13" y="727" on="1"/>
        <pt x="108" y="727" on="1"/>
        <pt x="351" y="-62" on="1"/>
      </contour>
    </TTGlyph>
    <TTGlyph name="bar" xMin="115" yMin="-293" xMax="241" yMax="811">
      <contour>
        <pt x="115" y="-293" on="1"/>
        <pt x="115" y="811" on="1"/>
        <pt x="241" y="811" on="1"/>
        <pt x="241" y="-293" on="1"/>
      </contour>
    </TTGlyph>
    <TTGlyph name="braceleft" xMin="63" yMin="-176" xMax="405" yMax="767">
      <contour>
        <pt x="162" y="425" on="1"/>
        <pt x="166" y="488" on="0"/>
        <pt x="189" y="588" on="0"/>
        <pt x="230" y="669" on="0"/>
        <pt x="293" y="736" on="0"/>
        <pt x="339" y="767" on="1"/>
        <pt x="405" y="702" on="1"/>
        <pt x="373" y="674" on="0"/>
        <pt x="330" y="620" on="0"/>
        <pt x="302" y="558" on="0"/>
        <pt x="287" y="485" on="0"/>
        <pt x="284" y="439" on="1"/>
        <pt x="281" y="397" on="0"/>
        <pt x="241" y="335" on="0"/>
        <pt x="209" y="314" on="1"/>
        <pt x="185" y="303" on="1"/>
        <pt x="208" y="293" on="1"/>
        <pt x="240" y="272" on="0"/>
        <pt x="281" y="210" on="0"/>
        <pt x="284" y="168" on="1"/>
        <pt x="287" y="118" on="0"/>
        <pt x="302" y="40" on="0"/>
        <pt x="330" y="-25" on="0"/>
        <pt x="373" y="-82" on="0"/>
        <pt x="405" y="-110" on="1"/>
        <pt x="339" y="-176" on="1"/>
        <pt x="292" y="-144" on="0"/>
        <pt x="227" y="-73" on="0"/>
        <pt x="186" y="13" on="0"/>
        <pt x="164" y="119" on="0"/>
        <pt x="160" y="187" on="1"/>
        <pt x="157" y="222" on="0"/>
        <pt x="101" y="263" on="0"/>
        <pt x="63" y="270" on="1"/>
        <pt x="63" y="342" on="1"/>
        <pt x="101" y="349" on="0"/>
        <pt x="159" y="390" on="0"/>
      </contour>
    </TTGlyph>
    <TTGlyph name="braceright" xMin="76" yMin="-176" xMax="418" yMax="767">
      <contour>
        <pt x="319" y="425" on="1"/>
        <pt x="322" y="390" on="0"/>
        <pt x="380" y="349" on="0"/>
        <pt x="418" y="342" on="1"/>
        <pt x="418" y="270" on="1"/>
        <pt x="380" y="263" on="0"/>
        <pt x="324" y="222" on="0"/>
        <pt x="321" y="187" on="1"/>
        <pt x="317" y="119" on="0"/>
        <pt x="295" y="13" on="0"/>
        <pt x="254" y="-73" on="0"/>
        <pt x="189" y="-144" on="0"/>
        <pt x="142" y="-176" on="1"/>
        <pt x="76" y="-110" on="1"/>
        <pt x="108" y="-82" on="0"/>
        <pt x="151" y="-25" on="0"/>
        <pt x="179" y="40" on="0"/>
        <pt x="194" y="118" on="0"/>
        <pt x="197" y="168" on="1"/>
        <pt x="200" y="210" on="0"/>
        <pt x="240" y="271" on="0"/>
        <pt x="272" y="292" on="1"/>
        <pt x="297" y="303" on="1"/>
        <pt x="271" y="314" on="1"/>
        <pt x="239" y="335" on="0"/>
        <pt x="200" y="397" on="0"/>
        <pt x="197" y="439" on="1"/>
        <pt x="194" y="485" on="0"/>
        <pt x="179" y="558" on="0"/>
        <pt x="151" y="620" on="0"/>
        <pt x="107" y="674" on="0"/>
        <pt x="76" y="702" on="1"/>
        <pt x="142" y="767" on="1"/>
        <pt x="188" y="736" on="0"/>
        <pt x="251" y="669" on="0"/>
        <pt x="292" y="588" on="0"/>
        <pt x="314" y="488" on="0"/>
      </contour>
    </TTGlyph>
    <TTGlyph name="bracketleft" xMin="122" yMin="-199" xMax="425" yMax="771">
      <contour>
        <pt x="122" y="771" on="1"/>
        <pt x="425" y="771" on="1"/>
        <pt x="425" y="667" on="1"/>
        <pt x="254" y="667" on="1"/>
        <pt x="254" y="-95" on="1"/>
        <pt x="425" y="-95" on="1"/>
        <pt x="425" y="-199" on="1"/>
        <pt x="122" y="-199" on="1"/>
      </contour>
    </TTGlyph>
    <TTGlyph name="bracketright" xMin="40" yMin="-199" xMax="343" yMax="771">
      <contour>
        <pt x="343" y="-199" on="1"/>
        <pt x="40" y="-199" on="1"/>
        <pt x="40" y="-95" on="1"/>
        <pt x="211" y="-95" on="1"/>
        <pt x="211" y="667" on="1"/>
        <pt x="40" y="667" on="1"/>
        <pt x="40" y="771" on="1"/>
        <pt x="343" y="771" on="1"/>
      </contour>
    </TTGlyph>
    <TTGlyph name="brokenbar" xMin="68" yMin="-293" xMax="194" yMax="811">
      <contour>
        <pt x="68" y="387" on="1"/>
        <pt x="68" y="811" on="1"/>
        <pt x="194" y="811" on="1"/>
        <pt x="194" y="387" on="1"/>
      </contour>
      <contour>
        <pt x="68" y="-293" on="1"/>
        <pt x="68" y="141" on="1"/>
        <pt x="194" y="141" on="1"/>
        <pt x="194" y="-293" on="1"/>
      </contour>
    </TTGlyph>
    <TTGlyph name="bullet" xMin="164" yMin="222" xMax="352" yMax="410">
      <contour>
        <pt x="164" y="315" on="1"/>
        <pt x="164" y="356" on="0"/>
        <pt x="216" y="410" on="0"/>
        <pt x="257" y="410" on="1"/>
        <pt x="298" y="410" on="0"/>
        <pt x="352" y="356" on="0"/>
        <pt x="352" y="315" on="1"/>
        <pt x="352" y="274" on="0"/>
        <pt x="298" y="222" on="0"/>
        <pt x="257" y="222" on="1"/>
        <pt x="216" y="222" on="0"/>
        <pt x="164" y="274" on="0"/>
      </contour>
    </TTGlyph>
    <TTGlyph name="c" xMin="28" yMin="-13" xMax="431" yMax="530">
      <contour>
        <pt x="296" y="530" on="1"/>
        <pt x="323" y="530" on="0"/>
        <pt x="387" y="519" on="0"/>
        <pt x="417" y="508" on="1"/>
        <pt x="383" y="415" on="1"/>
        <pt x="359" y="421" on="0"/>
        <pt x="313" y="427" on="0"/>
        <pt x="296" y="427" on="1"/>
        <pt x="242" y="427" on="0"/>
        <pt x="176" y="337" on="0"/>
        <pt x="176" y="259" on="1"/>
        <pt x="176" y="180" on="0"/>
        <pt x="242" y="90" on="0"/>
        <pt x="296" y="90" on="1"/>
        <pt x="317" y="90" on="0"/>
        <pt x="365" y="101" on="0"/>
        <pt x="397" y="114" on="1"/>
        <pt x="431" y="22" on="1"/>
        <pt x="392" y="4" on="0"/>
        <pt x="323" y="-13" on="0"/>
        <pt x="296" y="-13" on="1"/>
        <pt x="244" y="-13" on="0"/>
        <pt x="147" y="18" on="0"/>
        <pt x="73" y="84" on="0"/>
        <pt x="28" y="187" on="0"/>
        <pt x="28" y="259" on="1"/>
        <pt x="28" y="327" on="0"/>
        <pt x="73" y="429" on="0"/>
        <pt x="147" y="496" on="0"/>
        <pt x="244" y="530" on="0"/>
      </contour>
    </TTGlyph>
    <TTGlyph name="ccedilla" xMin="17" yMin="-213" xMax="420" yMax="530">
      <contour>
        <pt x="285" y="530" on="1"/>
        <pt x="312" y="530" on="0"/>
        <pt x="376" y="519" on="0"/>
        <pt x="406" y="508" on="1"/>
        <pt x="372" y="415" on="1"/>
        <pt x="348" y="421" on="0"/>
        <pt x="302" y="427" on="0"/>
        <pt x="285" y="427" on="1"/>
        <pt x="231" y="427" on="0"/>
        <pt x="165" y="337" on="0"/>
        <pt x="165" y="259" on="1"/>
        <pt x="165" y="180" on="0"/>
        <pt x="231" y="90" on="0"/>
        <pt x="285" y="90" on="1"/>
        <pt x="306" y="90" on="0"/>
        <pt x="354" y="101" on="0"/>
        <pt x="386" y="114" on="1"/>
        <pt x="420" y="22" on="1"/>
        <pt x="382" y="5" on="0"/>
        <pt x="314" y="-12" on="0"/>
        <pt x="287" y="-13" on="1"/>
        <pt x="280" y="-43" on="1"/>
        <pt x="310" y="-50" on="0"/>
        <pt x="361" y="-90" on="0"/>
        <pt x="361" y="-123" on="1"/>
        <pt x="361" y="-146" on="0"/>
        <pt x="338" y="-179" on="0"/>
        <pt x="302" y="-202" on="0"/>
        <pt x="257" y="-213" on="0"/>
        <pt x="234" y="-213" on="1"/>
        <pt x="199" y="-213" on="0"/>
        <pt x="153" y="-193" on="1"/>
        <pt x="171" y="-138" on="1"/>
        <pt x="190" y="-145" on="0"/>
        <pt x="219" y="-150" on="0"/>
        <pt x="234" y="-150" on="1"/>
        <pt x="251" y="-150" on="0"/>
        <pt x="274" y="-137" on="0"/>
        <pt x="274" y="-126" on="1"/>
        <pt x="274" y="-111" on="0"/>
        <pt x="235" y="-95" on="0"/>
        <pt x="200" y="-91" on="1"/>
        <pt x="222" y="-7" on="1"/>
        <pt x="180" y="1" on="0"/>
        <pt x="105" y="40" on="0"/>
        <pt x="49" y="105" on="0"/>
        <pt x="17" y="198" on="0"/>
        <pt x="17" y="259" on="1"/>
        <pt x="17" y="327" on="0"/>
        <pt x="62" y="429" on="0"/>
        <pt x="136" y="496" on="0"/>
        <pt x="233" y="530" on="0"/>
      </contour>
    </TTGlyph>
    <TTGlyph name="cedilla" xMin="153" yMin="-213" xMax="361" yMax="3">
      <contour>
        <pt x="291" y="3" on="1"/>
        <pt x="280" y="-43" on="1"/>
        <pt x="310" y="-50" on="0"/>
        <pt x="361" y="-90" on="0"/>
        <pt x="361" y="-123" on="1"/>
        <pt x="361" y="-146" on="0"/>
        <pt x="338" y="-179" on="0"/>
        <pt x="302" y="-202" on="0"/>
        <pt x="257" y="-213" on="0"/>
        <pt x="234" y="-213" on="1"/>
        <pt x="199" y="-213" on="0"/>
        <pt x="153" y="-193" on="1"/>
        <pt x="171" y="-138" on="1"/>
        <pt x="190" y="-145" on="0"/>
        <pt x="219" y="-150" on="0"/>
        <pt x="234" y="-150" on="1"/>
        <pt x="251" y="-150" on="0"/>
        <pt x="274" y="-137" on="0"/>
        <pt x="274" y="-126" on="1"/>
        <pt x="274" y="-111" on="0"/>
        <pt x="235" y="-95" on="0"/>
        <pt x="200" y="-91" on="1"/>
        <pt x="223" y="-3" on="1"/>
      </contour>
    </TTGlyph>
    <TTGlyph name="cent" xMin="28" yMin="-14" xMax="431" yMax="716">
      <contour>
        <pt x="327" y="624" on="1"/>
        <pt x="349" y="622" on="0"/>
        <pt x="395" y="612" on="0"/>
        <pt x="417" y="604" on="1"/>
        <pt x="383" y="511" on="1"/>
        <pt x="359" y="517" on="0"/>
        <pt x="313" y="523" on="0"/>
        <pt x="296" y="523" on="1"/>
        <pt x="242" y="523" on="0"/>
        <pt x="176" y="433" on="0"/>
        <pt x="176" y="355" on="1"/>
        <pt x="176" y="276" on="0"/>
        <pt x="242" y="186" on="0"/>
        <pt x="296" y="186" on="1"/>
        <pt x="317" y="186" on="0"/>
        <pt x="365" y="197" on="0"/>
        <pt x="397" y="210" on="1"/>
        <pt x="431" y="118" on="1"/>
        <pt x="402" y="104" on="0"/>
        <pt x="350" y="89" on="0"/>
        <pt x="327" y="85" on="1"/>
        <pt x="327" y="-14" on="1"/>
        <pt x="229" y="-14" on="1"/>
        <pt x="229" y="89" on="1"/>
        <pt x="187" y="98" on="0"/>
        <pt x="114" y="138" on="0"/>
        <pt x="60" y="203" on="0"/>
        <pt x="28" y="295" on="0"/>
        <pt x="28" y="355" on="1"/>
        <pt x="28" y="412" on="0"/>
        <pt x="60" y="501" on="0"/>
        <pt x="114" y="567" on="0"/>
        <pt x="187" y="609" on="0"/>
        <pt x="229" y="618" on="1"/>
        <pt x="229" y="716" on="1"/>
        <pt x="327" y="716" on="1"/>
      </contour>
    </TTGlyph>
    <TTGlyph name="circumflex" xMin="11" yMin="585" xMax="326" yMax="743">
      <contour>
        <pt x="219" y="743" on="1"/>
        <pt x="326" y="603" on="1"/>
        <pt x="245" y="585" on="1"/>
        <pt x="167" y="658" on="1"/>
        <pt x="91" y="585" on="1"/>
        <pt x="11" y="603" on="1"/>
        <pt x="116" y="743" on="1"/>
      </contour>
    </TTGlyph>
    <TTGlyph name="colon" xMin="69" yMin="-15" xMax="234" yMax="510">
      <contour>
        <pt x="69" y="67" on="1"/>
        <pt x="69" y="84" on="0"/>
        <pt x="82" y="115" on="0"/>
        <pt x="104" y="138" on="0"/>
        <pt x="134" y="151" on="0"/>
        <pt x="152" y="151" on="1"/>
        <pt x="187" y="151" on="0"/>
        <pt x="234" y="102" on="0"/>
        <pt x="234" y="67" on="1"/>
        <pt x="234" y="32" on="0"/>
        <pt x="187" y="-15" on="0"/>
        <pt x="152" y="-15" on="1"/>
        <pt x="117" y="-15" on="0"/>
        <pt x="69" y="32" on="0"/>
      </contour>
      <contour>
        <pt x="69" y="426" on="1"/>
        <pt x="69" y="443" on="0"/>
        <pt x="82" y="474" on="0"/>
        <pt x="104" y="497" on="0"/>
        <pt x="134" y="510" on="0"/>
        <pt x="152" y="510" on="1"/>
        <pt x="187" y="510" on="0"/>
        <pt x="234" y="461" on="0"/>
        <pt x="234" y="426" on="1"/>
        <pt x="234" y="391" on="0"/>
        <pt x="187" y="344" on="0"/>
        <pt x="152" y="344" on="1"/>
        <pt x="117" y="344" on="0"/>
        <pt x="69" y="391" on="0"/>
      </contour>
    </TTGlyph>
    <TTGlyph name="comma" xMin="56" yMin="-135" xMax="178" yMax="98">
      <contour>
        <pt x="56" y="98" on="1"/>
        <pt x="178" y="98" on="1"/>
        <pt x="178" y="20" on="1"/>
        <pt x="178" y="-15" on="0"/>
        <pt x="164" y="-75" on="0"/>
        <pt x="135" y="-117" on="0"/>
        <pt x="89" y="-135" on="0"/>
        <pt x="56" y="-128" on="1"/>
      </contour>
    </TTGlyph>
    <TTGlyph name="copyright" xMin="22" yMin="21" xMax="689" yMax="690">
      <contour>
        <pt x="357" y="690" on="1"/>
        <pt x="431" y="690" on="0"/>
        <pt x="553" y="640" on="0"/>
        <pt x="641" y="552" on="0"/>
        <pt x="689" y="429" on="0"/>
        <pt x="689" y="357" on="1"/>
        <pt x="689" y="289" on="0"/>
        <pt x="639" y="167" on="0"/>
        <pt x="551" y="75" on="0"/>
        <pt x="429" y="21" on="0"/>
        <pt x="357" y="21" on="1"/>
        <pt x="282" y="21" on="0"/>
        <pt x="159" y="71" on="0"/>
        <pt x="71" y="160" on="0"/>
        <pt x="22" y="283" on="0"/>
        <pt x="22" y="357" on="1"/>
        <pt x="22" y="424" on="0"/>
        <pt x="72" y="544" on="0"/>
        <pt x="161" y="636" on="0"/>
        <pt x="284" y="690" on="0"/>
      </contour>
      <contour>
        <pt x="357" y="613" on="1"/>
        <pt x="306" y="613" on="0"/>
        <pt x="217" y="577" on="0"/>
        <pt x="152" y="509" on="0"/>
        <pt x="114" y="414" on="0"/>
        <pt x="114" y="354" on="1"/>
        <pt x="114" y="295" on="0"/>
        <pt x="152" y="201" on="0"/>
        <pt x="217" y="135" on="0"/>
        <pt x="306" y="99" on="0"/>
        <pt x="357" y="99" on="1"/>
        <pt x="407" y="99" on="0"/>
        <pt x="494" y="135" on="0"/>
        <pt x="559" y="201" on="0"/>
        <pt x="597" y="297" on="0"/>
        <pt x="597" y="357" on="1"/>
        <pt x="597" y="415" on="0"/>
        <pt x="559" y="510" on="0"/>
        <pt x="494" y="577" on="0"/>
        <pt x="407" y="613" on="0"/>
      </contour>
      <contour>
        <pt x="377" y="176" on="1"/>
        <pt x="341" y="176" on="0"/>
        <pt x="277" y="200" on="0"/>
        <pt x="231" y="246" on="0"/>
        <pt x="204" y="313" on="0"/>
        <pt x="204" y="357" on="1"/>
        <pt x="204" y="400" on="0"/>
        <pt x="231" y="468" on="0"/>
        <pt x="278" y="513" on="0"/>
        <pt x="341" y="537" on="0"/>
        <pt x="377" y="537" on="1"/>
        <pt x="416" y="537" on="0"/>
        <pt x="460" y="523" on="1"/>
        <pt x="438" y="459" on="1"/>
        <pt x="420" y="465" on="0"/>
        <pt x="392" y="470" on="0"/>
        <pt x="377" y="470" on="1"/>
        <pt x="339" y="470" on="0"/>
        <pt x="292" y="405" on="0"/>
        <pt x="292" y="357" on="1"/>
        <pt x="292" y="308" on="0"/>
        <pt x="339" y="242" on="0"/>
        <pt x="377" y="242" on="1"/>
        <pt x="391" y="242" on="0"/>
        <pt x="425" y="248" on="0"/>
        <pt x="448" y="259" on="1"/>
        <pt x="469" y="199" on="1"/>
        <pt x="441" y="185" on="0"/>
        <pt x="393" y="176" on="0"/>
      </contour>
    </TTGlyph>
    <TTGlyph name="currency" xMin="21" yMin="99" xMax="493" yMax="581">
      <contour>
        <pt x="358" y="340" on="1"/>
        <pt x="358" y="366" on="0"/>
        <pt x="342" y="413" on="0"/>
        <pt x="314" y="449" on="0"/>
        <pt x="276" y="470" on="0"/>
        <pt x="255" y="470" on="1"/>
        <pt x="235" y="470" on="0"/>
        <pt x="197" y="451" on="0"/>
        <pt x="169" y="417" on="0"/>
        <pt x="152" y="369" on="0"/>
        <pt x="152" y="340" on="1"/>
        <pt x="152" y="311" on="0"/>
        <pt x="169" y="263" on="0"/>
        <pt x="197" y="229" on="0"/>
        <pt x="235" y="210" on="0"/>
        <pt x="255" y="210" on="1"/>
        <pt x="276" y="210" on="0"/>
        <pt x="314" y="231" on="0"/>
        <pt x="342" y="267" on="0"/>
        <pt x="358" y="314" on="0"/>
      </contour>
      <contour>
        <pt x="444" y="341" on="1"/>
        <pt x="444" y="305" on="0"/>
        <pt x="426" y="243" on="0"/>
        <pt x="414" y="226" on="1"/>
        <pt x="493" y="153" on="1"/>
        <pt x="443" y="100" on="1"/>
        <pt x="366" y="171" on="1"/>
        <pt x="349" y="157" on="0"/>
        <pt x="291" y="136" on="0"/>
        <pt x="256" y="136" on="1"/>
        <pt x="223" y="136" on="0"/>
        <pt x="169" y="156" on="0"/>
        <pt x="149" y="170" on="1"/>
        <pt x="75" y="99" on="1"/>
        <pt x="21" y="155" on="1"/>
        <pt x="99" y="226" on="1"/>
        <pt x="86" y="243" on="0"/>
        <pt x="65" y="302" on="0"/>
        <pt x="65" y="341" on="1"/>
        <pt x="65" y="379" on="0"/>
        <pt x="86" y="437" on="0"/>
        <pt x="99" y="454" on="1"/>
        <pt x="21" y="525" on="1"/>
        <pt x="75" y="581" on="1"/>
        <pt x="149" y="510" on="1"/>
        <pt x="169" y="524" on="0"/>
        <pt x="223" y="544" on="0"/>
        <pt x="256" y="544" on="1"/>
        <pt x="291" y="544" on="0"/>
        <pt x="349" y="523" on="0"/>
        <pt x="366" y="509" on="1"/>
        <pt x="443" y="580" on="1"/>
        <pt x="493" y="527" on="1"/>
        <pt x="414" y="454" on="1"/>
        <pt x="426" y="437" on="0"/>
        <pt x="444" y="377" on="0"/>
      </contour>
    </TTGlyph>
    <TTGlyph name="d" xMin="32" yMin="-13" xMax="556" yMax="758">
      <contour>
        <pt x="261" y="-13" on="1"/>
        <pt x="207" y="-13" on="0"/>
        <pt x="121" y="28" on="0"/>
        <pt x="63" y="102" on="0"/>
        <pt x="32" y="203" on="0"/>
        <pt x="32" y="262" on="1"/>
        <pt x="32" y="315" on="0"/>
        <pt x="68" y="411" on="0"/>
        <pt x="129" y="483" on="0"/>
        <pt x="209" y="526" on="0"/>
        <pt x="252" y="526" on="1"/>
        <pt x="278" y="526" on="0"/>
        <pt x="327" y="519" on="0"/>
        <pt x="366" y="508" on="1"/>
        <pt x="352" y="473" on="0"/>
        <pt x="316" y="430" on="0"/>
        <pt x="291" y="428" on="1"/>
        <pt x="260" y="426" on="0"/>
        <pt x="218" y="400" on="0"/>
        <pt x="192" y="357" on="0"/>
        <pt x="180" y="297" on="0"/>
        <pt x="180" y="262" on="1"/>
        <pt x="180" y="227" on="0"/>
        <pt x="194" y="165" on="0"/>
        <pt x="221" y="118" on="0"/>
        <pt x="261" y="90" on="0"/>
        <pt x="286" y="90" on="1"/>
        <pt x="341" y="90" on="0"/>
        <pt x="402" y="160" on="1"/>
        <pt x="402" y="758" on="1"/>
        <pt x="541" y="758" on="1"/>
        <pt x="541" y="126" on="1"/>
        <pt x="541" y="98" on="0"/>
        <pt x="548" y="35" on="0"/>
        <pt x="556" y="0" on="1"/>
        <pt x="449" y="0" on="1"/>
        <pt x="436" y="7" on="0"/>
        <pt x="419" y="33" on="0"/>
        <pt x="414" y="47" on="1"/>
        <pt x="409" y="70" on="1"/>
        <pt x="392" y="48" on="1"/>
        <pt x="353" y="13" on="0"/>
        <pt x="290" y="-13" on="0"/>
      </contour>
    </TTGlyph>
    <TTGlyph name="dagger" xMin="-1" yMin="-30" xMax="549" yMax="697">
      <contour>
        <pt x="334" y="-30" on="1"/>
        <pt x="214" y="-30" on="1"/>
        <pt x="214" y="697" on="1"/>
        <pt x="334" y="697" on="1"/>
      </contour>
      <contour>
        <pt x="482" y="391" on="1"/>
        <pt x="458" y="391" on="0"/>
        <pt x="421" y="408" on="0"/>
        <pt x="394" y="437" on="0"/>
        <pt x="375" y="473" on="0"/>
        <pt x="369" y="492" on="1"/>
        <pt x="549" y="492" on="1"/>
        <pt x="549" y="391" on="1"/>
      </contour>
      <contour>
        <pt x="-1" y="391" on="1"/>
        <pt x="-1" y="492" on="1"/>
        <pt x="179" y="492" on="1"/>
        <pt x="173" y="473" on="0"/>
        <pt x="154" y="437" on="0"/>
        <pt x="127" y="408" on="0"/>
        <pt x="90" y="391" on="0"/>
        <pt x="66" y="391" on="1"/>
      </contour>
    </TTGlyph>
    <TTGlyph name="daggerdbl" xMin="23" yMin="-30" xMax="573" yMax="697">
      <contour>
        <pt x="358" y="-30" on="1"/>
        <pt x="238" y="-30" on="1"/>
        <pt x="238" y="697" on="1"/>
        <pt x="358" y="697" on="1"/>
      </contour>
      <contour>
        <pt x="506" y="411" on="1"/>
        <pt x="482" y="411" on="0"/>
        <pt x="445" y="428" on="0"/>
        <pt x="418" y="457" on="0"/>
        <pt x="399" y="493" on="0"/>
        <pt x="393" y="512" on="1"/>
        <pt x="573" y="512" on="1"/>
        <pt x="573" y="411" on="1"/>
      </contour>
      <contour>
        <pt x="23" y="411" on="1"/>
        <pt x="23" y="512" on="1"/>
        <pt x="203" y="512" on="1"/>
        <pt x="197" y="493" on="0"/>
        <pt x="178" y="457" on="0"/>
        <pt x="151" y="428" on="0"/>
        <pt x="114" y="411" on="0"/>
        <pt x="90" y="411" on="1"/>
      </contour>
      <contour>
        <pt x="506" y="155" on="1"/>
        <pt x="482" y="155" on="0"/>
        <pt x="445" y="172" on="0"/>
        <pt x="418" y="201" on="0"/>
        <pt x="399" y="237" on="0"/>
        <pt x="393" y="256" on="1"/>
        <pt x="573" y="256" on="1"/>
        <pt x="573" y="155" on="1"/>
      </contour>
      <contour>
        <pt x="23" y="155" on="1"/>
        <pt x="23" y="256" on="1"/>
        <pt x="203" y="256" on="1"/>
        <pt x="197" y="237" on="0"/>
        <pt x="178" y="201" on="0"/>
        <pt x="151" y="172" on="0"/>
        <pt x="114" y="155" on="0"/>
        <pt x="90" y="155" on="1"/>
      </contour>
    </TTGlyph>
    <TTGlyph name="degree" xMin="19" yMin="473" xMax="331" yMax="773">
      <contour>
        <pt x="104" y="623" on="1"/>
        <pt x="104" y="585" on="0"/>
        <pt x="146" y="546" on="0"/>
        <pt x="175" y="546" on="1"/>
        <pt x="204" y="546" on="0"/>
        <pt x="247" y="585" on="0"/>
        <pt x="247" y="623" on="1"/>
        <pt x="247" y="661" on="0"/>
        <pt x="204" y="701" on="0"/>
        <pt x="175" y="701" on="1"/>
        <pt x="146" y="701" on="0"/>
        <pt x="104" y="661" on="0"/>
      </contour>
      <contour>
        <pt x="19" y="623" on="1"/>
        <pt x="19" y="656" on="0"/>
        <pt x="45" y="711" on="0"/>
        <pt x="88" y="751" on="0"/>
        <pt x="145" y="773" on="0"/>
        <pt x="175" y="773" on="1"/>
        <pt x="205" y="773" on="0"/>
        <pt x="262" y="752" on="0"/>
        <pt x="305" y="713" on="0"/>
        <pt x="331" y="657" on="0"/>
        <pt x="331" y="623" on="1"/>
        <pt x="331" y="590" on="0"/>
        <pt x="305" y="535" on="0"/>
        <pt x="262" y="495" on="0"/>
        <pt x="205" y="473" on="0"/>
        <pt x="175" y="473" on="1"/>
        <pt x="145" y="473" on="0"/>
        <pt x="88" y="494" on="0"/>
        <pt x="45" y="533" on="0"/>
        <pt x="19" y="588" on="0"/>
      </contour>
    </TTGlyph>
    <TTGlyph name="dieresis" xMin="107" yMin="607" xMax="429" yMax="733">
      <contour>
        <pt x="107" y="670" on="1"/>
        <pt x="107" y="696" on="0"/>
        <pt x="144" y="733" on="0"/>
        <pt x="170" y="733" on="1"/>
        <pt x="196" y="733" on="0"/>
        <pt x="234" y="696" on="0"/>
        <pt x="234" y="670" on="1"/>
        <pt x="234" y="644" on="0"/>
        <pt x="196" y="607" on="0"/>
        <pt x="170" y="607" on="1"/>
        <pt x="144" y="607" on="0"/>
        <pt x="107" y="644" on="0"/>
      </contour>
      <contour>
        <pt x="302" y="670" on="1"/>
        <pt x="302" y="696" on="0"/>
        <pt x="339" y="733" on="0"/>
        <pt x="365" y="733" on="1"/>
        <pt x="391" y="733" on="0"/>
        <pt x="429" y="696" on="0"/>
        <pt x="429" y="670" on="1"/>
        <pt x="429" y="644" on="0"/>
        <pt x="391" y="607" on="0"/>
        <pt x="365" y="607" on="1"/>
        <pt x="339" y="607" on="0"/>
        <pt x="302" y="644" on="0"/>
      </contour>
    </TTGlyph>
    <TTGlyph name="divide" xMin="47" yMin="51" xMax="515" yMax="556">
      <contour>
        <pt x="219" y="112" on="1"/>
        <pt x="219" y="140" on="0"/>
        <pt x="253" y="175" on="0"/>
        <pt x="280" y="175" on="1"/>
        <pt x="308" y="175" on="0"/>
        <pt x="343" y="140" on="0"/>
        <pt x="343" y="112" on="1"/>
        <pt x="343" y="85" on="0"/>
        <pt x="308" y="51" on="0"/>
        <pt x="280" y="51" on="1"/>
        <pt x="253" y="51" on="0"/>
        <pt x="219" y="85" on="0"/>
      </contour>
      <contour>
        <pt x="47" y="353" on="1"/>
        <pt x="515" y="353" on="1"/>
        <pt x="515" y="257" on="1"/>
        <pt x="47" y="257" on="1"/>
      </contour>
      <contour>
        <pt x="220" y="494" on="1"/>
        <pt x="220" y="521" on="0"/>
        <pt x="254" y="556" on="0"/>
        <pt x="280" y="556" on="1"/>
        <pt x="307" y="556" on="0"/>
        <pt x="342" y="521" on="0"/>
        <pt x="342" y="494" on="1"/>
        <pt x="342" y="468" on="0"/>
        <pt x="307" y="434" on="0"/>
        <pt x="280" y="434" on="1"/>
        <pt x="254" y="434" on="0"/>
        <pt x="220" y="468" on="0"/>
      </contour>
    </TTGlyph>
    <TTGlyph name="dollar" xMin="26" yMin="-107" xMax="506" yMax="810">
      <contour>
        <pt x="264" y="612" on="1"/>
        <pt x="219" y="612" on="0"/>
        <pt x="165" y="569" on="0"/>
        <pt x="165" y="537" on="1"/>
        <pt x="165" y="504" on="0"/>
        <pt x="216" y="457" on="0"/>
        <pt x="291" y="415" on="0"/>
        <pt x="380" y="372" on="0"/>
        <pt x="455" y="315" on="0"/>
        <pt x="506" y="237" on="0"/>
        <pt x="506" y="181" on="1"/>
        <pt x="506" y="100" on="0"/>
        <pt x="403" y="5" on="0"/>
        <pt x="316" y="-8" on="1"/>
        <pt x="316" y="-107" on="1"/>
        <pt x="210" y="-107" on="1"/>
        <pt x="210" y="-11" on="1"/>
        <pt x="172" y="-7" on="0"/>
        <pt x="80" y="17" on="0"/>
        <pt x="26" y="40" on="1"/>
        <pt x="64" y="134" on="1"/>
        <pt x="118" y="110" on="0"/>
        <pt x="213" y="91" on="0"/>
        <pt x="251" y="91" on="1"/>
        <pt x="305" y="91" on="0"/>
        <pt x="374" y="145" on="0"/>
        <pt x="374" y="183" on="1"/>
        <pt x="374" y="218" on="0"/>
        <pt x="324" y="267" on="0"/>
        <pt x="248" y="309" on="0"/>
        <pt x="161" y="350" on="0"/>
        <pt x="85" y="404" on="0"/>
        <pt x="35" y="476" on="0"/>
        <pt x="35" y="529" on="1"/>
        <pt x="35" y="570" on="0"/>
        <pt x="62" y="633" on="0"/>
        <pt x="109" y="677" on="0"/>
        <pt x="173" y="704" on="0"/>
        <pt x="210" y="709" on="1"/>
        <pt x="210" y="810" on="1"/>
        <pt x="316" y="810" on="1"/>
        <pt x="316" y="709" on="1"/>
        <pt x="345" y="706" on="0"/>
        <pt x="409" y="693" on="0"/>
        <pt x="451" y="680" on="1"/>
        <pt x="414" y="589" on="1"/>
        <pt x="369" y="601" on="0"/>
        <pt x="297" y="612" on="0"/>
      </contour>
    </TTGlyph>
    <TTGlyph name="e" xMin="45" yMin="-13" xMax="523" yMax="530">
      <contour>
        <pt x="388" y="317" on="1"/>
        <pt x="391" y="340" on="0"/>
        <pt x="381" y="382" on="0"/>
        <pt x="358" y="414" on="0"/>
        <pt x="323" y="433" on="0"/>
        <pt x="300" y="433" on="1"/>
        <pt x="279" y="433" on="0"/>
        <pt x="238" y="415" on="0"/>
        <pt x="204" y="376" on="0"/>
        <pt x="183" y="315" on="0"/>
        <pt x="183" y="272" on="1"/>
        <pt x="183" y="185" on="0"/>
        <pt x="261" y="90" on="0"/>
        <pt x="324" y="90" on="1"/>
        <pt x="359" y="90" on="0"/>
        <pt x="426" y="107" on="0"/>
        <pt x="470" y="127" on="1"/>
        <pt x="505" y="34" on="1"/>
        <pt x="451" y="8" on="0"/>
        <pt x="356" y="-13" on="0"/>
        <pt x="309" y="-13" on="1"/>
        <pt x="240" y="-13" on="0"/>
        <pt x="141" y="37" on="0"/>
        <pt x="76" y="116" on="0"/>
        <pt x="45" y="216" on="0"/>
        <pt x="45" y="267" on="1"/>
        <pt x="45" y="329" on="0"/>
        <pt x="86" y="427" on="0"/>
        <pt x="157" y="494" on="0"/>
        <pt x="253" y="530" on="0"/>
        <pt x="307" y="530" on="1"/>
        <pt x="362" y="530" on="0"/>
        <pt x="454" y="486" on="0"/>
        <pt x="510" y="408" on="0"/>
        <pt x="523" y="299" on="0"/>
        <pt x="501" y="235" on="1"/>
        <pt x="221" y="235" on="1"/>
        <pt x="232" y="270" on="0"/>
        <pt x="273" y="317" on="0"/>
        <pt x="299" y="317" on="1"/>
      </contour>
    </TTGlyph>
    <TTGlyph name="eacute" xMin="33" yMin="-13" xMax="511" yMax="740">
      <contour>
        <pt x="376" y="317" on="1"/>
        <pt x="379" y="340" on="0"/>
        <pt x="369" y="382" on="0"/>
        <pt x="346" y="414" on="0"/>
        <pt x="311" y="433" on="0"/>
        <pt x="288" y="433" on="1"/>
        <pt x="267" y="433" on="0"/>
        <pt x="226" y="415" on="0"/>
        <pt x="192" y="376" on="0"/>
        <pt x="171" y="315" on="0"/>
        <pt x="171" y="272" on="1"/>
        <pt x="171" y="185" on="0"/>
        <pt x="249" y="90" on="0"/>
        <pt x="312" y="90" on="1"/>
        <pt x="347" y="90" on="0"/>
        <pt x="414" y="107" on="0"/>
        <pt x="458" y="127" on="1"/>
        <pt x="493" y="34" on="1"/>
        <pt x="439" y="8" on="0"/>
        <pt x="344" y="-13" on="0"/>
        <pt x="297" y="-13" on="1"/>
        <pt x="228" y="-13" on="0"/>
        <pt x="129" y="37" on="0"/>
        <pt x="64" y="116" on="0"/>
        <pt x="33" y="216" on="0"/>
        <pt x="33" y="267" on="1"/>
        <pt x="33" y="329" on="0"/>
        <pt x="74" y="427" on="0"/>
        <pt x="145" y="494" on="0"/>
        <pt x="241" y="530" on="0"/>
        <pt x="295" y="530" on="1"/>
        <pt x="350" y="530" on="0"/>
        <pt x="442" y="486" on="0"/>
        <pt x="498" y="408" on="0"/>
        <pt x="511" y="299" on="0"/>
        <pt x="489" y="235" on="1"/>
        <pt x="209" y="235" on="1"/>
        <pt x="220" y="270" on="0"/>
        <pt x="261" y="317" on="0"/>
        <pt x="287" y="317" on="1"/>
      </contour>
      <contour>
        <pt x="372" y="645" on="1"/>
        <pt x="357" y="627" on="0"/>
        <pt x="318" y="607" on="0"/>
        <pt x="277" y="598" on="0"/>
        <pt x="239" y="599" on="0"/>
        <pt x="226" y="602" on="1"/>
        <pt x="312" y="740" on="1"/>
        <pt x="451" y="740" on="1"/>
      </contour>
    </TTGlyph>
    <TTGlyph name="ecircumflex" xMin="32" yMin="-13" xMax="510" yMax="743">
      <contour>
        <pt x="375" y="317" on="1"/>
        <pt x="378" y="340" on="0"/>
        <pt x="368" y="382" on="0"/>
        <pt x="345" y="414" on="0"/>
        <pt x="310" y="433" on="0"/>
        <pt x="287" y="433" on="1"/>
        <pt x="266" y="433" on="0"/>
        <pt x="225" y="415" on="0"/>
        <pt x="191" y="376" on="0"/>
        <pt x="170" y="315" on="0"/>
        <pt x="170" y="272" on="1"/>
        <pt x="170" y="185" on="0"/>
        <pt x="248" y="90" on="0"/>
        <pt x="311" y="90" on="1"/>
        <pt x="346" y="90" on="0"/>
        <pt x="413" y="107" on="0"/>
        <pt x="457" y="127" on="1"/>
        <pt x="492" y="34" on="1"/>
        <pt x="438" y="8" on="0"/>
        <pt x="343" y="-13" on="0"/>
        <pt x="296" y="-13" on="1"/>
        <pt x="227" y="-13" on="0"/>
        <pt x="128" y="37" on="0"/>
        <pt x="63" y="116" on="0"/>
        <pt x="32" y="216" on="0"/>
        <pt x="32" y="267" on="1"/>
        <pt x="32" y="329" on="0"/>
        <pt x="73" y="427" on="0"/>
        <pt x="144" y="494" on="0"/>
        <pt x="240" y="530" on="0"/>
        <pt x="294" y="530" on="1"/>
        <pt x="349" y="530" on="0"/>
        <pt x="441" y="486" on="0"/>
        <pt x="497" y="408" on="0"/>
        <pt x="510" y="299" on="0"/>
        <pt x="488" y="235" on="1"/>
        <pt x="208" y="235" on="1"/>
        <pt x="219" y="270" on="0"/>
        <pt x="260" y="317" on="0"/>
        <pt x="286" y="317" on="1"/>
      </contour>
      <contour>
        <pt x="343" y="743" on="1"/>
        <pt x="450" y="603" on="1"/>
        <pt x="369" y="585" on="1"/>
        <pt x="291" y="658" on="1"/>
        <pt x="215" y="585" on="1"/>
        <pt x="135" y="603" on="1"/>
        <pt x="240" y="743" on="1"/>
      </contour>
    </TTGlyph>
    <TTGlyph name="edieresis" xMin="34" yMin="-13" xMax="512" yMax="733">
      <contour>
        <pt x="377" y="317" on="1"/>
        <pt x="380" y="340" on="0"/>
        <pt x="370" y="382" on="0"/>
        <pt x="347" y="414" on="0"/>
        <pt x="312" y="433" on="0"/>
        <pt x="289" y="433" on="1"/>
        <pt x="268" y="433" on="0"/>
        <pt x="227" y="415" on="0"/>
        <pt x="193" y="376" on="0"/>
        <pt x="172" y="315" on="0"/>
        <pt x="172" y="272" on="1"/>
        <pt x="172" y="185" on="0"/>
        <pt x="250" y="90" on="0"/>
        <pt x="313" y="90" on="1"/>
        <pt x="348" y="90" on="0"/>
        <pt x="415" y="107" on="0"/>
        <pt x="459" y="127" on="1"/>
        <pt x="494" y="34" on="1"/>
        <pt x="440" y="8" on="0"/>
        <pt x="345" y="-13" on="0"/>
        <pt x="298" y="-13" on="1"/>
        <pt x="229" y="-13" on="0"/>
        <pt x="130" y="37" on="0"/>
        <pt x="65" y="116" on="0"/>
        <pt x="34" y="216" on="0"/>
        <pt x="34" y="267" on="1"/>
        <pt x="34" y="329" on="0"/>
        <pt x="75" y="427" on="0"/>
        <pt x="146" y="494" on="0"/>
        <pt x="242" y="530" on="0"/>
        <pt x="296" y="530" on="1"/>
        <pt x="351" y="530" on="0"/>
        <pt x="443" y="486" on="0"/>
        <pt x="499" y="408" on="0"/>
        <pt x="512" y="299" on="0"/>
        <pt x="490" y="235" on="1"/>
        <pt x="210" y="235" on="1"/>
        <pt x="221" y="270" on="0"/>
        <pt x="262" y="317" on="0"/>
        <pt x="288" y="317" on="1"/>
      </contour>
      <contour>
        <pt x="124" y="670" on="1"/>
        <pt x="124" y="696" on="0"/>
        <pt x="161" y="733" on="0"/>
        <pt x="187" y="733" on="1"/>
        <pt x="213" y="733" on="0"/>
        <pt x="251" y="696" on="0"/>
        <pt x="251" y="670" on="1"/>
        <pt x="251" y="644" on="0"/>
        <pt x="213" y="607" on="0"/>
        <pt x="187" y="607" on="1"/>
        <pt x="161" y="607" on="0"/>
        <pt x="124" y="644" on="0"/>
      </contour>
      <contour>
        <pt x="319" y="670" on="1"/>
        <pt x="319" y="696" on="0"/>
        <pt x="356" y="733" on="0"/>
        <pt x="382" y="733" on="1"/>
        <pt x="408" y="733" on="0"/>
        <pt x="446" y="696" on="0"/>
        <pt x="446" y="670" on="1"/>
        <pt x="446" y="644" on="0"/>
        <pt x="408" y="607" on="0"/>
        <pt x="382" y="607" on="1"/>
        <pt x="356" y="607" on="0"/>
        <pt x="319" y="644" on="0"/>
      </contour>
    </TTGlyph>
    <TTGlyph name="egrave" xMin="34" yMin="-13" xMax="512" yMax="740">
      <contour>
        <pt x="377" y="317" on="1"/>
        <pt x="380" y="340" on="0"/>
        <pt x="370" y="382" on="0"/>
        <pt x="347" y="414" on="0"/>
        <pt x="312" y="433" on="0"/>
        <pt x="289" y="433" on="1"/>
        <pt x="268" y="433" on="0"/>
        <pt x="227" y="415" on="0"/>
        <pt x="193" y="376" on="0"/>
        <pt x="172" y="315" on="0"/>
        <pt x="172" y="272" on="1"/>
        <pt x="172" y="185" on="0"/>
        <pt x="250" y="90" on="0"/>
        <pt x="313" y="90" on="1"/>
        <pt x="348" y="90" on="0"/>
        <pt x="415" y="107" on="0"/>
        <pt x="459" y="127" on="1"/>
        <pt x="494" y="34" on="1"/>
        <pt x="440" y="8" on="0"/>
        <pt x="345" y="-13" on="0"/>
        <pt x="298" y="-13" on="1"/>
        <pt x="229" y="-13" on="0"/>
        <pt x="130" y="37" on="0"/>
        <pt x="65" y="116" on="0"/>
        <pt x="34" y="216" on="0"/>
        <pt x="34" y="267" on="1"/>
        <pt x="34" y="329" on="0"/>
        <pt x="75" y="427" on="0"/>
        <pt x="146" y="494" on="0"/>
        <pt x="242" y="530" on="0"/>
        <pt x="296" y="530" on="1"/>
        <pt x="351" y="530" on="0"/>
        <pt x="443" y="486" on="0"/>
        <pt x="499" y="408" on="0"/>
        <pt x="512" y="299" on="0"/>
        <pt x="490" y="235" on="1"/>
        <pt x="210" y="235" on="1"/>
        <pt x="221" y="270" on="0"/>
        <pt x="262" y="317" on="0"/>
        <pt x="288" y="317" on="1"/>
      </contour>
      <contour>
        <pt x="133" y="740" on="1"/>
        <pt x="267" y="740" on="1"/>
        <pt x="340" y="602" on="1"/>
        <pt x="327" y="599" on="0"/>
        <pt x="291" y="599" on="0"/>
        <pt x="251" y="610" on="0"/>
        <pt x="212" y="631" on="0"/>
        <pt x="197" y="649" on="1"/>
      </contour>
    </TTGlyph>
    <TTGlyph name="eight" xMin="81" yMin="-13" xMax="597" yMax="714">
      <contour>
        <pt x="574" y="531" on="1"/>
        <pt x="574" y="496" on="0"/>
        <pt x="534" y="420" on="0"/>
        <pt x="499" y="378" on="1"/>
        <pt x="479" y="363" on="1"/>
        <pt x="496" y="355" on="1"/>
        <pt x="539" y="326" on="0"/>
        <pt x="597" y="243" on="0"/>
        <pt x="597" y="178" on="1"/>
        <pt x="597" y="132" on="0"/>
        <pt x="557" y="61" on="0"/>
        <pt x="487" y="12" on="0"/>
        <pt x="393" y="-13" on="0"/>
        <pt x="338" y="-13" on="1"/>
        <pt x="282" y="-13" on="0"/>
        <pt x="187" y="12" on="0"/>
        <pt x="119" y="61" on="0"/>
        <pt x="81" y="132" on="0"/>
        <pt x="81" y="178" on="1"/>
        <pt x="81" y="213" on="0"/>
        <pt x="118" y="291" on="0"/>
        <pt x="166" y="341" on="1"/>
        <pt x="179" y="329" on="0"/>
        <pt x="204" y="301" on="0"/>
        <pt x="222" y="271" on="0"/>
        <pt x="229" y="238" on="0"/>
        <pt x="225" y="222" on="1"/>
        <pt x="220" y="208" on="0"/>
        <pt x="216" y="189" on="0"/>
        <pt x="216" y="178" on="1"/>
        <pt x="216" y="136" on="0"/>
        <pt x="284" y="88" on="0"/>
        <pt x="338" y="88" on="1"/>
        <pt x="395" y="88" on="0"/>
        <pt x="457" y="141" on="0"/>
        <pt x="457" y="178" on="1"/>
        <pt x="457" y="216" on="0"/>
        <pt x="405" y="266" on="0"/>
        <pt x="327" y="305" on="0"/>
        <pt x="235" y="343" on="0"/>
        <pt x="157" y="396" on="0"/>
        <pt x="105" y="472" on="0"/>
        <pt x="105" y="531" on="1"/>
        <pt x="105" y="574" on="0"/>
        <pt x="142" y="642" on="0"/>
        <pt x="207" y="689" on="0"/>
        <pt x="293" y="714" on="0"/>
        <pt x="341" y="714" on="1"/>
        <pt x="391" y="714" on="0"/>
        <pt x="476" y="689" on="0"/>
        <pt x="539" y="642" on="0"/>
        <pt x="574" y="574" on="0"/>
      </contour>
      <contour>
        <pt x="245" y="531" on="1"/>
        <pt x="245" y="509" on="0"/>
        <pt x="268" y="475" on="0"/>
        <pt x="308" y="447" on="0"/>
        <pt x="359" y="423" on="0"/>
        <pt x="388" y="410" on="1"/>
        <pt x="413" y="439" on="0"/>
        <pt x="437" y="495" on="0"/>
        <pt x="438" y="520" on="1"/>
        <pt x="438" y="545" on="0"/>
        <pt x="422" y="580" on="0"/>
        <pt x="395" y="602" on="0"/>
        <pt x="360" y="612" on="0"/>
        <pt x="341" y="612" on="1"/>
        <pt x="300" y="612" on="0"/>
        <pt x="245" y="572" on="0"/>
      </contour>
    </TTGlyph>
    <TTGlyph name="ellipsis" xMin="68" yMin="-15" xMax="774" yMax="151">
      <contour>
        <pt x="68" y="67" on="1"/>
        <pt x="68" y="84" on="0"/>
        <pt x="81" y="115" on="0"/>
        <pt x="103" y="138" on="0"/>
        <pt x="133" y="151" on="0"/>
        <pt x="151" y="151" on="1"/>
        <pt x="186" y="151" on="0"/>
        <pt x="233" y="102" on="0"/>
        <pt x="233" y="67" on="1"/>
        <pt x="233" y="32" on="0"/>
        <pt x="186" y="-15" on="0"/>
        <pt x="151" y="-15" on="1"/>
        <pt x="116" y="-15" on="0"/>
        <pt x="68" y="32" on="0"/>
      </contour>
      <contour>
        <pt x="339" y="67" on="1"/>
        <pt x="339" y="84" on="0"/>
        <pt x="352" y="115" on="0"/>
        <pt x="374" y="138" on="0"/>
        <pt x="404" y="151" on="0"/>
        <pt x="422" y="151" on="1"/>
        <pt x="457" y="151" on="0"/>
        <pt x="504" y="102" on="0"/>
        <pt x="504" y="67" on="1"/>
        <pt x="504" y="32" on="0"/>
        <pt x="457" y="-15" on="0"/>
        <pt x="422" y="-15" on="1"/>
        <pt x="387" y="-15" on="0"/>
        <pt x="339" y="32" on="0"/>
      </contour>
      <contour>
        <pt x="609" y="67" on="1"/>
        <pt x="609" y="84" on="0"/>
        <pt x="622" y="115" on="0"/>
        <pt x="644" y="138" on="0"/>
        <pt x="674" y="151" on="0"/>
        <pt x="692" y="151" on="1"/>
        <pt x="727" y="151" on="0"/>
        <pt x="774" y="102" on="0"/>
        <pt x="774" y="67" on="1"/>
        <pt x="774" y="32" on="0"/>
        <pt x="727" y="-15" on="0"/>
        <pt x="692" y="-15" on="1"/>
        <pt x="657" y="-15" on="0"/>
        <pt x="609" y="32" on="0"/>
      </contour>
    </TTGlyph>
    <TTGlyph name="emdash" xMin="45" yMin="226" xMax="784" yMax="324">
      <contour>
        <pt x="45" y="226" on="1"/>
        <pt x="45" y="324" on="1"/>
        <pt x="784" y="324" on="1"/>
        <pt x="784" y="226" on="1"/>
      </contour>
    </TTGlyph>
    <TTGlyph name="endash" xMin="45" yMin="226" xMax="469" yMax="324">
      <contour>
        <pt x="45" y="226" on="1"/>
        <pt x="45" y="324" on="1"/>
        <pt x="469" y="324" on="1"/>
        <pt x="469" y="226" on="1"/>
      </contour>
    </TTGlyph>
    <TTGlyph name="equal" xMin="67" yMin="161" xMax="539" yMax="480">
      <contour>
        <pt x="67" y="259" on="1"/>
        <pt x="539" y="259" on="1"/>
        <pt x="539" y="161" on="1"/>
        <pt x="67" y="161" on="1"/>
      </contour>
      <contour>
        <pt x="67" y="480" on="1"/>
        <pt x="539" y="480" on="1"/>
        <pt x="539" y="382" on="1"/>
        <pt x="67" y="382" on="1"/>
      </contour>
    </TTGlyph>
    <TTGlyph name="eth" xMin="14" yMin="-13" xMax="550" yMax="762">
      <contour>
        <pt x="550" y="259" on="1"/>
        <pt x="550" y="201" on="0"/>
        <pt x="508" y="102" on="0"/>
        <pt x="436" y="29" on="0"/>
        <pt x="338" y="-13" on="0"/>
        <pt x="282" y="-13" on="1"/>
        <pt x="226" y="-13" on="0"/>
        <pt x="128" y="25" on="0"/>
        <pt x="56" y="96" on="0"/>
        <pt x="14" y="196" on="0"/>
        <pt x="14" y="259" on="1"/>
        <pt x="14" y="316" on="0"/>
        <pt x="56" y="415" on="0"/>
        <pt x="128" y="488" on="0"/>
        <pt x="226" y="530" on="0"/>
        <pt x="282" y="530" on="1"/>
        <pt x="299" y="530" on="0"/>
        <pt x="339" y="523" on="0"/>
        <pt x="356" y="515" on="1"/>
        <pt x="317" y="563" on="0"/>
        <pt x="267" y="600" on="1"/>
        <pt x="152" y="546" on="1"/>
        <pt x="125" y="604" on="1"/>
        <pt x="204" y="642" on="1"/>
        <pt x="183" y="654" on="0"/>
        <pt x="141" y="676" on="0"/>
        <pt x="120" y="686" on="1"/>
        <pt x="163" y="762" on="1"/>
        <pt x="199" y="747" on="0"/>
        <pt x="269" y="711" on="0"/>
        <pt x="301" y="688" on="1"/>
        <pt x="411" y="741" on="1"/>
        <pt x="440" y="682" on="1"/>
        <pt x="360" y="644" on="1"/>
        <pt x="402" y="608" on="0"/>
        <pt x="472" y="524" on="0"/>
        <pt x="522" y="427" on="0"/>
        <pt x="550" y="319" on="0"/>
      </contour>
      <contour>
        <pt x="162" y="259" on="1"/>
        <pt x="162" y="224" on="0"/>
        <pt x="178" y="162" on="0"/>
        <pt x="208" y="116" on="0"/>
        <pt x="253" y="89" on="0"/>
        <pt x="282" y="89" on="1"/>
        <pt x="311" y="89" on="0"/>
        <pt x="356" y="116" on="0"/>
        <pt x="386" y="162" on="0"/>
        <pt x="401" y="224" on="0"/>
        <pt x="401" y="259" on="1"/>
        <pt x="401" y="294" on="0"/>
        <pt x="386" y="355" on="0"/>
        <pt x="356" y="401" on="0"/>
        <pt x="311" y="428" on="0"/>
        <pt x="282" y="428" on="1"/>
        <pt x="253" y="428" on="0"/>
        <pt x="208" y="401" on="0"/>
        <pt x="178" y="355" on="0"/>
        <pt x="162" y="294" on="0"/>
      </contour>
    </TTGlyph>
    <TTGlyph name="exclam" xMin="32" yMin="-14" xMax="197" yMax="727">
      <contour>
        <pt x="187" y="727" on="1"/>
        <pt x="166" y="230" on="1"/>
        <pt x="66" y="230" on="1"/>
        <pt x="47" y="727" on="1"/>
      </contour>
      <contour>
        <pt x="32" y="68" on="1"/>
        <pt x="32" y="85" on="0"/>
        <pt x="45" y="116" on="0"/>
        <pt x="67" y="139" on="0"/>
        <pt x="97" y="152" on="0"/>
        <pt x="115" y="152" on="1"/>
        <pt x="150" y="152" on="0"/>
        <pt x="197" y="103" on="0"/>
        <pt x="197" y="68" on="1"/>
        <pt x="197" y="33" on="0"/>
        <pt x="150" y="-14" on="0"/>
        <pt x="115" y="-14" on="1"/>
        <pt x="80" y="-14" on="0"/>
        <pt x="32" y="33" on="0"/>
      </contour>
    </TTGlyph>
    <TTGlyph name="exclamdown" xMin="32" yMin="-210" xMax="197" yMax="531">
      <contour>
        <pt x="47" y="-210" on="1"/>
        <pt x="66" y="287" on="1"/>
        <pt x="166" y="287" on="1"/>
        <pt x="187" y="-210" on="1"/>
      </contour>
      <contour>
        <pt x="32" y="449" on="1"/>
        <pt x="32" y="484" on="0"/>
        <pt x="80" y="531" on="0"/>
        <pt x="115" y="531" on="1"/>
        <pt x="150" y="531" on="0"/>
        <pt x="197" y="484" on="0"/>
        <pt x="197" y="449" on="1"/>
        <pt x="197" y="414" on="0"/>
        <pt x="150" y="365" on="0"/>
        <pt x="115" y="365" on="1"/>
        <pt x="97" y="365" on="0"/>
        <pt x="67" y="378" on="0"/>
        <pt x="45" y="401" on="0"/>
        <pt x="32" y="432" on="0"/>
      </contour>
    </TTGlyph>
    <TTGlyph name="f" xMin="22" yMin="0" xMax="457" yMax="763">
      <contour>
        <pt x="105" y="418" on="1"/>
        <pt x="22" y="418" on="1"/>
        <pt x="22" y="497" on="1"/>
        <pt x="105" y="517" on="1"/>
        <pt x="105" y="545" on="1"/>
        <pt x="105" y="594" on="0"/>
        <pt x="136" y="675" on="0"/>
        <pt x="193" y="732" on="0"/>
        <pt x="274" y="763" on="0"/>
        <pt x="324" y="763" on="1"/>
        <pt x="349" y="763" on="0"/>
        <pt x="418" y="750" on="0"/>
        <pt x="457" y="733" on="1"/>
        <pt x="426" y="644" on="1"/>
        <pt x="397" y="652" on="0"/>
        <pt x="356" y="660" on="0"/>
        <pt x="339" y="660" on="1"/>
        <pt x="290" y="660" on="0"/>
        <pt x="237" y="597" on="0"/>
        <pt x="237" y="545" on="1"/>
        <pt x="237" y="0" on="1"/>
        <pt x="105" y="0" on="1"/>
      </contour>
      <contour>
        <pt x="415" y="517" on="1"/>
        <pt x="415" y="418" on="1"/>
        <pt x="271" y="418" on="1"/>
        <pt x="276" y="434" on="0"/>
        <pt x="292" y="470" on="0"/>
        <pt x="316" y="498" on="0"/>
        <pt x="349" y="517" on="0"/>
        <pt x="371" y="517" on="1"/>
      </contour>
    </TTGlyph>
    <TTGlyph name="five" xMin="20" yMin="-12" xMax="490" yMax="701">
      <contour>
        <pt x="180" y="442" on="1"/>
        <pt x="177" y="428" on="1"/>
        <pt x="195" y="432" on="1"/>
        <pt x="205" y="433" on="0"/>
        <pt x="221" y="433" on="0"/>
        <pt x="227" y="433" on="1"/>
        <pt x="288" y="433" on="0"/>
        <pt x="386" y="399" on="0"/>
        <pt x="454" y="339" on="0"/>
        <pt x="490" y="259" on="0"/>
        <pt x="490" y="213" on="1"/>
        <pt x="490" y="162" on="0"/>
        <pt x="447" y="79" on="0"/>
        <pt x="371" y="20" on="0"/>
        <pt x="267" y="-12" on="0"/>
        <pt x="207" y="-12" on="1"/>
        <pt x="169" y="-12" on="0"/>
        <pt x="78" y="7" on="0"/>
        <pt x="20" y="36" on="1"/>
        <pt x="53" y="127" on="1"/>
        <pt x="105" y="107" on="0"/>
        <pt x="178" y="90" on="0"/>
        <pt x="206" y="90" on="1"/>
        <pt x="238" y="90" on="0"/>
        <pt x="289" y="111" on="0"/>
        <pt x="324" y="146" on="0"/>
        <pt x="343" y="191" on="0"/>
        <pt x="343" y="215" on="1"/>
        <pt x="343" y="272" on="0"/>
        <pt x="259" y="332" on="0"/>
        <pt x="193" y="332" on="1"/>
        <pt x="167" y="332" on="0"/>
        <pt x="101" y="326" on="0"/>
        <pt x="54" y="318" on="1"/>
        <pt x="79" y="701" on="1"/>
        <pt x="460" y="701" on="1"/>
        <pt x="460" y="592" on="1"/>
        <pt x="191" y="592" on="1"/>
      </contour>
    </TTGlyph>
    <TTGlyph name="florin" xMin="-7" yMin="-141" xMax="521" yMax="712">
      <contour>
        <pt x="138" y="367" on="1"/>
        <pt x="61" y="367" on="1"/>
        <pt x="62" y="446" on="1"/>
        <pt x="147" y="466" on="1"/>
        <pt x="150" y="494" on="1"/>
        <pt x="155" y="543" on="0"/>
        <pt x="194" y="624" on="0"/>
        <pt x="257" y="681" on="0"/>
        <pt x="341" y="712" on="0"/>
        <pt x="391" y="712" on="1"/>
        <pt x="416" y="712" on="0"/>
        <pt x="483" y="699" on="0"/>
        <pt x="521" y="682" on="1"/>
        <pt x="481" y="593" on="1"/>
        <pt x="452" y="601" on="0"/>
        <pt x="413" y="609" on="0"/>
        <pt x="396" y="609" on="1"/>
        <pt x="347" y="609" on="0"/>
        <pt x="287" y="546" on="0"/>
        <pt x="282" y="494" on="1"/>
        <pt x="241" y="75" on="1"/>
        <pt x="236" y="25" on="0"/>
        <pt x="197" y="-47" on="0"/>
        <pt x="137" y="-98" on="0"/>
        <pt x="59" y="-131" on="0"/>
        <pt x="16" y="-141" on="1"/>
        <pt x="-7" y="-52" on="1"/>
        <pt x="41" y="-36" on="0"/>
        <pt x="103" y="22" on="0"/>
        <pt x="110" y="83" on="1"/>
      </contour>
      <contour>
        <pt x="457" y="466" on="1"/>
        <pt x="457" y="367" on="1"/>
        <pt x="304" y="367" on="1"/>
        <pt x="310" y="383" on="0"/>
        <pt x="330" y="419" on="0"/>
        <pt x="357" y="447" on="0"/>
        <pt x="391" y="466" on="0"/>
        <pt x="413" y="466" on="1"/>
      </contour>
    </TTGlyph>
    <TTGlyph name="four" xMin="23" yMin="0" xMax="564" yMax="701">
      <contour>
        <pt x="214" y="242" on="1"/>
        <pt x="236" y="242" on="0"/>
        <pt x="269" y="223" on="0"/>
        <pt x="293" y="194" on="0"/>
        <pt x="309" y="158" on="0"/>
        <pt x="314" y="141" on="1"/>
        <pt x="23" y="141" on="1"/>
        <pt x="23" y="238" on="1"/>
        <pt x="315" y="701" on="1"/>
        <pt x="483" y="701" on="1"/>
        <pt x="483" y="242" on="1"/>
        <pt x="564" y="242" on="1"/>
        <pt x="564" y="141" on="1"/>
        <pt x="483" y="141" on="1"/>
        <pt x="483" y="0" on="1"/>
        <pt x="350" y="0" on="1"/>
        <pt x="350" y="518" on="1"/>
        <pt x="352" y="551" on="1"/>
        <pt x="337" y="523" on="1"/>
        <pt x="173" y="261" on="1"/>
        <pt x="157" y="241" on="1"/>
        <pt x="178" y="242" on="1"/>
      </contour>
    </TTGlyph>
    <TTGlyph name="g" xMin="41" yMin="-250" xMax="529" yMax="529">
      <contour>
        <pt x="190" y="240" on="1"/>
        <pt x="190" y="216" on="0"/>
        <pt x="198" y="164" on="0"/>
        <pt x="217" y="121" on="0"/>
        <pt x="250" y="94" on="0"/>
        <pt x="276" y="95" on="1"/>
        <pt x="306" y="96" on="0"/>
        <pt x="340" y="55" on="0"/>
        <pt x="357" y="26" on="1"/>
        <pt x="329" y="11" on="0"/>
        <pt x="270" y="-9" on="0"/>
        <pt x="244" y="-9" on="1"/>
        <pt x="196" y="-9" on="0"/>
        <pt x="121" y="35" on="0"/>
        <pt x="68" y="106" on="0"/>
        <pt x="41" y="195" on="0"/>
        <pt x="41" y="240" on="1"/>
        <pt x="41" y="300" on="0"/>
        <pt x="79" y="405" on="0"/>
        <pt x="151" y="483" on="0"/>
        <pt x="256" y="529" on="0"/>
        <pt x="323" y="529" on="1"/>
        <pt x="344" y="529" on="0"/>
        <pt x="386" y="527" on="0"/>
        <pt x="434" y="520" on="0"/>
        <pt x="492" y="508" on="0"/>
        <pt x="529" y="499" on="1"/>
        <pt x="529" y="0" on="1"/>
        <pt x="529" y="-69" on="0"/>
        <pt x="487" y="-164" on="0"/>
        <pt x="415" y="-223" on="0"/>
        <pt x="319" y="-250" on="0"/>
        <pt x="264" y="-250" on="1"/>
        <pt x="225" y="-250" on="0"/>
        <pt x="125" y="-234" on="0"/>
        <pt x="66" y="-208" on="1"/>
        <pt x="101" y="-115" on="1"/>
        <pt x="152" y="-135" on="0"/>
        <pt x="224" y="-150" on="0"/>
        <pt x="256" y="-150" on="1"/>
        <pt x="284" y="-150" on="0"/>
        <pt x="333" y="-132" on="0"/>
        <pt x="371" y="-98" on="0"/>
        <pt x="393" y="-46" on="0"/>
        <pt x="393" y="-11" on="1"/>
        <pt x="393" y="418" on="1"/>
        <pt x="373" y="423" on="0"/>
        <pt x="340" y="426" on="0"/>
        <pt x="329" y="426" on="1"/>
        <pt x="295" y="426" on="0"/>
        <pt x="243" y="399" on="0"/>
        <pt x="208" y="350" on="0"/>
        <pt x="190" y="281" on="0"/>
      </contour>
    </TTGlyph>
    <TTGlyph name="germandbls" xMin="68" yMin="-12" xMax="563" yMax="763">
      <contour>
        <pt x="284" y="115" on="1"/>
        <pt x="316" y="101" on="0"/>
        <pt x="363" y="92" on="0"/>
        <pt x="378" y="92" on="1"/>
        <pt x="405" y="92" on="0"/>
        <pt x="441" y="121" on="0"/>
        <pt x="441" y="144" on="1"/>
        <pt x="441" y="165" on="0"/>
        <pt x="415" y="198" on="0"/>
        <pt x="377" y="229" on="0"/>
        <pt x="331" y="262" on="0"/>
        <pt x="293" y="305" on="0"/>
        <pt x="267" y="362" on="0"/>
        <pt x="267" y="401" on="1"/>
        <pt x="267" y="423" on="0"/>
        <pt x="284" y="466" on="0"/>
        <pt x="314" y="504" on="0"/>
        <pt x="356" y="536" on="0"/>
        <pt x="382" y="546" on="1"/>
        <pt x="385" y="557" on="0"/>
        <pt x="386" y="577" on="0"/>
        <pt x="386" y="588" on="1"/>
        <pt x="386" y="620" on="0"/>
        <pt x="339" y="663" on="0"/>
        <pt x="301" y="663" on="1"/>
        <pt x="257" y="663" on="0"/>
        <pt x="201" y="606" on="0"/>
        <pt x="201" y="555" on="1"/>
        <pt x="201" y="0" on="1"/>
        <pt x="68" y="-1" on="1"/>
        <pt x="68" y="544" on="1"/>
        <pt x="68" y="600" on="0"/>
        <pt x="104" y="682" on="0"/>
        <pt x="166" y="736" on="0"/>
        <pt x="248" y="763" on="0"/>
        <pt x="294" y="763" on="1"/>
        <pt x="340" y="763" on="0"/>
        <pt x="415" y="738" on="0"/>
        <pt x="467" y="692" on="0"/>
        <pt x="495" y="627" on="0"/>
        <pt x="495" y="588" on="1"/>
        <pt x="495" y="537" on="0"/>
        <pt x="457" y="476" on="1"/>
        <pt x="423" y="462" on="0"/>
        <pt x="389" y="427" on="0"/>
        <pt x="389" y="401" on="1"/>
        <pt x="389" y="379" on="0"/>
        <pt x="415" y="347" on="0"/>
        <pt x="453" y="316" on="0"/>
        <pt x="499" y="284" on="0"/>
        <pt x="537" y="241" on="0"/>
        <pt x="563" y="182" on="0"/>
        <pt x="563" y="141" on="1"/>
        <pt x="563" y="104" on="0"/>
        <pt x="534" y="47" on="0"/>
        <pt x="487" y="8" on="0"/>
        <pt x="426" y="-12" on="0"/>
        <pt x="394" y="-12" on="1"/>
        <pt x="364" y="-12" on="0"/>
        <pt x="297" y="1" on="0"/>
        <pt x="249" y="25" on="1"/>
      </contour>
    </TTGlyph>
    <TTGlyph name="grave" xMin="20" yMin="594" xMax="193" yMax="727">
      <contour>
        <pt x="20" y="727" on="1"/>
        <pt x="127" y="727" on="1"/>
        <pt x="193" y="602" on="1"/>
        <pt x="163" y="594" on="0"/>
        <pt x="111" y="607" on="0"/>
        <pt x="92" y="631" on="1"/>
      </contour>
    </TTGlyph>
    <TTGlyph name="greater" xMin="55" yMin="0" xMax="572" yMax="552">
      <contour>
        <pt x="402" y="270" on="1"/>
        <pt x="428" y="276" on="1"/>
        <pt x="402" y="283" on="1"/>
        <pt x="55" y="422" on="1"/>
        <pt x="55" y="552" on="1"/>
        <pt x="572" y="321" on="1"/>
        <pt x="572" y="231" on="1"/>
        <pt x="55" y="0" on="1"/>
        <pt x="55" y="131" on="1"/>
      </contour>
    </TTGlyph>
    <TTGlyph name="guillemotleft" xMin="48" yMin="45" xMax="610" yMax="472">
      <contour>
        <pt x="48" y="258" on="1"/>
        <pt x="281" y="472" on="1"/>
        <pt x="336" y="418" on="1"/>
        <pt x="210" y="258" on="1"/>
        <pt x="336" y="98" on="1"/>
        <pt x="281" y="45" on="1"/>
      </contour>
      <contour>
        <pt x="322" y="258" on="1"/>
        <pt x="555" y="472" on="1"/>
        <pt x="610" y="418" on="1"/>
        <pt x="484" y="258" on="1"/>
        <pt x="610" y="98" on="1"/>
        <pt x="555" y="45" on="1"/>
      </contour>
    </TTGlyph>
    <TTGlyph name="guillemotright" xMin="42" yMin="45" xMax="603" yMax="472">
      <contour>
        <pt x="370" y="45" on="1"/>
        <pt x="315" y="98" on="1"/>
        <pt x="441" y="258" on="1"/>
        <pt x="315" y="418" on="1"/>
        <pt x="370" y="472" on="1"/>
        <pt x="603" y="258" on="1"/>
      </contour>
      <contour>
        <pt x="97" y="45" on="1"/>
        <pt x="42" y="98" on="1"/>
        <pt x="168" y="258" on="1"/>
        <pt x="42" y="418" on="1"/>
        <pt x="97" y="472" on="1"/>
        <pt x="330" y="258" on="1"/>
      </contour>
    </TTGlyph>
    <TTGlyph name="guilsinglleft" xMin="174" yMin="45" xMax="462" yMax="472">
      <contour>
        <pt x="174" y="258" on="1"/>
        <pt x="407" y="472" on="1"/>
        <pt x="462" y="418" on="1"/>
        <pt x="336" y="258" on="1"/>
        <pt x="462" y="98" on="1"/>
        <pt x="407" y="45" on="1"/>
      </contour>
    </TTGlyph>
    <TTGlyph name="guilsinglright" xMin="189" yMin="45" xMax="477" yMax="472">
      <contour>
        <pt x="244" y="45" on="1"/>
        <pt x="189" y="98" on="1"/>
        <pt x="315" y="258" on="1"/>
        <pt x="189" y="418" on="1"/>
        <pt x="244" y="472" on="1"/>
        <pt x="477" y="258" on="1"/>
      </contour>
    </TTGlyph>
    <TTGlyph name="h" xMin="73" yMin="0" xMax="535" yMax="758">
      <contour>
        <pt x="73" y="0" on="1"/>
        <pt x="73" y="758" on="1"/>
        <pt x="212" y="758" on="1"/>
        <pt x="212" y="0" on="1"/>
      </contour>
      <contour>
        <pt x="396" y="367" on="1"/>
        <pt x="396" y="392" on="0"/>
        <pt x="375" y="424" on="0"/>
        <pt x="352" y="424" on="1"/>
        <pt x="343" y="424" on="0"/>
        <pt x="331" y="420" on="0"/>
        <pt x="318" y="419" on="1"/>
        <pt x="307" y="418" on="0"/>
        <pt x="287" y="429" on="0"/>
        <pt x="270" y="448" on="0"/>
        <pt x="255" y="472" on="0"/>
        <pt x="248" y="486" on="1"/>
        <pt x="297" y="514" on="0"/>
        <pt x="368" y="530" on="0"/>
        <pt x="396" y="530" on="1"/>
        <pt x="422" y="530" on="0"/>
        <pt x="472" y="510" on="0"/>
        <pt x="511" y="470" on="0"/>
        <pt x="535" y="410" on="0"/>
        <pt x="535" y="369" on="1"/>
        <pt x="535" y="0" on="1"/>
        <pt x="396" y="0" on="1"/>
      </contour>
    </TTGlyph>
    <TTGlyph name="hyphen" xMin="45" yMin="255" xMax="347" yMax="353">
      <contour>
        <pt x="45" y="255" on="1"/>
        <pt x="45" y="353" on="1"/>
        <pt x="347" y="353" on="1"/>
        <pt x="347" y="255" on="1"/>
      </contour>
    </TTGlyph>
    <TTGlyph name="i" xMin="58" yMin="0" xMax="222" yMax="751">
      <contour>
        <pt x="70" y="0" on="1"/>
        <pt x="70" y="517" on="1"/>
        <pt x="210" y="517" on="1"/>
        <pt x="210" y="0" on="1"/>
      </contour>
      <contour>
        <pt x="58" y="667" on="1"/>
        <pt x="58" y="702" on="0"/>
        <pt x="105" y="751" on="0"/>
        <pt x="140" y="751" on="1"/>
        <pt x="175" y="751" on="0"/>
        <pt x="222" y="702" on="0"/>
        <pt x="222" y="667" on="1"/>
        <pt x="222" y="632" on="0"/>
        <pt x="175" y="585" on="0"/>
        <pt x="140" y="585" on="1"/>
        <pt x="105" y="585" on="0"/>
        <pt x="58" y="632" on="0"/>
      </contour>
    </TTGlyph>
    <TTGlyph name="iacute" xMin="48" yMin="0" xMax="280" yMax="740">
      <contour>
        <pt x="48" y="0" on="1"/>
        <pt x="48" y="517" on="1"/>
        <pt x="188" y="517" on="1"/>
        <pt x="188" y="0" on="1"/>
      </contour>
      <contour>
        <pt x="201" y="645" on="1"/>
        <pt x="186" y="627" on="0"/>
        <pt x="147" y="607" on="0"/>
        <pt x="106" y="598" on="0"/>
        <pt x="68" y="599" on="0"/>
        <pt x="55" y="602" on="1"/>
        <pt x="141" y="740" on="1"/>
        <pt x="280" y="740" on="1"/>
      </contour>
    </TTGlyph>
    <TTGlyph name="icircumflex" xMin="11" yMin="0" xMax="326" yMax="743">
      <contour>
        <pt x="97" y="0" on="1"/>
        <pt x="97" y="517" on="1"/>
        <pt x="237" y="517" on="1"/>
        <pt x="237" y="0" on="1"/>
      </contour>
      <contour>
        <pt x="219" y="743" on="1"/>
        <pt x="326" y="603" on="1"/>
        <pt x="245" y="585" on="1"/>
        <pt x="167" y="658" on="1"/>
        <pt x="91" y="585" on="1"/>
        <pt x="11" y="603" on="1"/>
        <pt x="116" y="743" on="1"/>
      </contour>
    </TTGlyph>
    <TTGlyph name="idieresis" xMin="14" yMin="0" xMax="336" yMax="733">
      <contour>
        <pt x="106" y="0" on="1"/>
        <pt x="106" y="517" on="1"/>
        <pt x="246" y="517" on="1"/>
        <pt x="246" y="0" on="1"/>
      </contour>
      <contour>
        <pt x="14" y="670" on="1"/>
        <pt x="14" y="696" on="0"/>
        <pt x="51" y="733" on="0"/>
        <pt x="77" y="733" on="1"/>
        <pt x="103" y="733" on="0"/>
        <pt x="141" y="696" on="0"/>
        <pt x="141" y="670" on="1"/>
        <pt x="141" y="644" on="0"/>
        <pt x="103" y="607" on="0"/>
        <pt x="77" y="607" on="1"/>
        <pt x="51" y="607" on="0"/>
        <pt x="14" y="644" on="0"/>
      </contour>
      <contour>
        <pt x="209" y="670" on="1"/>
        <pt x="209" y="696" on="0"/>
        <pt x="246" y="733" on="0"/>
        <pt x="272" y="733" on="1"/>
        <pt x="298" y="733" on="0"/>
        <pt x="336" y="696" on="0"/>
        <pt x="336" y="670" on="1"/>
        <pt x="336" y="644" on="0"/>
        <pt x="298" y="607" on="0"/>
        <pt x="272" y="607" on="1"/>
        <pt x="246" y="607" on="0"/>
        <pt x="209" y="644" on="0"/>
      </contour>
    </TTGlyph>
    <TTGlyph name="igrave" xMin="-3" yMin="0" xMax="229" yMax="740">
      <contour>
        <pt x="89" y="0" on="1"/>
        <pt x="89" y="517" on="1"/>
        <pt x="229" y="517" on="1"/>
        <pt x="229" y="0" on="1"/>
      </contour>
      <contour>
        <pt x="-3" y="740" on="1"/>
        <pt x="131" y="740" on="1"/>
        <pt x="204" y="602" on="1"/>
        <pt x="191" y="599" on="0"/>
        <pt x="155" y="599" on="0"/>
        <pt x="115" y="610" on="0"/>
        <pt x="76" y="631" on="0"/>
        <pt x="61" y="649" on="1"/>
      </contour>
    </TTGlyph>
    <TTGlyph name="j" xMin="-35" yMin="-249" xMax="236" yMax="751">
      <contour>
        <pt x="222" y="48" on="1"/>
        <pt x="222" y="1" on="0"/>
        <pt x="203" y="-75" on="0"/>
        <pt x="158" y="-144" on="0"/>
        <pt x="82" y="-211" on="0"/>
        <pt x="24" y="-249" on="1"/>
        <pt x="-35" y="-176" on="1"/>
        <pt x="2" y="-144" on="0"/>
        <pt x="48" y="-94" on="0"/>
        <pt x="74" y="-44" on="0"/>
        <pt x="83" y="11" on="0"/>
        <pt x="83" y="48" on="1"/>
        <pt x="83" y="517" on="1"/>
        <pt x="222" y="517" on="1"/>
      </contour>
      <contour>
        <pt x="71" y="667" on="1"/>
        <pt x="71" y="702" on="0"/>
        <pt x="118" y="751" on="0"/>
        <pt x="153" y="751" on="1"/>
        <pt x="188" y="751" on="0"/>
        <pt x="236" y="702" on="0"/>
        <pt x="236" y="667" on="1"/>
        <pt x="236" y="632" on="0"/>
        <pt x="188" y="585" on="0"/>
        <pt x="153" y="585" on="1"/>
        <pt x="118" y="585" on="0"/>
        <pt x="71" y="632" on="0"/>
      </contour>
    </TTGlyph>
    <TTGlyph name="k" xMin="73" yMin="0" xMax="606" yMax="758">
      <contour>
        <pt x="212" y="0" on="1"/>
        <pt x="73" y="0" on="1"/>
        <pt x="73" y="758" on="1"/>
        <pt x="212" y="758" on="1"/>
      </contour>
      <contour>
        <pt x="407" y="338" on="1"/>
        <pt x="606" y="0" on="1"/>
        <pt x="452" y="0" on="1"/>
        <pt x="334" y="233" on="1"/>
        <pt x="327" y="257" on="1"/>
        <pt x="313" y="237" on="1"/>
        <pt x="259" y="180" on="1"/>
        <pt x="248" y="249" on="0"/>
        <pt x="288" y="363" on="0"/>
        <pt x="324" y="408" on="1"/>
        <pt x="414" y="517" on="1"/>
        <pt x="575" y="517" on="1"/>
      </contour>
    </TTGlyph>
    <TTGlyph name="l" xMin="75" yMin="0" xMax="214" yMax="758">
      <contour>
        <pt x="214" y="0" on="1"/>
        <pt x="75" y="0" on="1"/>
        <pt x="75" y="758" on="1"/>
        <pt x="214" y="758" on="1"/>
      </contour>
    </TTGlyph>
    <TTGlyph name="less" xMin="37" yMin="0" xMax="554" yMax="552">
      <contour>
        <pt x="554" y="131" on="1"/>
        <pt x="554" y="0" on="1"/>
        <pt x="37" y="231" on="1"/>
        <pt x="37" y="321" on="1"/>
        <pt x="554" y="552" on="1"/>
        <pt x="554" y="422" on="1"/>
        <pt x="207" y="283" on="1"/>
        <pt x="181" y="276" on="1"/>
        <pt x="207" y="270" on="1"/>
      </contour>
    </TTGlyph>
    <TTGlyph name="logicalnot" xMin="43" yMin="156" xMax="546" yMax="455">
      <contour>
        <pt x="546" y="455" on="1"/>
        <pt x="546" y="156" on="1"/>
        <pt x="439" y="156" on="1"/>
        <pt x="439" y="357" on="1"/>
        <pt x="43" y="357" on="1"/>
        <pt x="43" y="455" on="1"/>
      </contour>
    </TTGlyph>
    <TTGlyph name="m" xMin="60" yMin="0" xMax="852" yMax="530">
      <contour>
        <pt x="176" y="517" on="1"/>
        <pt x="200" y="490" on="0"/>
        <pt x="215" y="437" on="0"/>
        <pt x="215" y="407" on="1"/>
        <pt x="215" y="0" on="1"/>
        <pt x="75" y="0" on="1"/>
        <pt x="75" y="391" on="1"/>
        <pt x="75" y="419" on="0"/>
        <pt x="68" y="482" on="0"/>
        <pt x="60" y="517" on="1"/>
      </contour>
      <contour>
        <pt x="394" y="367" on="1"/>
        <pt x="394" y="392" on="0"/>
        <pt x="376" y="424" on="0"/>
        <pt x="350" y="424" on="1"/>
        <pt x="341" y="424" on="0"/>
        <pt x="323" y="420" on="0"/>
        <pt x="311" y="419" on="1"/>
        <pt x="299" y="418" on="0"/>
        <pt x="278" y="429" on="0"/>
        <pt x="260" y="449" on="0"/>
        <pt x="244" y="474" on="0"/>
        <pt x="237" y="488" on="1"/>
        <pt x="291" y="510" on="0"/>
        <pt x="364" y="530" on="0"/>
        <pt x="399" y="530" on="1"/>
        <pt x="425" y="530" on="0"/>
        <pt x="474" y="510" on="0"/>
        <pt x="511" y="470" on="0"/>
        <pt x="534" y="410" on="0"/>
        <pt x="534" y="369" on="1"/>
        <pt x="534" y="0" on="1"/>
        <pt x="394" y="0" on="1"/>
      </contour>
      <contour>
        <pt x="713" y="367" on="1"/>
        <pt x="713" y="392" on="0"/>
        <pt x="691" y="424" on="0"/>
        <pt x="663" y="424" on="1"/>
        <pt x="654" y="424" on="0"/>
        <pt x="633" y="419" on="0"/>
        <pt x="620" y="418" on="1"/>
        <pt x="608" y="417" on="0"/>
        <pt x="586" y="428" on="0"/>
        <pt x="567" y="448" on="0"/>
        <pt x="551" y="473" on="0"/>
        <pt x="544" y="487" on="1"/>
        <pt x="599" y="510" on="0"/>
        <pt x="675" y="530" on="0"/>
        <pt x="710" y="530" on="1"/>
        <pt x="736" y="530" on="0"/>
        <pt x="787" y="510" on="0"/>
        <pt x="827" y="470" on="0"/>
        <pt x="852" y="410" on="0"/>
        <pt x="852" y="369" on="1"/>
        <pt x="852" y="0" on="1"/>
        <pt x="713" y="0" on="1"/>
      </contour>
    </TTGlyph>
    <TTGlyph name="macron" xMin="110" yMin="603" xMax="412" yMax="687">
      <contour>
        <pt x="110" y="603" on="1"/>
        <pt x="110" y="687" on="1"/>
        <pt x="412" y="687" on="1"/>
        <pt x="412" y="603" on="1"/>
      </contour>
    </TTGlyph>
    <TTGlyph name="mu" xMin="56" yMin="-211" xMax="575" yMax="517">
      <contour>
        <pt x="390" y="52" on="1"/>
        <pt x="368" y="21" on="0"/>
        <pt x="310" y="-10" on="0"/>
        <pt x="265" y="-10" on="1"/>
        <pt x="248" y="-10" on="0"/>
        <pt x="207" y="2" on="0"/>
        <pt x="191" y="14" on="1"/>
        <pt x="177" y="31" on="1"/>
        <pt x="178" y="7" on="1"/>
        <pt x="178" y="-211" on="1"/>
        <pt x="56" y="-211" on="1"/>
        <pt x="56" y="517" on="1"/>
        <pt x="184" y="517" on="1"/>
        <pt x="184" y="210" on="1"/>
        <pt x="184" y="150" on="0"/>
        <pt x="234" y="88" on="0"/>
        <pt x="274" y="88" on="1"/>
        <pt x="321" y="88" on="0"/>
        <pt x="379" y="151" on="0"/>
        <pt x="379" y="199" on="1"/>
        <pt x="379" y="517" on="1"/>
        <pt x="508" y="517" on="1"/>
        <pt x="508" y="164" on="1"/>
        <pt x="508" y="122" on="0"/>
        <pt x="532" y="88" on="0"/>
        <pt x="563" y="90" on="1"/>
        <pt x="575" y="5" on="1"/>
        <pt x="558" y="-2" on="0"/>
        <pt x="514" y="-8" on="0"/>
        <pt x="503" y="-8" on="1"/>
        <pt x="477" y="-8" on="0"/>
        <pt x="419" y="21" on="0"/>
        <pt x="404" y="53" on="1"/>
        <pt x="399" y="71" on="1"/>
      </contour>
    </TTGlyph>
    <TTGlyph name="multiply" xMin="39" yMin="64" xMax="522" yMax="546">
      <contour>
        <pt x="39" y="139" on="1"/>
        <pt x="205" y="306" on="1"/>
        <pt x="39" y="471" on="1"/>
        <pt x="115" y="546" on="1"/>
        <pt x="281" y="381" on="1"/>
        <pt x="445" y="546" on="1"/>
        <pt x="520" y="471" on="1"/>
        <pt x="356" y="306" on="1"/>
        <pt x="522" y="139" on="1"/>
        <pt x="447" y="64" on="1"/>
        <pt x="281" y="230" on="1"/>
        <pt x="114" y="64" on="1"/>
      </contour>
    </TTGlyph>
    <TTGlyph name="n" xMin="37" yMin="0" xMax="515" yMax="530">
      <contour>
        <pt x="153" y="517" on="1"/>
        <pt x="177" y="490" on="0"/>
        <pt x="193" y="437" on="0"/>
        <pt x="193" y="407" on="1"/>
        <pt x="193" y="0" on="1"/>
        <pt x="53" y="0" on="1"/>
        <pt x="53" y="391" on="1"/>
        <pt x="53" y="449" on="0"/>
        <pt x="37" y="517" on="1"/>
      </contour>
      <contour>
        <pt x="376" y="367" on="1"/>
        <pt x="376" y="392" on="0"/>
        <pt x="356" y="424" on="0"/>
        <pt x="330" y="424" on="1"/>
        <pt x="320" y="424" on="0"/>
        <pt x="302" y="419" on="0"/>
        <pt x="288" y="418" on="1"/>
        <pt x="276" y="417" on="0"/>
        <pt x="256" y="429" on="0"/>
        <pt x="239" y="448" on="0"/>
        <pt x="224" y="472" on="0"/>
        <pt x="217" y="484" on="1"/>
        <pt x="267" y="510" on="0"/>
        <pt x="341" y="530" on="0"/>
        <pt x="376" y="530" on="1"/>
        <pt x="402" y="530" on="0"/>
        <pt x="452" y="510" on="0"/>
        <pt x="491" y="470" on="0"/>
        <pt x="515" y="410" on="0"/>
        <pt x="515" y="369" on="1"/>
        <pt x="515" y="0" on="1"/>
        <pt x="376" y="0" on="1"/>
      </contour>
    </TTGlyph>
    <TTGlyph name="nine" xMin="53" yMin="-10" xMax="592" yMax="716">
      <contour>
        <pt x="231" y="92" on="1"/>
        <pt x="284" y="92" on="0"/>
        <pt x="364" y="136" on="0"/>
        <pt x="418" y="212" on="0"/>
        <pt x="445" y="314" on="0"/>
        <pt x="445" y="371" on="1"/>
        <pt x="445" y="412" on="0"/>
        <pt x="432" y="498" on="0"/>
        <pt x="401" y="569" on="0"/>
        <pt x="348" y="614" on="0"/>
        <pt x="308" y="614" on="1"/>
        <pt x="286" y="614" on="0"/>
        <pt x="247" y="592" on="0"/>
        <pt x="218" y="555" on="0"/>
        <pt x="201" y="504" on="0"/>
        <pt x="201" y="476" on="1"/>
        <pt x="201" y="416" on="0"/>
        <pt x="248" y="360" on="0"/>
        <pt x="278" y="360" on="1"/>
        <pt x="283" y="360" on="0"/>
        <pt x="300" y="361" on="0"/>
        <pt x="309" y="363" on="1"/>
        <pt x="326" y="366" on="0"/>
        <pt x="354" y="355" on="0"/>
        <pt x="377" y="335" on="0"/>
        <pt x="395" y="309" on="0"/>
        <pt x="401" y="297" on="1"/>
        <pt x="357" y="274" on="0"/>
        <pt x="288" y="258" on="0"/>
        <pt x="263" y="258" on="1"/>
        <pt x="220" y="258" on="0"/>
        <pt x="144" y="286" on="0"/>
        <pt x="87" y="341" on="0"/>
        <pt x="53" y="423" on="0"/>
        <pt x="53" y="476" on="1"/>
        <pt x="53" y="519" on="0"/>
        <pt x="87" y="605" on="0"/>
        <pt x="152" y="674" on="0"/>
        <pt x="246" y="716" on="0"/>
        <pt x="305" y="716" on="1"/>
        <pt x="381" y="716" on="0"/>
        <pt x="489" y="661" on="0"/>
        <pt x="559" y="567" on="0"/>
        <pt x="592" y="442" on="0"/>
        <pt x="592" y="373" on="1"/>
        <pt x="592" y="296" on="0"/>
        <pt x="540" y="157" on="0"/>
        <pt x="446" y="52" on="0"/>
        <pt x="312" y="-10" on="0"/>
        <pt x="231" y="-10" on="1"/>
        <pt x="206" y="-10" on="0"/>
        <pt x="137" y="1" on="0"/>
        <pt x="101" y="14" on="1"/>
        <pt x="133" y="106" on="1"/>
        <pt x="164" y="98" on="0"/>
        <pt x="211" y="92" on="0"/>
      </contour>
    </TTGlyph>
    <TTGlyph name="ntilde" xMin="47" yMin="0" xMax="525" yMax="742">
      <contour>
        <pt x="163" y="517" on="1"/>
        <pt x="187" y="490" on="0"/>
        <pt x="203" y="437" on="0"/>
        <pt x="203" y="407" on="1"/>
        <pt x="203" y="0" on="1"/>
        <pt x="63" y="0" on="1"/>
        <pt x="63" y="391" on="1"/>
        <pt x="63" y="449" on="0"/>
        <pt x="47" y="517" on="1"/>
      </contour>
      <contour>
        <pt x="386" y="367" on="1"/>
        <pt x="386" y="392" on="0"/>
        <pt x="366" y="424" on="0"/>
        <pt x="340" y="424" on="1"/>
        <pt x="330" y="424" on="0"/>
        <pt x="312" y="419" on="0"/>
        <pt x="298" y="418" on="1"/>
        <pt x="286" y="417" on="0"/>
        <pt x="266" y="429" on="0"/>
        <pt x="249" y="448" on="0"/>
        <pt x="234" y="472" on="0"/>
        <pt x="227" y="484" on="1"/>
        <pt x="277" y="510" on="0"/>
        <pt x="351" y="530" on="0"/>
        <pt x="386" y="530" on="1"/>
        <pt x="412" y="530" on="0"/>
        <pt x="462" y="510" on="0"/>
        <pt x="501" y="470" on="0"/>
        <pt x="525" y="410" on="0"/>
        <pt x="525" y="369" on="1"/>
        <pt x="525" y="0" on="1"/>
        <pt x="386" y="0" on="1"/>
      </contour>
      <contour>
        <pt x="132" y="624" on="1"/>
        <pt x="133" y="652" on="0"/>
        <pt x="150" y="696" on="0"/>
        <pt x="178" y="726" on="0"/>
        <pt x="213" y="742" on="0"/>
        <pt x="231" y="742" on="1"/>
        <pt x="253" y="742" on="0"/>
        <pt x="287" y="725" on="0"/>
        <pt x="315" y="706" on="0"/>
        <pt x="338" y="689" on="0"/>
        <pt x="349" y="689" on="1"/>
        <pt x="362" y="689" on="0"/>
        <pt x="378" y="714" on="0"/>
        <pt x="380" y="734" on="1"/>
        <pt x="453" y="728" on="1"/>
        <pt x="451" y="696" on="0"/>
        <pt x="432" y="652" on="0"/>
        <pt x="405" y="623" on="0"/>
        <pt x="373" y="610" on="0"/>
        <pt x="359" y="610" on="1"/>
        <pt x="334" y="610" on="0"/>
        <pt x="300" y="627" on="0"/>
        <pt x="275" y="646" on="0"/>
        <pt x="254" y="663" on="0"/>
        <pt x="242" y="663" on="1"/>
        <pt x="231" y="663" on="0"/>
        <pt x="209" y="644" on="0"/>
        <pt x="207" y="618" on="1"/>
      </contour>
    </TTGlyph>
    <TTGlyph name="numbersign" xMin="65" yMin="0" xMax="781" yMax="702">
      <contour>
        <pt x="480" y="141" on="1"/>
        <pt x="487" y="156" on="1"/>
        <pt x="472" y="154" on="1"/>
        <pt x="318" y="154" on="1"/>
        <pt x="323" y="168" on="0"/>
        <pt x="339" y="199" on="0"/>
        <pt x="365" y="224" on="0"/>
        <pt x="403" y="241" on="0"/>
        <pt x="430" y="241" on="1"/>
        <pt x="496" y="241" on="1"/>
        <pt x="536" y="448" on="1"/>
        <pt x="544" y="464" on="1"/>
        <pt x="526" y="462" on="1"/>
        <pt x="345" y="462" on="1"/>
        <pt x="257" y="0" on="1"/>
        <pt x="145" y="0" on="1"/>
        <pt x="174" y="145" on="1"/>
        <pt x="181" y="156" on="1"/>
        <pt x="167" y="154" on="1"/>
        <pt x="65" y="154" on="1"/>
        <pt x="65" y="240" on="1"/>
        <pt x="190" y="240" on="1"/>
        <pt x="231" y="453" on="1"/>
        <pt x="238" y="464" on="1"/>
        <pt x="222" y="462" on="1"/>
        <pt x="124" y="462" on="1"/>
        <pt x="124" y="550" on="1"/>
        <pt x="250" y="550" on="1"/>
        <pt x="278" y="702" on="1"/>
        <pt x="390" y="702" on="1"/>
        <pt x="361" y="550" on="1"/>
        <pt x="556" y="550" on="1"/>
        <pt x="585" y="702" on="1"/>
        <pt x="697" y="702" on="1"/>
        <pt x="667" y="550" on="1"/>
        <pt x="781" y="550" on="1"/>
        <pt x="781" y="463" on="1"/>
        <pt x="651" y="463" on="1"/>
        <pt x="608" y="241" on="1"/>
        <pt x="721" y="241" on="1"/>
        <pt x="721" y="154" on="1"/>
        <pt x="594" y="154" on="1"/>
        <pt x="564" y="0" on="1"/>
        <pt x="452" y="0" on="1"/>
      </contour>
    </TTGlyph>
    <TTGlyph name="o" xMin="34" yMin="-13" xMax="570" yMax="530">
      <contour>
        <pt x="570" y="259" on="1"/>
        <pt x="570" y="195" on="0"/>
        <pt x="523" y="94" on="0"/>
        <pt x="448" y="24" on="0"/>
        <pt x="351" y="-13" on="0"/>
        <pt x="302" y="-13" on="1"/>
        <pt x="249" y="-13" on="0"/>
        <pt x="152" y="23" on="0"/>
        <pt x="78" y="92" on="0"/>
        <pt x="34" y="194" on="0"/>
        <pt x="34" y="259" on="1"/>
        <pt x="34" y="329" on="0"/>
        <pt x="85" y="432" on="0"/>
        <pt x="164" y="498" on="0"/>
        <pt x="259" y="530" on="0"/>
        <pt x="302" y="530" on="1"/>
        <pt x="362" y="530" on="0"/>
        <pt x="460" y="490" on="0"/>
        <pt x="531" y="418" on="0"/>
        <pt x="570" y="319" on="0"/>
      </contour>
      <contour>
        <pt x="302" y="89" on="1"/>
        <pt x="331" y="89" on="0"/>
        <pt x="376" y="116" on="0"/>
        <pt x="406" y="162" on="0"/>
        <pt x="421" y="224" on="0"/>
        <pt x="421" y="259" on="1"/>
        <pt x="421" y="294" on="0"/>
        <pt x="406" y="355" on="0"/>
        <pt x="376" y="401" on="0"/>
        <pt x="331" y="428" on="0"/>
        <pt x="302" y="428" on="1"/>
        <pt x="273" y="428" on="0"/>
        <pt x="228" y="401" on="0"/>
        <pt x="198" y="355" on="0"/>
        <pt x="182" y="294" on="0"/>
        <pt x="182" y="259" on="1"/>
        <pt x="182" y="221" on="0"/>
        <pt x="199" y="159" on="0"/>
        <pt x="230" y="114" on="0"/>
        <pt x="275" y="89" on="0"/>
      </contour>
    </TTGlyph>
    <TTGlyph name="oacute" xMin="13" yMin="-13" xMax="549" yMax="740">
      <contour>
        <pt x="549" y="259" on="1"/>
        <pt x="549" y="201" on="0"/>
        <pt x="507" y="102" on="0"/>
        <pt x="435" y="29" on="0"/>
        <pt x="337" y="-13" on="0"/>
        <pt x="281" y="-13" on="1"/>
        <pt x="225" y="-13" on="0"/>
        <pt x="127" y="25" on="0"/>
        <pt x="55" y="96" on="0"/>
        <pt x="13" y="196" on="0"/>
        <pt x="13" y="259" on="1"/>
        <pt x="13" y="316" on="0"/>
        <pt x="55" y="415" on="0"/>
        <pt x="127" y="488" on="0"/>
        <pt x="225" y="530" on="0"/>
        <pt x="281" y="530" on="1"/>
        <pt x="337" y="530" on="0"/>
        <pt x="435" y="492" on="0"/>
        <pt x="507" y="421" on="0"/>
        <pt x="549" y="321" on="0"/>
      </contour>
      <contour>
        <pt x="161" y="259" on="1"/>
        <pt x="161" y="224" on="0"/>
        <pt x="177" y="162" on="0"/>
        <pt x="207" y="116" on="0"/>
        <pt x="252" y="89" on="0"/>
        <pt x="281" y="89" on="1"/>
        <pt x="310" y="89" on="0"/>
        <pt x="355" y="116" on="0"/>
        <pt x="385" y="162" on="0"/>
        <pt x="400" y="224" on="0"/>
        <pt x="400" y="259" on="1"/>
        <pt x="400" y="294" on="0"/>
        <pt x="385" y="355" on="0"/>
        <pt x="355" y="401" on="0"/>
        <pt x="310" y="428" on="0"/>
        <pt x="281" y="428" on="1"/>
        <pt x="252" y="428" on="0"/>
        <pt x="207" y="401" on="0"/>
        <pt x="177" y="355" on="0"/>
        <pt x="161" y="294" on="0"/>
      </contour>
      <contour>
        <pt x="364" y="645" on="1"/>
        <pt x="349" y="627" on="0"/>
        <pt x="310" y="607" on="0"/>
        <pt x="269" y="598" on="0"/>
        <pt x="231" y="599" on="0"/>
        <pt x="218" y="602" on="1"/>
        <pt x="304" y="740" on="1"/>
        <pt x="443" y="740" on="1"/>
      </contour>
    </TTGlyph>
    <TTGlyph name="ocircumflex" xMin="13" yMin="-13" xMax="549" yMax="743">
      <contour>
        <pt x="549" y="259" on="1"/>
        <pt x="549" y="201" on="0"/>
        <pt x="507" y="102" on="0"/>
        <pt x="435" y="29" on="0"/>
        <pt x="337" y="-13" on="0"/>
        <pt x="281" y="-13" on="1"/>
        <pt x="225" y="-13" on="0"/>
        <pt x="127" y="25" on="0"/>
        <pt x="55" y="96" on="0"/>
        <pt x="13" y="196" on="0"/>
        <pt x="13" y="259" on="1"/>
        <pt x="13" y="316" on="0"/>
        <pt x="55" y="415" on="0"/>
        <pt x="127" y="488" on="0"/>
        <pt x="225" y="530" on="0"/>
        <pt x="281" y="530" on="1"/>
        <pt x="337" y="530" on="0"/>
        <pt x="435" y="492" on="0"/>
        <pt x="507" y="421" on="0"/>
        <pt x="549" y="321" on="0"/>
      </contour>
      <contour>
        <pt x="161" y="259" on="1"/>
        <pt x="161" y="224" on="0"/>
        <pt x="177" y="162" on="0"/>
        <pt x="207" y="116" on="0"/>
        <pt x="252" y="89" on="0"/>
        <pt x="281" y="89" on="1"/>
        <pt x="310" y="89" on="0"/>
        <pt x="355" y="116" on="0"/>
        <pt x="385" y="162" on="0"/>
        <pt x="400" y="224" on="0"/>
        <pt x="400" y="259" on="1"/>
        <pt x="400" y="294" on="0"/>
        <pt x="385" y="355" on="0"/>
        <pt x="355" y="401" on="0"/>
        <pt x="310" y="428" on="0"/>
        <pt x="281" y="428" on="1"/>
        <pt x="252" y="428" on="0"/>
        <pt x="207" y="401" on="0"/>
        <pt x="177" y="355" on="0"/>
        <pt x="161" y="294" on="0"/>
      </contour>
      <contour>
        <pt x="332" y="743" on="1"/>
        <pt x="439" y="603" on="1"/>
        <pt x="358" y="585" on="1"/>
        <pt x="280" y="658" on="1"/>
        <pt x="204" y="585" on="1"/>
        <pt x="124" y="603" on="1"/>
        <pt x="229" y="743" on="1"/>
      </contour>
    </TTGlyph>
    <TTGlyph name="odieresis" xMin="12" yMin="-13" xMax="548" yMax="733">
      <contour>
        <pt x="548" y="259" on="1"/>
        <pt x="548" y="201" on="0"/>
        <pt x="506" y="102" on="0"/>
        <pt x="434" y="29" on="0"/>
        <pt x="336" y="-13" on="0"/>
        <pt x="280" y="-13" on="1"/>
        <pt x="224" y="-13" on="0"/>
        <pt x="126" y="25" on="0"/>
        <pt x="54" y="96" on="0"/>
        <pt x="12" y="196" on="0"/>
        <pt x="12" y="259" on="1"/>
        <pt x="12" y="316" on="0"/>
        <pt x="54" y="415" on="0"/>
        <pt x="126" y="488" on="0"/>
        <pt x="224" y="530" on="0"/>
        <pt x="280" y="530" on="1"/>
        <pt x="336" y="530" on="0"/>
        <pt x="434" y="492" on="0"/>
        <pt x="506" y="421" on="0"/>
        <pt x="548" y="321" on="0"/>
      </contour>
      <contour>
        <pt x="160" y="259" on="1"/>
        <pt x="160" y="224" on="0"/>
        <pt x="176" y="162" on="0"/>
        <pt x="206" y="116" on="0"/>
        <pt x="251" y="89" on="0"/>
        <pt x="280" y="89" on="1"/>
        <pt x="309" y="89" on="0"/>
        <pt x="354" y="116" on="0"/>
        <pt x="384" y="162" on="0"/>
        <pt x="399" y="224" on="0"/>
        <pt x="399" y="259" on="1"/>
        <pt x="399" y="294" on="0"/>
        <pt x="384" y="355" on="0"/>
        <pt x="354" y="401" on="0"/>
        <pt x="309" y="428" on="0"/>
        <pt x="280" y="428" on="1"/>
        <pt x="251" y="428" on="0"/>
        <pt x="206" y="401" on="0"/>
        <pt x="176" y="355" on="0"/>
        <pt x="160" y="294" on="0"/>
      </contour>
      <contour>
        <pt x="120" y="670" on="1"/>
        <pt x="120" y="696" on="0"/>
        <pt x="157" y="733" on="0"/>
        <pt x="183" y="733" on="1"/>
        <pt x="209" y="733" on="0"/>
        <pt x="247" y="696" on="0"/>
        <pt x="247" y="670" on="1"/>
        <pt x="247" y="644" on="0"/>
        <pt x="209" y="607" on="0"/>
        <pt x="183" y="607" on="1"/>
        <pt x="157" y="607" on="0"/>
        <pt x="120" y="644" on="0"/>
      </contour>
      <contour>
        <pt x="315" y="670" on="1"/>
        <pt x="315" y="696" on="0"/>
        <pt x="352" y="733" on="0"/>
        <pt x="378" y="733" on="1"/>
        <pt x="404" y="733" on="0"/>
        <pt x="442" y="696" on="0"/>
        <pt x="442" y="670" on="1"/>
        <pt x="442" y="644" on="0"/>
        <pt x="404" y="607" on="0"/>
        <pt x="378" y="607" on="1"/>
        <pt x="352" y="607" on="0"/>
        <pt x="315" y="644" on="0"/>
      </contour>
    </TTGlyph>
</ttFont>
